<?xml version="1.0" encoding="utf-8"?>
<svg version="1.1" xmlns:xlink="http://www.w3.org/1999/xlink" width="100px" height="138px" xmlns="http://www.w3.org/2000/svg">
  <g transform="matrix(1 0 0 1 -26 -16 )">
    <path d="M 26 16  L 126 16  L 126 154  L 26 154  L 26 16  " fill-rule="nonzero" fill="#cccccc" stroke="none" />
    <path d="M 33 23  L 119 23  L 119 147  L 33 147  L 33 23  " fill-rule="nonzero" fill="#ffffff" stroke="none" />
    <path d="M 85.5 51.7  C 81.3 51.7  78 48.4  78 44.2  C 78 40  81.3 36.7  85.5 36.7  C 89.7 36.7  93 40  93 44.2  C 93 48.4  89.7 51.7  85.5 51.7  " fill-rule="nonzero" fill="#cccccc" stroke="none" />
    <path d="M 36 145  L 36 79.55  L 56.25 49.8  L 84.6 73.6  L 100.8 67.65  L 117 73.6  L 117 145  L 36 145  " fill-rule="nonzero" fill="#169bd5" stroke="none" />
  </g>
</svg>