<?xml version="1.0" encoding="utf-8"?>
<svg version="1.1" xmlns:xlink="http://www.w3.org/1999/xlink" width="23px" height="23px" xmlns="http://www.w3.org/2000/svg">
  <g transform="matrix(1 0 0 1 -455 -260 )">
    <path d="M 466.5 260  C 472.94 260  478 265.06  478 271.5  C 478 277.94  472.94 283  466.5 283  C 460.06 283  455 277.94  455 271.5  C 455 265.06  460.06 260  466.5 260  Z " fill-rule="nonzero" fill="#8a8585" stroke="none" />
    <path d="M 466.5 260.5  C 472.66 260.5  477.5 265.34  477.5 271.5  C 477.5 277.66  472.66 282.5  466.5 282.5  C 460.34 282.5  455.5 277.66  455.5 271.5  C 455.5 265.34  460.34 260.5  466.5 260.5  Z " stroke-width="1" stroke="#797979" fill="none" />
  </g>
</svg>