<?xml version="1.0" encoding="UTF-8"?>
<svg id="_图层_2" data-name="图层 2" xmlns="http://www.w3.org/2000/svg" viewBox="0 0 50.2 50.2">
  <defs>
    <style>
      .cls-1, .cls-2 {
        fill: #fff100;
      }

      .cls-2 {
        fill-rule: evenodd;
      }
    </style>
  </defs>
  <g id="_图层_1-2" data-name="图层 1">
    <g>
      <path class="cls-2" d="M25.1,0C11.26,0,0,11.26,0,25.1s11.26,25.1,25.1,25.1,25.1-11.26,25.1-25.1S38.94,0,25.1,0Zm0,49C11.92,49,1.2,38.28,1.2,25.1S11.92,1.2,25.1,1.2s23.9,10.72,23.9,23.9-10.72,23.9-23.9,23.9Z"/>
      <path class="cls-2" d="M25.1,11.5c-7.5,0-13.6,6.1-13.6,13.6s6.1,13.6,13.6,13.6,13.6-6.1,13.6-13.6-6.1-13.6-13.6-13.6Zm0,26c-6.84,0-12.4-5.56-12.4-12.4s5.56-12.4,12.4-12.4,12.4,5.56,12.4,12.4-5.56,12.4-12.4,12.4Z"/>
      <path class="cls-2" d="M25.1,16.5c-4.74,0-8.6,3.86-8.6,8.6s3.86,8.6,8.6,8.6,8.6-3.86,8.6-8.6-3.86-8.6-8.6-8.6Zm0,16c-4.08,0-7.4-3.32-7.4-7.4s3.32-7.4,7.4-7.4,7.4,3.32,7.4,7.4-3.32,7.4-7.4,7.4Z"/>
      <circle class="cls-1" cx="25.1" cy="25.1" r="5" transform="translate(-3.7 4.34) rotate(-9.22)"/>
    </g>
  </g>
</svg>