<?xml version="1.0" encoding="utf-8"?>
<svg version="1.1" xmlns:xlink="http://www.w3.org/1999/xlink" width="300px" height="116px" xmlns="http://www.w3.org/2000/svg">
  <g transform="matrix(1 0 0 1 -1776 -1105 )">
    <path d="M 1776 1105  L 2076 1105  L 2076 1221  L 1776 1221  L 1776 1105  " fill-rule="nonzero" fill="#cccccc" stroke="none" />
    <path d="M 1784 1113  L 2068 1113  L 2068 1213  L 1784 1213  L 1784 1113  " fill-rule="nonzero" fill="#ffffff" stroke="none" />
    <path d="M 1940.7 1139.8  C 1935.828 1139.8  1932 1135.972  1932 1131.1  C 1932 1126.228  1935.828 1122.4  1940.7 1122.4  C 1945.572 1122.4  1949.4 1126.228  1949.4 1131.1  C 1949.4 1135.972  1945.572 1139.8  1940.7 1139.8  " fill-rule="nonzero" fill="#cccccc" stroke="none" />
    <path d="M 1787 1210  L 1787 1158.3  L 1856.5 1134.8  L 1953.8 1188.192  L 2009.4 1148.9  L 2065 1188.192  L 2065 1210  L 1787 1210  " fill-rule="nonzero" fill="#169bd5" stroke="none" />
  </g>
</svg>