<?xml version="1.0" encoding="utf-8"?>
<svg version="1.1" xmlns:xlink="http://www.w3.org/1999/xlink" width="98px" height="31px" xmlns="http://www.w3.org/2000/svg">
  <g transform="matrix(1 0 0 1 -893 -131 )">
    <path d="M 893 131  L 991 131  L 991 162  L 893 162  L 893 131  " fill-rule="nonzero" fill="#cccccc" stroke="none" />
    <path d="M 895 133  L 989 133  L 989 160  L 895 160  L 895 133  " fill-rule="nonzero" fill="#ffffff" stroke="none" />
    <path d="M 946.285 140.3  C 944.983 140.3  943.96 139.277  943.96 137.975  C 943.96 136.673  944.983 135.65  946.285 135.65  C 947.587 135.65  948.61 136.673  948.61 137.975  C 948.61 139.277  947.587 140.3  946.285 140.3  " fill-rule="nonzero" fill="#cccccc" stroke="none" />
    <path d="M 896 159  L 896 145.25  L 919 139  L 951.2 154.255102040816  L 969.6 142.75  L 988 154.255102040816  L 988 159  L 896 159  " fill-rule="nonzero" fill="#169bd5" stroke="none" />
  </g>
</svg>