<?xml version="1.0" encoding="utf-8"?>
<svg version="1.1" xmlns:xlink="http://www.w3.org/1999/xlink" width="20px" height="20px" xmlns="http://www.w3.org/2000/svg">
  <defs>
    <linearGradient gradientUnits="userSpaceOnUse" x1="31" y1="1" x2="31" y2="21" id="LinearGradient12">
      <stop id="Stop13" stop-color="#067cea" offset="0" />
      <stop id="Stop14" stop-color="#9beef6" offset="1" />
    </linearGradient>
  </defs>
  <g transform="matrix(1 0 0 1 -21 -1 )">
    <path d="M 31 1  C 36.6 1  41 5.4  41 11  C 41 16.6  36.6 21  31 21  C 25.4 21  21 16.6  21 11  C 21 5.4  25.4 1  31 1  Z " fill-rule="nonzero" fill="url(#LinearGradient12)" stroke="none" />
    <path d="M 31 1.5  C 36.32 1.5  40.5 5.68  40.5 11  C 40.5 16.32  36.32 20.5  31 20.5  C 25.68 20.5  21.5 16.32  21.5 11  C 21.5 5.68  25.68 1.5  31 1.5  Z " stroke-width="1" stroke="#55e6f4" fill="none" />
  </g>
</svg>