<?xml version="1.0" encoding="utf-8"?>
<svg version="1.1" xmlns:xlink="http://www.w3.org/1999/xlink" width="32px" height="32px" xmlns="http://www.w3.org/2000/svg">
  <defs>
    <linearGradient gradientUnits="userSpaceOnUse" x1="16" y1="0" x2="16" y2="32" id="LinearGradient15">
      <stop id="Stop16" stop-color="#067cea" offset="0" />
      <stop id="Stop17" stop-color="#9beef6" offset="1" />
    </linearGradient>
  </defs>
  <g transform="matrix(1 0 0 1 -129 -117 )">
    <path d="M 31.9659332860185 1.21590909090909  C 32.018925952212 1.52651515151515  31.9697184764608 1.82575757575757  31.8183108587651 2.11363636363636  L 17.2831795599716 31.2045454545455  C 17.0257866098888 31.7348484848485  16.5942748994559 32  15.9886444286728 32  C 15.9129406198249 32  15.7993849065531 31.9848484848485  15.6479772888573 31.9545454545455  C 15.3148805299267 31.8787878787879  15.0461320085167 31.7083333333333  14.8417317246274 31.4431818181818  C 14.6373314407381 31.1780303030303  14.5351312987935 30.8787878787879  15 30.5454545454545  L 15 17  L 1.45351312987935 17  C 1.12041637094866 17.4545454545455  0.821386325999527 17.3522727272727  0.556422995031938 17.1477272727273  C 0.291459664064348 16.9431818181818  0.121126094156612 16.6742424242424  0.0454222853087296 16.3409090909091  C -0.0302815235391531 16.0075757575758  0 15.6893939393939  0.136266855926189 15.3863636363636  C 0.272533711852378 15.0833333333333  0.492074757511237 14.8560606060606  0.794889992902768 14.7045454545455  L 29.8651525904897 0.15909090909091  C 30.0619824934942 0.053030303030301  30.2815235391531 0  30.5237757274663 0  C 30.9325762952449 0  31.2732434350603 0.143939393939391  31.5457771469127 0.431818181818183  C 31.7728885734564 0.643939393939391  31.9129406198249 0.905303030303028  31.9659332860185 1.21590909090909  Z " fill-rule="nonzero" fill="url(#LinearGradient15)" stroke="none" transform="matrix(1 0 0 1 129 117 )" />
  </g>
</svg>