<?xml version="1.0" encoding="utf-8"?>
<svg version="1.1" xmlns:xlink="http://www.w3.org/1999/xlink" width="27px" height="25px" xmlns="http://www.w3.org/2000/svg">
  <g transform="matrix(1 0 0 1 -1543 -126 )">
    <path d="M 20.4609375 22.607421875  C 20.6664663461538 22.4012586805556  20.7692307692308 22.1571180555556  20.7692307692308 21.875  C 20.7692307692308 21.5928819444444  20.6664663461538 21.3487413194444  20.4609375 21.142578125  C 20.2554086538462 20.9364149305556  20.0120192307692 20.8333333333333  19.7307692307692 20.8333333333333  C 19.4495192307692 20.8333333333333  19.2061298076923 20.9364149305556  19.0006009615385 21.142578125  C 18.7950721153846 21.3487413194444  18.6923076923077 21.5928819444444  18.6923076923077 21.875  C 18.6923076923077 22.1571180555556  18.7950721153846 22.4012586805556  19.0006009615385 22.607421875  C 19.2061298076923 22.8135850694444  19.4495192307692 22.9166666666667  19.7307692307692 22.9166666666667  C 20.0120192307692 22.9166666666667  20.2554086538462 22.8135850694444  20.4609375 22.607421875  Z M 24.6147836538462 22.607421875  C 24.8203125 22.4012586805556  24.9230769230769 22.1571180555556  24.9230769230769 21.875  C 24.9230769230769 21.5928819444444  24.8203125 21.3487413194444  24.6147836538462 21.142578125  C 24.4092548076923 20.9364149305556  24.1658653846154 20.8333333333333  23.8846153846154 20.8333333333333  C 23.6033653846154 20.8333333333333  23.3599759615385 20.9364149305556  23.1544471153846 21.142578125  C 22.9489182692308 21.3487413194444  22.8461538461538 21.5928819444444  22.8461538461538 21.875  C 22.8461538461538 22.1571180555556  22.9489182692308 22.4012586805556  23.1544471153846 22.607421875  C 23.3599759615385 22.8135850694444  23.6033653846154 22.9166666666667  23.8846153846154 22.9166666666667  C 24.1658653846154 22.9166666666667  24.4092548076923 22.8135850694444  24.6147836538462 22.607421875  Z M 26.5456730769231 17.1223958333333  C 26.8485576923077 17.4262152777778  27 17.7951388888889  27 18.2291666666667  L 27 23.4375  C 27 23.8715277777778  26.8485576923077 24.2404513888889  26.5456730769231 24.5442708333333  C 26.2427884615385 24.8480902777778  25.875 25  25.4423076923077 25  L 1.55769230769231 25  C 1.125 25  0.757211538461539 24.8480902777778  0.454326923076923 24.5442708333333  C 0.151442307692308 24.2404513888889  0 23.8715277777778  0 23.4375  L 0 18.2291666666667  C 0 17.7951388888889  0.151442307692308 17.4262152777778  0.454326923076923 17.1223958333333  C 0.757211538461539 16.8185763888889  1.125 16.6666666666667  1.55769230769231 16.6666666666667  L 9.10276442307692 16.6666666666667  L 11.2932692307692 18.8802083333333  C 11.9206730769231 19.4878472222222  12.65625 19.7916666666667  13.5 19.7916666666667  C 14.34375 19.7916666666667  15.0793269230769 19.4878472222222  15.7067307692308 18.8802083333333  L 17.9134615384615 16.6666666666667  L 25.4423076923077 16.6666666666667  C 25.875 16.6666666666667  26.2427884615385 16.8185763888889  26.5456730769231 17.1223958333333  Z M 20.7692307692308 8.33333333333333  C 21.2235576923077 8.33333333333333  21.5426682692308 8.544921875  21.7265625 8.96809895833333  C 21.9104567307692 9.41297743055556  21.8347355769231 9.79275173611111  21.4993990384615 10.107421875  L 14.2301682692308 17.3990885416667  C 14.0354567307692 17.6052517361111  13.7920673076923 17.7083333333333  13.5 17.7083333333333  C 13.2079326923077 17.7083333333333  12.9645432692308 17.6052517361111  12.7698317307692 17.3990885416667  L 5.50060096153846 10.107421875  C 5.16526442307692 9.79275173611111  5.08954326923077 9.41297743055556  5.2734375 8.96809895833333  C 5.45733173076923 8.544921875  5.77644230769231 8.33333333333333  6.23076923076923 8.33333333333333  L 10.3846153846154 8.33333333333333  L 10.3846153846154 1.04166666666667  C 10.3846153846154 0.759548611111108  10.4873798076923 0.515407986111108  10.6929086538462 0.309244791666666  C 10.8984375 0.103081597222224  11.1418269230769 0  11.4230769230769 0  L 15.5769230769231 0  C 15.8581730769231 0  16.1015625 0.103081597222224  16.3070913461538 0.309244791666666  C 16.5126201923077 0.515407986111108  16.6153846153846 0.759548611111108  16.6153846153846 1.04166666666667  L 16.6153846153846 8.33333333333333  L 20.7692307692308 8.33333333333333  Z " fill-rule="nonzero" fill="#888181" stroke="none" transform="matrix(1 0 0 1 1543 126 )" />
  </g>
</svg>