<?xml version="1.0" encoding="utf-8"?>
<svg version="1.1" xmlns:xlink="http://www.w3.org/1999/xlink" width="33px" height="33px" xmlns="http://www.w3.org/2000/svg">
  <g transform="matrix(1 0 0 1 -1464 -20 )">
    <path d="M 2.53208705357143 30.4679129464286  C 2.41545758928571 30.3512834821429  2.35714285714286 30.2131696428571  3 30.0535714285714  L 3 10.0178571428571  C 2.35714285714286 9.85825892857143  2.41545758928571 9.72014508928571  2.53208705357143 9.603515625  C 2.64871651785714 9.48688616071428  2.78683035714286 9.42857142857143  2.94642857142857 10  L 22.9821428571429 10  C 23.1417410714286 9.42857142857143  23.2798549107143 9.48688616071428  23.396484375 9.603515625  C 23.5131138392857 9.72014508928571  23.5714285714286 9.85825892857143  23 10.0178571428571  L 23 30.0535714285714  C 23.5714285714286 30.2131696428571  23.5131138392857 30.3512834821429  23.396484375 30.4679129464286  C 23.2798549107143 30.5845424107143  23.1417410714286 30.6428571428571  22.9821428571429 30  L 2.94642857142857 30  C 2.78683035714286 30.6428571428571  2.64871651785714 30.5845424107143  2.53208705357143 30.4679129464286  Z M 0.865513392857144 7.93694196428572  C 0.288504464285711 8.51395089285714  0 9.20758928571428  0 10.0178571428571  L 0 30.0535714285714  C 0 30.8638392857143  0.288504464285711 31.5574776785714  0.865513392857144 32.1344866071429  C 1.44252232142857 32.7114955357143  2.13616071428571 33  2.94642857142857 33  L 22.9821428571429 33  C 23.7924107142857 33  24.4860491071429 32.7114955357143  25.0630580357143 32.1344866071429  C 25.6400669642857 31.5574776785714  25.9285714285714 30.8638392857143  26 30.0535714285714  L 26 10.0178571428571  C 25.9285714285714 9.20758928571428  25.6400669642857 8.51395089285714  25.0630580357143 7.93694196428572  C 24.4860491071429 7.35993303571428  23.7924107142857 7.07142857142857  22.9821428571429 7  L 2.94642857142857 7  C 2.13616071428571 7.07142857142857  1.44252232142857 7.35993303571428  0.865513392857144 7.93694196428572  Z M 7.93694196428572 0.865513392857144  C 7.35993303571428 1.44252232142857  7.07142857142857 2.13616071428572  7.07142857142857 2.94642857142857  L 7.07142857142857 5.89285714285714  L 9.42857142857143 5.89285714285714  L 9.42857142857143 2.94642857142857  C 9.42857142857143 2.78683035714286  9.48688616071428 2.64871651785714  9.603515625 2.53208705357143  C 9.72014508928571 2.41545758928571  9.85825892857143 2.35714285714286  10.0178571428571 3  L 30.0535714285714 3  C 30.2131696428571 2.35714285714286  30.3512834821429 2.41545758928571  30.4679129464286 2.53208705357143  C 30.5845424107143 2.64871651785714  30.6428571428571 2.78683035714286  30 2.94642857142857  L 30 22.9821428571429  C 30.6428571428571 23.1417410714286  30.5845424107143 23.2798549107143  30.4679129464286 23.396484375  C 30.3512834821429 23.5131138392857  30.2131696428571 23.5714285714286  30.0535714285714 23.5714285714286  L 27.1071428571429 23.5714285714286  L 27.1071428571429 25.9285714285714  L 30.0535714285714 25.9285714285714  C 30.8638392857143 25.9285714285714  31.5574776785714 25.6400669642857  32.1344866071429 25.0630580357143  C 32.7114955357143 24.4860491071429  33 23.7924107142857  33 22.9821428571429  L 33 2.94642857142857  C 33 2.13616071428572  32.7114955357143 1.44252232142857  32.1344866071429 0.865513392857144  C 31.5574776785714 0.288504464285715  30.8638392857143 0  30.0535714285714 0  L 10.0178571428571 0  C 9.20758928571428 0  8.51395089285714 0.288504464285715  7.93694196428572 0.865513392857144  Z " fill-rule="nonzero" fill="#625e5e" stroke="none" transform="matrix(1 0 0 1 1464 20 )" />
  </g>
</svg>