<?xml version="1.0" encoding="utf-8"?>
<svg version="1.1" xmlns:xlink="http://www.w3.org/1999/xlink" width="74px" height="74px" xmlns="http://www.w3.org/2000/svg">
  <g transform="matrix(1 0 0 1 -32 -1315 )">
    <path d="M 69 1315  C 89.72 1315  106 1331.28  106 1352  C 106 1372.72  89.72 1389  69 1389  C 48.28 1389  32 1372.72  32 1352  C 32 1331.28  48.28 1315  69 1315  Z " fill-rule="nonzero" fill="#ffffff" stroke="none" />
    <path d="M 69 1315.5  C 89.44 1315.5  105.5 1331.56  105.5 1352  C 105.5 1372.44  89.44 1388.5  69 1388.5  C 48.56 1388.5  32.5 1372.44  32.5 1352  C 32.5 1331.56  48.56 1315.5  69 1315.5  Z " stroke-width="1" stroke="#797979" fill="none" />
  </g>
</svg>