<svg id="_-s-nav_icon5" data-name="-s-nav_icon5" xmlns="http://www.w3.org/2000/svg" width="18" height="18" viewBox="0 0 18 18">
  <defs>
    <style>
      .cls-1 {

      }

      .cls-1, .cls-2 {
        fill-rule: evenodd;
      }

      .cls-2 {
        fill: #00a0e9;
      }
    </style>
  </defs>
  <path id="形状_33" data-name="形状 33" class="cls-1" d="M36.92,283.237V286H34.888v-4.356a6.316,6.316,0,0,0,5.08-6.27H42a8.5,8.5,0,0,1-5.08,7.863h0Zm1.422-8.819a4.162,4.162,0,0,0-.1-1.169l0.508-.637-1.016-1.807-0.711.107a4.214,4.214,0,0,0-1.829-1.169l-0.3-.744H32.856l-0.3.744a4.214,4.214,0,0,0-1.829,1.169l-0.711-.107L29,272.612l0.406,0.531a4.553,4.553,0,0,0-.1,1.169,1.812,1.812,0,0,0,.2,1.062L29,276.012l1.016,1.806,0.711-.106a4.233,4.233,0,0,0,1.829,1.169l0.3,0.744h2.032l0.3-.638a4.214,4.214,0,0,0,1.829-1.169l0.711,0.213,1.016-1.807-0.508-.637A4.553,4.553,0,0,0,38.342,274.418Zm-4.47,3.081a3.191,3.191,0,1,1,3.048-3.187A3.064,3.064,0,0,1,33.872,277.5Zm0-2.125a1.064,1.064,0,1,1,1.016-1.062,0.982,0.982,0,0,1-1.016,1.062h0Z" transform="translate(-25 -268.5)"/>
  <path id="形状_34" data-name="形状 34" class="cls-2" d="M31.033,283.188A8.732,8.732,0,0,1,26,275.225h2.014a6.363,6.363,0,0,0,5.035,6.349v4.412H31.033v-2.8Z" transform="translate(-25 -268.5)"/>
</svg>
