<svg id="_-s-nav_icon7" data-name="-s-nav_icon7" xmlns="http://www.w3.org/2000/svg" width="18" height="18" viewBox="0 0 18 18">
  <defs>
    <style>
      .cls-1 {

      }

      .cls-1, .cls-2 {
        fill-rule: evenodd;
      }

      .cls-2 {
        fill: #00a0e9;
      }
    </style>
  </defs>
  <path id="形状_23" data-name="形状 23" class="cls-1" d="M25,365V379H43V365H25ZM41,376.832H27V367.17H41v9.662Zm-1-6.84v2H34v-2h6Zm-2,3v2H34v-2h4Z" transform="translate(-25 -363)"/>
  <path id="形状_24" data-name="形状 24" class="cls-2" d="M30.486,372a2.475,2.475,0,0,0-2.5,2.5V375h5v-0.5A2.475,2.475,0,0,0,30.486,372Zm1.5-1.5a1.5,1.5,0,1,0-1.5,1.5A1.538,1.538,0,0,0,31.986,370.5Z" transform="translate(-25 -363)"/>
</svg>
