<svg 
 xmlns="http://www.w3.org/2000/svg"
 xmlns:xlink="http://www.w3.org/1999/xlink"
 width="18px" height="14px">
<path fill-rule="evenodd"
 d="M0.002,13.997 L0.002,0.004 L17.996,0.004 L17.996,13.997 L0.002,13.997 ZM15.997,2.170 L2.001,2.170 L2.001,11.832 L15.997,11.832 L15.997,2.170 ZM14.997,6.995 L8.999,6.995 L8.999,4.992 L14.997,4.992 L14.997,6.995 ZM12.998,9.999 L8.999,9.999 L8.999,7.996 L12.998,7.996 L12.998,9.999 Z"/>
<path fill-rule="evenodd"  fill="rgb(0, 160, 233)"
 d="M2.986,10.001 L2.986,9.501 C2.986,8.101 4.086,7.001 5.486,7.001 C6.886,7.001 7.985,8.101 7.985,9.501 L7.985,10.001 L2.986,10.001 ZM3.986,5.501 C3.986,4.701 4.686,4.001 5.486,4.001 C6.286,4.001 6.986,4.701 6.986,5.501 C6.986,6.301 6.286,7.001 5.486,7.001 C4.686,7.001 3.986,6.301 3.986,5.501 Z"/>
</svg>
