<svg 
 xmlns="http://www.w3.org/2000/svg"
 xmlns:xlink="http://www.w3.org/1999/xlink"
 width="12px" height="12px">
<path fill-rule="evenodd"  fill="rgb(149, 162, 184)"
 d="M5.350,10.370 C2.369,10.370 -0.000,8.074 -0.000,5.185 C-0.000,2.296 2.369,-0.000 5.350,-0.000 C8.331,-0.000 10.700,2.296 10.700,5.185 C10.700,8.074 8.331,10.370 5.350,10.370 L5.350,10.370 ZM5.350,8.889 C7.490,8.889 9.172,7.259 9.172,5.185 C9.172,3.111 7.490,1.481 5.350,1.481 C3.210,1.481 1.528,3.111 1.528,5.185 C1.528,7.259 3.210,8.889 5.350,8.889 L5.350,8.889 ZM9.860,8.889 L12.000,10.963 L10.930,12.000 L8.790,9.926 L9.860,8.889 Z"/>
</svg>
