<svg id="_-s-nav_icon4" data-name="-s-nav_icon4" xmlns="http://www.w3.org/2000/svg" width="18" height="18" viewBox="0 0 18 18">
  <defs>
    <style>
      .cls-1 {

      }

      .cls-1, .cls-2 {
        fill-rule: evenodd;
      }

      .cls-2 {
        fill: #00a0e9;
      }
    </style>
  </defs>
  <path id="形状_25" data-name="形状 25" class="cls-1" d="M34.065,237.112v2.016H26V235.1h0.1l2.016-2.017h8.871L39,235.1H28.924L28.017,236v1.109h6.048ZM32.553,223a4.537,4.537,0,1,0,4.536,4.537A4.518,4.518,0,0,0,32.553,223Zm0,7.058a2.521,2.521,0,1,1,2.52-2.521A2.5,2.5,0,0,1,32.553,230.055Z" transform="translate(-25.5 -223)"/>
  <path id="形状_26" data-name="形状 26" class="cls-2" d="M38.374,238.19l3.251-3.305,1.379,1.4L38.374,241l-2.758-2.806,1.379-1.4Z" transform="translate(-25.5 -223)"/>
</svg>
