<?xml version="1.0" encoding="UTF-8"?>
<svg id="_图层_2" data-name="图层 2" xmlns="http://www.w3.org/2000/svg" viewBox="0 0 66.24 82.83">
  <defs>
    <style>
      .cls-1 {
        fill: #fff;
      }

      .cls-2 {
        fill: #3aacff;
      }
    </style>
  </defs>
  <g id="_图层_1-2" data-name="图层 1">
    <path class="cls-2" d="M45.62,0H2.31C1.03,0,0,1.03,0,2.31V80.52c0,1.28,1.03,2.31,2.31,2.31H63.92c1.28,0,2.31-1.04,2.31-2.31V20.85L45.62,0Z"/>
    <path class="cls-1" d="M22.39,34.76c0-2.47,2.03-3.63,4.36-3.63,.73,0,1.6,.15,2.33,.58l16.57,9.59c2.91,1.6,2.91,5.67,0,7.27l-16.57,9.59c-.73,.44-1.45,.58-2.33,.58-2.32,0-4.36-1.16-4.36-3.63v-20.34Z"/>
  </g>
</svg>