<?xml version="1.0" encoding="utf-8"?>
<svg version="1.1" xmlns:xlink="http://www.w3.org/1999/xlink" width="300px" height="359px" xmlns="http://www.w3.org/2000/svg">
  <g transform="matrix(1 0 0 1 -1220 -165 )">
    <path d="M 1220 165  L 1520 165  L 1520 524  L 1220 524  L 1220 165  " fill-rule="nonzero" fill="#cccccc" stroke="none" />
    <path d="M 1241 186  L 1499 186  L 1499 503  L 1241 503  L 1241 186  " fill-rule="nonzero" fill="#ffffff" stroke="none" />
    <path d="M 1398.5 263.85  C 1385.9 263.85  1376 253.95  1376 241.35  C 1376 228.75  1385.9 218.85  1398.5 218.85  C 1411.1 218.85  1421 228.75  1421 241.35  C 1421 253.95  1411.1 263.85  1398.5 263.85  " fill-rule="nonzero" fill="#cccccc" stroke="none" />
    <path d="M 1249 496  L 1249 329.9  L 1309.75 254.4  L 1394.8 314.8  L 1443.4 299.7  L 1492 314.8  L 1492 496  L 1249 496  " fill-rule="nonzero" fill="#169bd5" stroke="none" />
  </g>
</svg>