<?xml version="1.0" encoding="utf-8"?>
<svg version="1.1" xmlns:xlink="http://www.w3.org/1999/xlink" width="10px" height="10px" xmlns="http://www.w3.org/2000/svg">
  <g transform="matrix(1 0 0 1 -158 -173 )">
    <path d="M 163 173  C 165.8 173  168 175.2  168 178  C 168 180.8  165.8 183  163 183  C 160.2 183  158 180.8  158 178  C 158 175.2  160.2 173  163 173  Z " fill-rule="nonzero" fill="#1ec695" stroke="none" />
    <path d="M 163 173.5  C 165.52 173.5  167.5 175.48  167.5 178  C 167.5 180.52  165.52 182.5  163 182.5  C 160.48 182.5  158.5 180.52  158.5 178  C 158.5 175.48  160.48 173.5  163 173.5  Z " stroke-width="1" stroke="#1ec695" fill="none" />
  </g>
</svg>