<?xml version="1.0" encoding="utf-8"?>
<svg version="1.1" xmlns:xlink="http://www.w3.org/1999/xlink" width="18px" height="18px" xmlns="http://www.w3.org/2000/svg">
  <g transform="matrix(1 0 0 1 -154 -169 )">
    <path d="M 163 169  C 168.04 169  172 172.96  172 178  C 172 183.04  168.04 187  163 187  C 157.96 187  154 183.04  154 178  C 154 172.96  157.96 169  163 169  Z " fill-rule="nonzero" fill="#ffffff" stroke="none" fill-opacity="0" />
    <path d="M 163 169.5  C 167.76 169.5  171.5 173.24  171.5 178  C 171.5 182.76  167.76 186.5  163 186.5  C 158.24 186.5  154.5 182.76  154.5 178  C 154.5 173.24  158.24 169.5  163 169.5  Z " stroke-width="1" stroke="#1ec695" fill="none" />
  </g>
</svg>