<?xml version="1.0" encoding="utf-8"?>
<svg version="1.1" xmlns:xlink="http://www.w3.org/1999/xlink" width="12px" height="12px" viewBox="606 715  12 12" xmlns="http://www.w3.org/2000/svg">
  <path d="M 612 715  C 615.36 715  618 717.64  618 721  C 618 724.36  615.36 727  612 727  C 608.64 727  606 724.36  606 721  C 606 717.64  608.64 715  612 715  Z " fill-rule="nonzero" fill="#ffffff" stroke="none" />
  <path d="M 612 715.5  C 615.08 715.5  617.5 717.92  617.5 721  C 617.5 724.08  615.08 726.5  612 726.5  C 608.92 726.5  606.5 724.08  606.5 721  C 606.5 717.92  608.92 715.5  612 715.5  Z " stroke-width="1" stroke="#797979" fill="none" />
  <path d="M 612 724  C 610.32 724  609 722.68  609 721  C 609 719.32  610.32 718  612 718  C 613.68 718  615 719.32  615 721  C 615 722.68  613.68 724  612 724  " fill-rule="nonzero" fill="#797979" stroke="none" />
</svg>