<?xml version="1.0" encoding="utf-8"?>
<svg version="1.1" xmlns:xlink="http://www.w3.org/1999/xlink" width="12px" height="12px" viewBox="688 715  12 12" xmlns="http://www.w3.org/2000/svg">
  <path d="M 694 715  C 697.36 715  700 717.64  700 721  C 700 724.36  697.36 727  694 727  C 690.64 727  688 724.36  688 721  C 688 717.64  690.64 715  694 715  Z " fill-rule="nonzero" fill="#ffffff" stroke="none" />
  <path d="M 694 715.5  C 697.08 715.5  699.5 717.92  699.5 721  C 699.5 724.08  697.08 726.5  694 726.5  C 690.92 726.5  688.5 724.08  688.5 721  C 688.5 717.92  690.92 715.5  694 715.5  Z " stroke-width="1" stroke="#797979" fill="none" />
  <path d="M 694 724  C 692.32 724  691 722.68  691 721  C 691 719.32  692.32 718  694 718  C 695.68 718  697 719.32  697 721  C 697 722.68  695.68 724  694 724  " fill-rule="nonzero" fill="#797979" stroke="none" />
</svg>