<?xml version="1.0" encoding="utf-8"?>
<svg version="1.1" xmlns:xlink="http://www.w3.org/1999/xlink" width="32px" height="32px" xmlns="http://www.w3.org/2000/svg">
  <g transform="matrix(1 0 0 1 -700 -66 )">
    <path d="M 31.3636363636364 12.2727272727273  C 31.7878787878788 12.6969696969697  32 13.2121212121212  32 13.8181818181818  L 32 18.1818181818182  C 32 18.7878787878788  31.7878787878788 19.3030303030303  31.3636363636364 19.7272727272727  C 30.9393939393939 20.1515151515151  30.4242424242424 20.3636363636364  29.8181818181818 20.3636363636364  L 20.3636363636364 20.3636363636364  L 20.3636363636364 29.8181818181818  C 20.3636363636364 30.4242424242424  20.1515151515152 30.9393939393939  19.7272727272727 31.3636363636364  C 19.3030303030303 31.7878787878788  18.7878787878788 32  18.1818181818182 32  L 13.8181818181818 32  C 13.2121212121212 32  12.6969696969697 31.7878787878788  12.2727272727273 31.3636363636364  C 11.8484848484848 30.9393939393939  11.6363636363636 30.4242424242424  11.6363636363636 29.8181818181818  L 11.6363636363636 20.3636363636364  L 2.18181818181818 20.3636363636364  C 1.57575757575758 20.3636363636364  1.06060606060606 20.1515151515151  0.636363636363636 19.7272727272727  C 0.212121212121212 19.3030303030303  0 18.7878787878788  0 18.1818181818182  L 0 13.8181818181818  C 0 13.2121212121212  0.212121212121212 12.6969696969697  0.636363636363636 12.2727272727273  C 1.06060606060606 11.8484848484848  1.57575757575758 11.6363636363636  2.18181818181818 11.6363636363636  L 11.6363636363636 11.6363636363636  L 11.6363636363636 2.18181818181818  C 11.6363636363636 1.57575757575757  11.8484848484848 1.06060606060606  12.2727272727273 0.636363636363637  C 12.6969696969697 0.212121212121211  13.2121212121212 0  13.8181818181818 0  L 18.1818181818182 0  C 18.7878787878788 0  19.3030303030303 0.212121212121211  19.7272727272727 0.636363636363637  C 20.1515151515152 1.06060606060606  20.3636363636364 1.57575757575757  20.3636363636364 2.18181818181818  L 20.3636363636364 11.6363636363636  L 29.8181818181818 11.6363636363636  C 30.4242424242424 11.6363636363636  30.9393939393939 11.8484848484848  31.3636363636364 12.2727272727273  Z " fill-rule="nonzero" fill="#ffffff" stroke="none" transform="matrix(1 0 0 1 700 66 )" />
  </g>
</svg>