<?xml version="1.0" encoding="utf-8"?>
<svg version="1.1" xmlns:xlink="http://www.w3.org/1999/xlink" width="284px" height="42px" xmlns="http://www.w3.org/2000/svg">
  <defs>
    <mask fill="white" id="clip15">
      <path d="M 0 36.75  L 0 5.25  C 0 2.31000000000005  4.46285714285712 0  10.1428571428571 0  L 273.857142857143 0  C 279.537142857143 0  284 2.31000000000005  284 5.25  L 284 36.75  C 284 39.6899999999999  279.537142857143 42  273.857142857143 42  L 145.538205980066 42  L 10.1428571428571 42  C 4.46285714285712 42  0 39.6899999999999  0 36.75  Z " fill-rule="evenodd" />
    </mask>
  </defs>
  <g transform="matrix(1 0 0 1 -233 -890 )">
    <path d="M 0 36.75  L 0 5.25  C 0 2.31000000000005  4.46285714285712 0  10.1428571428571 0  L 273.857142857143 0  C 279.537142857143 0  284 2.31000000000005  284 5.25  L 284 36.75  C 284 39.6899999999999  279.537142857143 42  273.857142857143 42  L 145.538205980066 42  L 10.1428571428571 42  C 4.46285714285712 42  0 39.6899999999999  0 36.75  Z " fill-rule="nonzero" fill="#ffffff" stroke="none" transform="matrix(1 0 0 1 233 890 )" />
    <path d="M 0 36.75  L 0 5.25  C 0 2.31000000000005  4.46285714285712 0  10.1428571428571 0  L 273.857142857143 0  C 279.537142857143 0  284 2.31000000000005  284 5.25  L 284 36.75  C 284 39.6899999999999  279.537142857143 42  273.857142857143 42  L 145.538205980066 42  L 10.1428571428571 42  C 4.46285714285712 42  0 39.6899999999999  0 36.75  Z " stroke-width="2" stroke="#797979" fill="none" transform="matrix(1 0 0 1 233 890 )" mask="url(#clip15)" />
  </g>
</svg>