<?xml version="1.0" encoding="utf-8"?>
<svg version="1.1" xmlns:xlink="http://www.w3.org/1999/xlink" width="15px" height="15px" xmlns="http://www.w3.org/2000/svg">
  <g transform="matrix(1 0 0 1 -1284 -131 )">
    <path d="M 13.5613141741071 13.5613141741071  C 13.6275809151786 13.4950474330357  13.6607142857143 13.4165736607143  13.6607142857143 13.3258928571429  L 13.6607142857143 1.94196428571429  C 13.6607142857143 1.85128348214286  13.6275809151786 1.77280970982144  13.5613141741071 1.70654296875  C 13.4950474330357 1.64027622767856  13.4165736607143 1.60714285714288  13.3258928571429 1.60714285714288  L 1.94196428571429 1.60714285714288  C 1.85128348214286 1.60714285714288  1.77280970982144 1.64027622767856  1.70654296875 1.70654296875  C 1.64027622767856 1.77280970982144  1.60714285714288 1.85128348214286  1.60714285714288 1.94196428571429  L 1.60714285714288 13.3258928571429  C 1.60714285714288 13.4165736607143  1.64027622767856 13.4950474330357  1.70654296875 13.5613141741071  C 1.77280970982144 13.6275809151786  1.85128348214286 13.6607142857143  1.94196428571429 13.6607142857143  L 13.3258928571429 13.6607142857143  C 13.4165736607143 13.6607142857143  13.4950474330357 13.6275809151786  13.5613141741071 13.5613141741071  Z M 14.5082310267857 0.759626116071416  C 14.8360770089286 1.08747209821428  15 1.48158482142858  15 1.94196428571429  L 15 13.3258928571429  C 15 13.7862723214286  14.8360770089286 14.1803850446428  14.5082310267857 14.5082310267857  C 14.1803850446428 14.8360770089286  13.7862723214286 15  13.3258928571429 15  L 1.94196428571429 15  C 1.48158482142858 15  1.08747209821428 14.8360770089286  0.759626116071416 14.5082310267857  C 0.431780133928555 14.1803850446428  0.267857142857125 13.7862723214286  0.267857142857125 13.3258928571429  L 0.267857142857125 1.94196428571429  C 0.267857142857125 1.48158482142858  0.431780133928555 1.08747209821428  0.759626116071416 0.759626116071416  C 1.08747209821428 0.431780133928555  1.48158482142858 0.267857142857125  1.94196428571429 0.267857142857125  L 13.3258928571429 0.267857142857125  C 13.7862723214286 0.267857142857125  14.1803850446428 0.431780133928555  14.5082310267857 0.759626116071416  Z " fill-rule="nonzero" fill="#646262" stroke="none" transform="matrix(1 0 0 1 1284 131 )" />
  </g>
</svg>