<?xml version="1.0" encoding="utf-8"?>
<svg version="1.1" xmlns:xlink="http://www.w3.org/1999/xlink" width="18px" height="17px" xmlns="http://www.w3.org/2000/svg">
  <g transform="matrix(1 0 0 1 -1508 -27 )">
    <path d="M 1.38113839285714 15.6955915178571  C 1.31752232142857 15.635509672619  1.28571428571429 15.5643601190476  1.28571428571429 15.4821428571429  L 1.28571428571429 5.16071428571429  C 1.28571428571429 5.07849702380952  1.31752232142857 5.00734747023809  1.38113839285714 4.947265625  C 1.44475446428571 4.8871837797619  1.52008928571429 4.85714285714286  1.60714285714286 5  L 12.5357142857143 5  C 12.6227678571429 4.85714285714286  12.6981026785714 4.8871837797619  12.76171875 4.947265625  C 12.8253348214286 5.00734747023809  12.8571428571429 5.07849702380952  12.8571428571429 5.16071428571429  L 12.8571428571429 15.4821428571429  C 12.8571428571429 15.5643601190476  12.8253348214286 15.635509672619  12.76171875 15.6955915178571  C 12.6981026785714 15.7556733630952  12.6227678571429 15.7857142857143  12.5357142857143 15.7857142857143  L 1.60714285714286 15.7857142857143  C 1.52008928571429 15.7857142857143  1.44475446428571 15.7556733630952  1.38113839285714 15.6955915178571  Z M 0.472098214285715 4.08872767857143  C 0.15736607142857 4.38597470238095  0 4.74330357142857  0 5.16071428571429  L 0 15.4821428571429  C 0 15.8995535714286  0.15736607142857 16.2568824404762  0.472098214285715 16.5541294642857  C 0.786830357142854 16.8513764880952  1.16517857142857 17  1.60714285714286 17  L 12.5357142857143 17  C 12.9776785714286 17  13.3560267857143 16.8513764880952  13.6707589285714 16.5541294642857  C 13.9854910714286 16.2568824404762  14.1428571428571 15.8995535714286  14 15.4821428571429  L 14 5.16071428571429  C 14.1428571428571 4.74330357142857  13.9854910714286 4.38597470238095  13.6707589285714 4.08872767857143  C 13.3560267857143 3.7914806547619  12.9776785714286 3.64285714285714  12.5357142857143 3.64285714285714  L 1.60714285714286 3.64285714285714  C 1.16517857142857 3.64285714285714  0.786830357142854 3.7914806547619  0.472098214285715 4.08872767857143  Z M 4.32924107142857 0.445870535714286  C 4.01450892857143 0.743117559523809  3.85714285714286 1.10044642857143  3.85714285714286 1.51785714285714  L 3.85714285714286 3.03571428571429  L 5.14285714285714 3.03571428571429  L 5.14285714285714 1.51785714285714  C 5.14285714285714 1.43563988095238  5.17466517857143 1.36449032738095  5.23828125 1.30440848214286  C 5.30189732142857 1.24432663690476  5.37723214285714 1.21428571428571  5.46428571428572 1.21428571428571  L 16.3928571428571 1.21428571428571  C 16.4799107142857 1.21428571428571  16.5552455357143 1.24432663690476  16.6188616071429 1.30440848214286  C 16.6824776785714 1.36449032738095  16.7142857142857 1.43563988095238  16.7142857142857 1.51785714285714  L 16.7142857142857 11.8392857142857  C 16.7142857142857 11.9215029761905  16.6824776785714 11.9926525297619  16.6188616071429 12.052734375  C 16.5552455357143 12.1128162202381  16.4799107142857 12.1428571428571  16.3928571428571 12.1428571428571  L 14.7857142857143 12.1428571428571  L 14.7857142857143 13.3571428571429  L 16.3928571428571 13.3571428571429  C 16.8348214285714 13.3571428571429  17.2131696428571 13.2085193452381  17.5279017857143 12.9112723214286  C 17.8426339285714 12.614025297619  18 12.2566964285714  18 11.8392857142857  L 18 1.51785714285714  C 18 1.10044642857143  17.8426339285714 0.743117559523809  17.5279017857143 0.445870535714286  C 17.2131696428571 0.148623511904762  16.8348214285714 0  16.3928571428571 0  L 5.46428571428572 0  C 5.02232142857143 0  4.64397321428571 0.148623511904762  4.32924107142857 0.445870535714286  Z " fill-rule="nonzero" fill="#625e5e" stroke="none" transform="matrix(1 0 0 1 1508 27 )" />
  </g>
</svg>