<?xml version="1.0" encoding="utf-8"?>
<svg version="1.1" xmlns:xlink="http://www.w3.org/1999/xlink" width="20px" height="20px" xmlns="http://www.w3.org/2000/svg">
  <g transform="matrix(1 0 0 1 -1504 -25 )">
    <path d="M 1.53459821428571 18.4654017857143  C 1.46391369047619 18.3947172619048  1.42857142857143 18.3110119047619  1.42857142857143 18.2142857142857  L 1.42857142857143 6.07142857142857  C 1.42857142857143 5.97470238095238  1.46391369047619 5.89099702380952  1.53459821428571 5.8203125  C 1.60528273809524 5.74962797619047  1.6889880952381 5.71428571428571  1.78571428571429 6  L 13.9285714285714 6  C 14.0252976190476 5.71428571428571  14.1090029761905 5.74962797619047  14.1796875 5.8203125  C 14.2503720238095 5.89099702380952  14.2857142857143 5.97470238095238  14 6.07142857142857  L 14 18.2142857142857  C 14.2857142857143 18.3110119047619  14.2503720238095 18.3947172619048  14.1796875 18.4654017857143  C 14.1090029761905 18.5360863095238  14.0252976190476 18.5714285714286  13.9285714285714 18.5714285714286  L 1.78571428571429 18.5714285714286  C 1.6889880952381 18.5714285714286  1.60528273809524 18.5360863095238  1.53459821428571 18.4654017857143  Z M 0.524553571428572 4.81026785714286  C 0.174851190476188 5.15997023809524  0 5.58035714285714  0 6.07142857142857  L 0 18.2142857142857  C 0 18.7053571428571  0.174851190476188 19.125744047619  0.524553571428572 19.4754464285714  C 0.874255952380949 19.8251488095238  1.29464285714285 20  1.78571428571429 20  L 13.9285714285714 20  C 14.4196428571429 20  14.8400297619048 19.8251488095238  15.1897321428571 19.4754464285714  C 15.5394345238095 19.125744047619  15.7142857142857 18.7053571428571  15.7142857142857 18.2142857142857  L 15.7142857142857 6.07142857142857  C 15.7142857142857 5.58035714285714  15.5394345238095 5.15997023809524  15.1897321428571 4.81026785714286  C 14.8400297619048 4.46056547619047  14.4196428571429 4.28571428571429  13.9285714285714 4.28571428571429  L 1.78571428571429 4.28571428571429  C 1.29464285714285 4.28571428571429  0.874255952380949 4.46056547619047  0.524553571428572 4.81026785714286  Z M 4.81026785714286 0.524553571428572  C 4.46056547619047 0.874255952380951  4.28571428571429 1.29464285714286  4.28571428571429 1.78571428571429  L 4.28571428571429 3.57142857142857  L 5.71428571428571 3.57142857142857  L 5.71428571428571 1.78571428571429  C 5.71428571428571 1.6889880952381  5.74962797619047 1.60528273809524  5.8203125 1.53459821428571  C 5.89099702380952 1.46391369047619  5.97470238095238 1.42857142857143  6.07142857142857 1.42857142857143  L 18.2142857142857 1.42857142857143  C 18.3110119047619 1.42857142857143  18.3947172619048 1.46391369047619  18.4654017857143 1.53459821428571  C 18.5360863095238 1.60528273809524  18.5714285714286 1.6889880952381  18.5714285714286 1.78571428571429  L 18.5714285714286 13.9285714285714  C 18.5714285714286 14.0252976190476  18.5360863095238 14.1090029761905  18.4654017857143 14.1796875  C 18.3947172619048 14.2503720238095  18.3110119047619 14.2857142857143  18.2142857142857 14.2857142857143  L 16.4285714285714 14.2857142857143  L 16.4285714285714 15.7142857142857  L 18.2142857142857 15.7142857142857  C 18.7053571428571 15.7142857142857  19.125744047619 15.5394345238095  19.4754464285714 15.1897321428571  C 19.8251488095238 14.8400297619048  20 14.4196428571429  20 13.9285714285714  L 20 1.78571428571429  C 20 1.29464285714286  19.8251488095238 0.874255952380951  19.4754464285714 0.524553571428572  C 19.125744047619 0.174851190476191  18.7053571428571 0  18.2142857142857 0  L 6.07142857142857 0  C 5.58035714285714 0  5.15997023809524 0.174851190476191  4.81026785714286 0.524553571428572  Z " fill-rule="nonzero" fill="#625e5e" stroke="none" transform="matrix(1 0 0 1 1504 25 )" />
  </g>
</svg>