<?xml version="1.0" encoding="utf-8"?>
<svg version="1.1" xmlns:xlink="http://www.w3.org/1999/xlink" width="86px" height="86px" xmlns="http://www.w3.org/2000/svg">
  <g transform="matrix(1 0 0 1 -832 -185 )">
    <path d="M 875 186  C 898.52 186  917 204.48  917 228  C 917 251.52  898.52 270  875 270  C 851.48 270  833 251.52  833 228  C 833 204.48  851.48 186  875 186  Z " fill-rule="nonzero" fill="#ffffff" stroke="none" />
    <path d="M 875 186  C 898.52 186  917 204.48  917 228  C 917 251.52  898.52 270  875 270  C 851.48 270  833 251.52  833 228  C 833 204.48  851.48 186  875 186  Z " stroke-width="2" stroke="#bcbcbc" fill="none" />
  </g>
</svg>