<?xml version="1.0" encoding="utf-8"?>
<svg version="1.1" xmlns:xlink="http://www.w3.org/1999/xlink" width="97px" height="97px" xmlns="http://www.w3.org/2000/svg">
  <g transform="matrix(1 0 0 1 -832 -50 )">
    <path d="M 880.5 51  C 907.1 51  928 71.9  928 98.5  C 928 125.1  907.1 146  880.5 146  C 853.9 146  833 125.1  833 98.5  C 833 71.9  853.9 51  880.5 51  Z " fill-rule="nonzero" fill="#ffffff" stroke="none" />
    <path d="M 880.5 51  C 907.1 51  928 71.9  928 98.5  C 928 125.1  907.1 146  880.5 146  C 853.9 146  833 125.1  833 98.5  C 833 71.9  853.9 51  880.5 51  Z " stroke-width="2" stroke="#bcbcbc" fill="none" />
  </g>
</svg>