<?xml version="1.0" encoding="utf-8"?>
<svg version="1.1" xmlns:xlink="http://www.w3.org/1999/xlink" width="12px" height="12px" viewBox="351 613.5  12 12" xmlns="http://www.w3.org/2000/svg">
  <path d="M 357 613.5  C 360.36 613.5  363 616.14  363 619.5  C 363 622.86  360.36 625.5  357 625.5  C 353.64 625.5  351 622.86  351 619.5  C 351 616.14  353.64 613.5  357 613.5  Z " fill-rule="nonzero" fill="#ffffff" stroke="none" />
  <path d="M 357 614  C 360.08 614  362.5 616.42  362.5 619.5  C 362.5 622.58  360.08 625  357 625  C 353.92 625  351.5 622.58  351.5 619.5  C 351.5 616.42  353.92 614  357 614  Z " stroke-width="1" stroke="#797979" fill="none" />
  <path d="M 357 622.5  C 355.32 622.5  354 621.18  354 619.5  C 354 617.82  355.32 616.5  357 616.5  C 358.68 616.5  360 617.82  360 619.5  C 360 621.18  358.68 622.5  357 622.5  " fill-rule="nonzero" fill="#797979" stroke="none" />
</svg>