<?xml version="1.0" encoding="utf-8"?>
<svg version="1.1" xmlns:xlink="http://www.w3.org/1999/xlink" width="12px" height="12px" viewBox="224 613.5  12 12" xmlns="http://www.w3.org/2000/svg">
  <path d="M 230 613.5  C 233.36 613.5  236 616.14  236 619.5  C 236 622.86  233.36 625.5  230 625.5  C 226.64 625.5  224 622.86  224 619.5  C 224 616.14  226.64 613.5  230 613.5  Z " fill-rule="nonzero" fill="#ffffff" stroke="none" />
  <path d="M 230 614  C 233.08 614  235.5 616.42  235.5 619.5  C 235.5 622.58  233.08 625  230 625  C 226.92 625  224.5 622.58  224.5 619.5  C 224.5 616.42  226.92 614  230 614  Z " stroke-width="1" stroke="#797979" fill="none" />
  <path d="M 230 622.5  C 228.32 622.5  227 621.18  227 619.5  C 227 617.82  228.32 616.5  230 616.5  C 231.68 616.5  233 617.82  233 619.5  C 233 621.18  231.68 622.5  230 622.5  " fill-rule="nonzero" fill="#797979" stroke="none" />
</svg>