<?xml version="1.0" encoding="utf-8"?>
<svg version="1.1" xmlns:xlink="http://www.w3.org/1999/xlink" width="28px" height="28px" xmlns="http://www.w3.org/2000/svg">
  <g transform="matrix(1 0 0 1 -167 -1859 )">
    <path d="M 27.703125 13.296875  C 27.9010416666667 13.4947916666667  28 13.7291666666667  28 14  C 28 14.2708333333333  27.9010416666667 14.5052083333333  27.703125 14.703125  L 23.703125 18.703125  C 23.5052083333333 18.9010416666667  23.2708333333333 19  23 19  C 22.7291666666667 19  22.4947916666667 18.9010416666667  22.296875 18.703125  C 22.0989583333333 18.5052083333333  22 18.2708333333333  22 18  L 22 16  L 16 16  L 16 22  L 18 22  C 18.2708333333333 22  18.5052083333333 22.0989583333333  18.703125 22.296875  C 18.9010416666667 22.4947916666667  19 22.7291666666667  19 23  C 19 23.2708333333333  18.9010416666667 23.5052083333333  18.703125 23.703125  L 14.703125 27.703125  C 14.5052083333333 27.9010416666667  14.2708333333333 28  14 28  C 13.7291666666667 28  13.4947916666667 27.9010416666667  13.296875 27.703125  L 9.296875 23.703125  C 9.09895833333333 23.5052083333333  9 23.2708333333333  9 23  C 9 22.7291666666667  9.09895833333333 22.4947916666667  9.296875 22.296875  C 9.49479166666667 22.0989583333333  9.72916666666667 22  10 22  L 12 22  L 12 16  L 6 16  L 6 18  C 6 18.2708333333333  5.90104166666667 18.5052083333333  5.703125 18.703125  C 5.50520833333333 18.9010416666667  5.27083333333333 19  5 19  C 4.72916666666667 19  4.49479166666667 18.9010416666667  4.296875 18.703125  L 0.296875 14.703125  C 0.0989583333333333 14.5052083333333  0 14.2708333333333  0 14  C 0 13.7291666666667  0.0989583333333333 13.4947916666667  0.296875 13.296875  L 4.296875 9.296875  C 4.49479166666667 9.09895833333333  4.72916666666667 9  5 9  C 5.27083333333333 9  5.50520833333333 9.09895833333333  5.703125 9.296875  C 5.90104166666667 9.49479166666666  6 9.72916666666666  6 10  L 6 12  L 12 12  L 12 6  L 10 6  C 9.72916666666667 6  9.49479166666667 5.90104166666666  9.296875 5.703125  C 9.09895833333333 5.50520833333333  9 5.27083333333333  9 5  C 9 4.72916666666666  9.09895833333333 4.49479166666666  9.296875 4.296875  L 13.296875 0.296875000000001  C 13.4947916666667 0.0989583333333357  13.7291666666667 0  14 0  C 14.2708333333333 0  14.5052083333333 0.0989583333333357  14.703125 0.296875000000001  L 18.703125 4.296875  C 18.9010416666667 4.49479166666666  19 4.72916666666666  19 5  C 19 5.27083333333333  18.9010416666667 5.50520833333333  18.703125 5.703125  C 18.5052083333333 5.90104166666666  18.2708333333333 6  18 6  L 16 6  L 16 12  L 22 12  L 22 10  C 22 9.72916666666666  22.0989583333333 9.49479166666666  22.296875 9.296875  C 22.4947916666667 9.09895833333333  22.7291666666667 9  23 9  C 23.2708333333333 9  23.5052083333333 9.09895833333333  23.703125 9.296875  L 27.703125 13.296875  Z " fill-rule="nonzero" fill="#908f8f" stroke="none" transform="matrix(1 0 0 1 167 1859 )" />
  </g>
</svg>