<?xml version="1.0" encoding="utf-8"?>
<svg version="1.1" xmlns:xlink="http://www.w3.org/1999/xlink" width="12px" height="12px" viewBox="285 613.5  12 12" xmlns="http://www.w3.org/2000/svg">
  <path d="M 291 613.5  C 294.36 613.5  297 616.14  297 619.5  C 297 622.86  294.36 625.5  291 625.5  C 287.64 625.5  285 622.86  285 619.5  C 285 616.14  287.64 613.5  291 613.5  Z " fill-rule="nonzero" fill="#ffffff" stroke="none" />
  <path d="M 291 614  C 294.08 614  296.5 616.42  296.5 619.5  C 296.5 622.58  294.08 625  291 625  C 287.92 625  285.5 622.58  285.5 619.5  C 285.5 616.42  287.92 614  291 614  Z " stroke-width="1" stroke="#797979" fill="none" />
  <path d="M 291 622.5  C 289.32 622.5  288 621.18  288 619.5  C 288 617.82  289.32 616.5  291 616.5  C 292.68 616.5  294 617.82  294 619.5  C 294 621.18  292.68 622.5  291 622.5  " fill-rule="nonzero" fill="#797979" stroke="none" />
</svg>