<svg t="1635164619594" class="icon" viewBox="0 0 1024 1024" version="1.1" xmlns="http://www.w3.org/2000/svg" p-id="3902" width="14" height="14"><path d="M544 703.872H612.48c10.24 0 17.152-7.04 17.152-17.728V615.36c0-10.624-6.848-17.664-17.152-17.664H544c-10.304 0-17.152 7.04-17.152 17.664v70.784c0 10.624 6.848 17.728 17.152 17.728z m0-176.96H612.48c10.24 0 17.152-7.04 17.152-17.728V438.4c0-10.624-6.848-17.664-17.152-17.664H544c-10.304 0-17.152 7.04-17.152 17.664v70.784c0 10.624 6.848 17.728 17.152 17.728z m171.392 0h68.608c10.24 0 17.152-7.04 17.152-17.728V438.4c0-10.624-6.912-17.664-17.152-17.664h-68.608c-10.24 0-17.152 7.04-17.152 17.664v70.784c0 10.624 6.912 17.728 17.152 17.728z m-342.848 0h68.608c10.24 0 17.088-7.04 17.088-17.728V438.4c0-10.624-6.848-17.664-17.088-17.664H372.48c-10.24 0-17.152 7.04-17.152 17.664v70.784c0 10.624 6.848 17.728 17.152 17.728z m342.848 176.96h68.608c10.24 0 17.152-7.04 17.152-17.728V615.36c0-10.624-6.912-17.664-17.152-17.664h-68.608c-10.24 0-17.152 7.04-17.152 17.664v70.784c0 10.624 6.912 17.728 17.152 17.728z m0 176.96h68.608c10.24 0 17.152-7.04 17.152-17.728V792.32c0-10.624-6.912-17.664-17.152-17.664h-68.608c-10.24 0-17.152 7.04-17.152 17.664v70.784c0 10.624 6.912 17.728 17.152 17.728z m-171.392 0H612.48c10.24 0 17.152-7.04 17.152-17.728V792.32c0-10.624-6.848-17.664-17.152-17.664H544c-10.304 0-17.152 7.04-17.152 17.664v70.784c0 10.624 6.848 17.728 17.152 17.728z m-342.848 0h68.544c10.24 0 17.152-7.04 17.152-17.728V792.32c0-10.624-6.848-17.664-17.152-17.664H201.152c-10.304 0-17.152 7.04-17.152 17.664v70.784c0 10.624 6.848 17.728 17.152 17.728z m0-176.96h68.544c10.24 0 17.152-7.04 17.152-17.728V615.36c0-10.624-6.848-17.664-17.152-17.664H201.152c-10.304 0-17.152 7.04-17.152 17.664v70.784c0 10.624 6.848 17.728 17.152 17.728z" fill="#c1cddb" p-id="3903"></path><path d="M904 84.48h-137.152V49.088c0-17.664-13.696-35.392-34.304-35.392-20.544 0-34.304 14.144-34.304 35.392v35.392H286.848V49.088c0-17.664-13.696-35.392-34.304-35.392-20.544 0-34.304 14.144-34.304 35.392v35.392H81.152c-37.76 0-68.608 31.872-68.608 70.784v778.624c0 38.976 30.848 70.784 68.608 70.784h822.848c37.76 0 68.544-31.808 68.544-70.784V155.264c0-38.912-30.848-70.784-68.544-70.784z m0 814.08c0 21.184-13.76 35.328-34.304 35.328H115.392c-20.544 0-34.24-14.144-34.24-35.392V349.952h822.848v548.544z m0-619.392H81.152V190.656c0-21.184 13.696-35.392 34.24-35.392H218.24v35.392c0 17.728 13.76 35.392 34.304 35.392 20.608 0 34.304-14.08 34.304-35.392v-35.392h411.392v35.392c0 17.728 13.76 35.392 34.304 35.392 20.608 0 34.304-14.08 34.304-35.392v-35.392h102.848c20.544 0 34.304 14.208 34.304 35.392v88.512z" fill="#c1cddb" p-id="3904"></path><path d="M201.152 526.912h68.544c10.24 0 17.152-7.04 17.152-17.728V438.4c0-10.624-6.848-17.664-17.152-17.664H201.152c-10.304 0-17.152 7.04-17.152 17.664v70.784c0 10.624 6.848 17.728 17.152 17.728z m171.392 176.96h68.608c10.24 0 17.088-7.04 17.088-17.728V615.36c0-10.624-6.848-17.664-17.088-17.664H372.48c-10.24 0-17.152 7.04-17.152 17.664v70.784c0 10.624 6.848 17.728 17.152 17.728z m0 176.96h68.608c10.24 0 17.088-7.04 17.088-17.728V792.32c0-10.624-6.848-17.664-17.088-17.664H372.48c-10.24 0-17.152 7.04-17.152 17.664v70.784c0 10.624 6.848 17.728 17.152 17.728z" fill="#c1cddb" p-id="3905"></path></svg>