<?xml version="1.0" encoding="utf-8"?>
<svg version="1.1" xmlns:xlink="http://www.w3.org/1999/xlink" width="30px" height="30px" xmlns="http://www.w3.org/2000/svg">
  <g transform="matrix(1 0 0 1 -447 -829 )">
    <path d="M 462 829  C 470.4 829  477 835.6  477 844  C 477 852.4  470.4 859  462 859  C 453.6 859  447 852.4  447 844  C 447 835.6  453.6 829  462 829  Z " fill-rule="nonzero" fill="#ffffff" stroke="none" />
    <path d="M 462 829.5  C 470.12 829.5  476.5 835.88  476.5 844  C 476.5 852.12  470.12 858.5  462 858.5  C 453.88 858.5  447.5 852.12  447.5 844  C 447.5 835.88  453.88 829.5  462 829.5  Z " stroke-width="1" stroke="#797979" fill="none" />
  </g>
</svg>