<?xml version="1.0" encoding="utf-8"?>
<svg version="1.1" xmlns:xlink="http://www.w3.org/1999/xlink" width="64px" height="127px" xmlns="http://www.w3.org/2000/svg">
  <g transform="matrix(1 0 0 1 -1317 -285 )">
    <path d="M 63.6235294117647 13.4470676963972  C 63.7491387749075 13.4470676963972  63.874629346815 13.4474998616708  64 13.4483925923682  L 64 0  C 28.16 0  0 27.9400184358474  0 63.5000418996533  C 0 99.0245054310287  28.103708304035 126.944196285522  64 126.99999836909  L 63.9999997294386 114.298780310682  C 63.874629346815 114.299643254102  63.7491387749075 114.300075419376  63.6235294117647 114.300075419376  C 35.1623529411766 114.300075419376  12.8 92.1124137203205  12.8 63.8735715578866  C 12.8 35.6347293954523  35.1623529411766 13.4470676963972  63.6235294117647 13.4470676963972  Z M 63.8925033356131 127  C 63.9283278634615 127.000055859431  63.9641600917505 127.000083799306  63.8925033356131 127  Z " fill-rule="nonzero" fill="#ff9800" stroke="none" transform="matrix(1 0 0 1 1317 285 )" />
  </g>
</svg>