<?xml version="1.0" encoding="utf-8"?>
<svg version="1.1" xmlns:xlink="http://www.w3.org/1999/xlink" width="64px" height="127px" xmlns="http://www.w3.org/2000/svg">
  <g transform="matrix(1 0 0 1 -1197 -285 )">
    <path d="M 0.376470588235293 13.447067696397  C 0.250861225092535 13.447067696397  0.125370653184973 13.4474998616708  0 13.448392592368  L 0 0  C 35.84 0  64 27.9400184358474  64 63.5000418996533  C 64 99.0245054310287  35.896291695965 126.944196285521  0 126.99999836909  L 0 114.298780310682  C 0.125370653184973 114.299643254102  0.250861225092535 114.300075419376  0.376470588235293 114.300075419376  C 28.8376470588235 114.300075419376  51.2 92.1124137203205  51.2 63.8735715578864  C 51.2 35.6347293954525  28.8376470588235 13.447067696397  0.376470588235293 13.447067696397  Z M 0.107496664386872 127  C 0.0716721365384956 127.000055859431  0.0358399082494998 127.000083799306  0.107496664386872 127  Z " fill-rule="nonzero" fill="#1ec695" stroke="none" transform="matrix(1 0 0 1 1197 285 )" />
  </g>
</svg>