<?xml version="1.0" encoding="utf-8"?>
<svg version="1.1" xmlns:xlink="http://www.w3.org/1999/xlink" width="85px" height="34px" xmlns="http://www.w3.org/2000/svg">
  <g transform="matrix(1 0 0 1 -442 -235 )">
    <path d="M 442 235  L 527 235  L 527 269  L 442 269  L 442 235  " fill-rule="nonzero" fill="#cccccc" stroke="none" />
    <path d="M 444 237  L 525 237  L 525 267  L 444 267  L 444 237  " fill-rule="nonzero" fill="#ffffff" stroke="none" />
    <path d="M 488.75 245.2  C 487.322 245.2  486.2 244.078  486.2 242.65  C 486.2 241.222  487.322 240.1  488.75 240.1  C 490.178 240.1  491.3 241.222  491.3 242.65  C 491.3 244.078  490.178 245.2  488.75 245.2  " fill-rule="nonzero" fill="#cccccc" stroke="none" />
    <path d="M 445 266  L 445 250.6  L 464.75 243.6  L 492.4 259.28  L 508.2 247.8  L 524 259.28  L 524 266  L 445 266  " fill-rule="nonzero" fill="#169bd5" stroke="none" />
  </g>
</svg>