<?xml version="1.0" encoding="utf-8"?>
<svg version="1.1" xmlns:xlink="http://www.w3.org/1999/xlink" width="924px" height="402px" xmlns="http://www.w3.org/2000/svg">
  <g>
    <path d="M 0 0  L 924 0  L 924 402  L 0 402  L 0 0  " fill-rule="nonzero" fill="#cccccc" stroke="none" />
    <path d="M 28 28  L 896 28  L 896 374  L 28 374  L 28 28  " fill-rule="nonzero" fill="#ffffff" stroke="none" />
    <path d="M 510.63 120.6  C 493.746 120.6  480.48 107.334  480.48 90.45  C 480.48 73.566  493.746 60.3  510.63 60.3  C 527.514 60.3  540.78 73.566  540.78 90.45  C 540.78 107.334  527.514 120.6  510.63 120.6  " fill-rule="nonzero" fill="#cccccc" stroke="none" />
    <path d="M 38 364  L 38 184.7  L 250 103.2  L 546.8 278.901298701299  L 716.4 152.1  L 886 278.901298701299  L 886 364  L 38 364  " fill-rule="nonzero" fill="#169bd5" stroke="none" />
  </g>
</svg>