<?xml version="1.0" encoding="utf-8"?>
<svg version="1.1" xmlns:xlink="http://www.w3.org/1999/xlink" width="32px" height="32px" xmlns="http://www.w3.org/2000/svg">
  <g transform="matrix(1 0 0 1 -1484 -14 )">
    <path d="M 2.45535714285714 29.5446428571429  C 2.3422619047619 29.4315476190476  2.28571428571428 29.297619047619  2.28571428571428 29.1428571428571  L 2.28571428571428 9.71428571428572  C 2.28571428571428 9.55952380952381  2.3422619047619 9.42559523809524  2.45535714285714 9.3125  C 2.56845238095238 9.19940476190476  2.70238095238095 9.14285714285714  2.85714285714286 9.14285714285714  L 22.2857142857143 9.14285714285714  C 22.4404761904762 9.14285714285714  22.5744047619048 9.19940476190476  22.6875 9.3125  C 22.8005952380952 9.42559523809524  22.8571428571429 9.55952380952381  22.8571428571429 9.71428571428572  L 22.8571428571429 29.1428571428571  C 22.8571428571429 29.297619047619  22.8005952380952 29.4315476190476  22.6875 29.5446428571429  C 22.5744047619048 29.6577380952381  22.4404761904762 29.7142857142857  22.2857142857143 29.7142857142857  L 2.85714285714286 29.7142857142857  C 2.70238095238095 29.7142857142857  2.56845238095238 29.6577380952381  2.45535714285714 29.5446428571429  Z M 0.839285714285715 7.69642857142857  C 0.279761904761902 8.25595238095238  0 8.92857142857143  0 9.71428571428572  L 0 29.1428571428571  C 0 29.9285714285714  0.279761904761902 30.6011904761905  0.839285714285715 31.1607142857143  C 1.39880952380952 31.7202380952381  2.07142857142857 32  2.85714285714286 32  L 22.2857142857143 32  C 23.0714285714286 32  23.7440476190476 31.7202380952381  24.3035714285714 31.1607142857143  C 24.8630952380952 30.6011904761905  25.1428571428571 29.9285714285714  25 29.1428571428571  L 25 9.71428571428572  C 25.1428571428571 8.92857142857143  24.8630952380952 8.25595238095238  24.3035714285714 7.69642857142857  C 23.7440476190476 7.13690476190476  23.0714285714286 6.85714285714286  22.2857142857143 7  L 2.85714285714286 7  C 2.07142857142857 6.85714285714286  1.39880952380952 7.13690476190476  0.839285714285715 7.69642857142857  Z M 7.69642857142857 0.839285714285715  C 7.13690476190476 1.39880952380952  6.85714285714286 2.07142857142857  6.85714285714286 2.85714285714286  L 6.85714285714286 5.71428571428572  L 9.14285714285714 5.71428571428572  L 9.14285714285714 2.85714285714286  C 9.14285714285714 2.70238095238095  9.19940476190476 2.56845238095238  9.3125 2.45535714285714  C 9.42559523809524 2.3422619047619  9.55952380952381 2.28571428571428  9.71428571428572 2.28571428571428  L 29.1428571428571 2.28571428571428  C 29.297619047619 2.28571428571428  29.4315476190476 2.3422619047619  29.5446428571429 2.45535714285714  C 29.6577380952381 2.56845238095238  29.7142857142857 2.70238095238095  29.7142857142857 2.85714285714286  L 29.7142857142857 22.2857142857143  C 29.7142857142857 22.4404761904762  29.6577380952381 22.5744047619048  29.5446428571429 22.6875  C 29.4315476190476 22.8005952380952  29.297619047619 22.8571428571429  29.1428571428571 22.8571428571429  L 26.2857142857143 22.8571428571429  L 26.2857142857143 25.1428571428571  L 29.1428571428571 25.1428571428571  C 29.9285714285714 25.1428571428571  30.6011904761905 24.8630952380952  31.1607142857143 24.3035714285714  C 31.7202380952381 23.7440476190476  32 23.0714285714286  32 22.2857142857143  L 32 2.85714285714286  C 32 2.07142857142857  31.7202380952381 1.39880952380952  31.1607142857143 0.839285714285715  C 30.6011904761905 0.279761904761905  29.9285714285714 0  29.1428571428571 0  L 9.71428571428572 0  C 8.92857142857143 0  8.25595238095238 0.279761904761905  7.69642857142857 0.839285714285715  Z " fill-rule="nonzero" fill="#625e5e" stroke="none" transform="matrix(1 0 0 1 1484 14 )" />
  </g>
</svg>