<?xml version="1.0" encoding="utf-8"?>
<svg version="1.1" xmlns:xlink="http://www.w3.org/1999/xlink" width="286px" height="171px" xmlns="http://www.w3.org/2000/svg">
  <g transform="matrix(1 0 0 1 -603 -302 )">
    <path d="M 603 302  L 889 302  L 889 473  L 603 473  L 603 302  " fill-rule="nonzero" fill="#cccccc" stroke="none" />
    <path d="M 615 314  L 877 314  L 877 461  L 615 461  L 615 314  " fill-rule="nonzero" fill="#ffffff" stroke="none" />
    <path d="M 764.545 353.3  C 757.363 353.3  751.72 347.657  751.72 340.475  C 751.72 333.293  757.363 327.65  764.545 327.65  C 771.727 327.65  777.37 333.293  777.37 340.475  C 777.37 347.657  771.727 353.3  764.545 353.3  " fill-rule="nonzero" fill="#cccccc" stroke="none" />
    <path d="M 620 457  L 620 381.1  L 683.25 346.6  L 771.8 407.493706293706  L 822.4 367.3  L 873 407.493706293706  L 873 457  L 620 457  " fill-rule="nonzero" fill="#169bd5" stroke="none" />
  </g>
</svg>