<?xml version="1.0" encoding="utf-8"?>
<svg version="1.1" xmlns:xlink="http://www.w3.org/1999/xlink" width="12px" height="12px" viewBox="323 575.5  12 12" xmlns="http://www.w3.org/2000/svg">
  <path d="M 329 575.5  C 332.36 575.5  335 578.14  335 581.5  C 335 584.86  332.36 587.5  329 587.5  C 325.64 587.5  323 584.86  323 581.5  C 323 578.14  325.64 575.5  329 575.5  Z " fill-rule="nonzero" fill="#ffffff" stroke="none" />
  <path d="M 329 576  C 332.08 576  334.5 578.42  334.5 581.5  C 334.5 584.58  332.08 587  329 587  C 325.92 587  323.5 584.58  323.5 581.5  C 323.5 578.42  325.92 576  329 576  Z " stroke-width="1" stroke="#797979" fill="none" />
  <path d="M 329 584.5  C 327.32 584.5  326 583.18  326 581.5  C 326 579.82  327.32 578.5  329 578.5  C 330.68 578.5  332 579.82  332 581.5  C 332 583.18  330.68 584.5  329 584.5  " fill-rule="nonzero" fill="#797979" stroke="none" />
</svg>