<?xml version="1.0" encoding="utf-8"?>
<svg version="1.1" xmlns:xlink="http://www.w3.org/1999/xlink" width="18px" height="18px" xmlns="http://www.w3.org/2000/svg">
  <g transform="matrix(1 0 0 1 -142 -907 )">
    <path d="M 151 907  C 156.04 907  160 910.96  160 916  C 160 921.04  156.04 925  151 925  C 145.96 925  142 921.04  142 916  C 142 910.96  145.96 907  151 907  Z " fill-rule="nonzero" fill="#ffffff" stroke="none" fill-opacity="0" />
    <path d="M 151 907.5  C 155.76 907.5  159.5 911.24  159.5 916  C 159.5 920.76  155.76 924.5  151 924.5  C 146.24 924.5  142.5 920.76  142.5 916  C 142.5 911.24  146.24 907.5  151 907.5  Z " stroke-width="1" stroke="#bcbcbc" fill="none" />
  </g>
</svg>