<svg 
 xmlns="http://www.w3.org/2000/svg"
 xmlns:xlink="http://www.w3.org/1999/xlink"
 width="16px" height="14px">
<path fill-rule="evenodd"  
 d="M12.445,6.125 L12.445,4.375 L14.222,4.375 L14.222,6.125 L16.000,6.125 L16.000,7.875 L14.222,7.875 L14.222,9.625 L12.445,9.625 L12.445,7.875 L10.667,7.875 L10.667,6.125 L12.445,6.125 ZM9.778,11.288 L8.978,10.500 L2.578,10.500 L1.778,11.288 L1.778,12.250 L9.778,12.250 L9.778,11.288 ZM11.556,10.500 L11.556,14.000 L-0.000,14.000 L-0.000,10.500 L0.089,10.500 L1.867,8.750 L9.689,8.750 L11.556,10.500 ZM5.778,-0.000 C7.467,-0.000 8.889,1.400 8.889,3.062 L8.889,4.813 C8.889,6.475 7.467,7.875 5.778,7.875 C4.089,7.875 2.667,6.475 2.667,4.813 L2.667,3.062 C2.667,1.400 4.089,-0.000 5.778,-0.000 L5.778,-0.000 ZM5.778,1.750 C5.067,1.750 4.444,2.363 4.444,3.062 L4.444,4.813 C4.444,5.512 5.067,6.125 5.778,6.125 C6.489,6.125 7.111,5.512 7.111,4.813 L7.111,3.062 C7.111,2.363 6.489,1.750 5.778,1.750 L5.778,1.750 Z"/>
</svg>
