<svg 
 xmlns="http://www.w3.org/2000/svg"
 xmlns:xlink="http://www.w3.org/1999/xlink"
 width="17px" height="18px">
<path fill-rule="evenodd"  fill="rgb(182, 194, 205)"
 d="M16.695,12.744 L16.105,13.431 L16.695,12.744 L16.694,12.743 L16.692,12.742 L16.689,12.739 L16.678,12.730 L16.643,12.700 C16.458,12.545 16.267,12.397 16.070,12.256 C15.683,11.977 15.121,11.610 14.409,11.245 C12.989,10.515 10.949,9.777 8.500,9.777 C6.051,9.777 4.011,10.515 2.590,11.245 C2.013,11.540 1.458,11.878 0.929,12.256 C0.733,12.396 0.542,12.544 0.356,12.700 L0.321,12.730 L0.311,12.739 L0.306,12.744 L0.305,12.744 C0.501,12.974 0.697,13.203 0.895,13.431 L0.304,12.744 C0.111,12.918 -0.000,13.168 -0.000,13.431 L-0.000,17.086 C-0.000,17.591 0.400,18.000 0.895,18.000 L16.105,18.000 C16.599,18.000 17.000,17.591 17.000,17.086 L17.000,13.431 C17.000,13.168 16.889,12.918 16.695,12.744 Z"/>
<path fill-rule="evenodd"  fill="rgb(42, 62, 82)"
 d="M8.473,-0.000 C6.007,-0.000 4.007,2.044 4.007,4.567 C4.007,7.089 6.007,9.134 8.473,9.134 C10.940,9.134 12.940,7.089 12.940,4.567 C12.940,2.044 10.940,-0.000 8.473,-0.000 Z"/>
</svg>
