<svg 
 xmlns="http://www.w3.org/2000/svg"
 xmlns:xlink="http://www.w3.org/1999/xlink"
 width="16px" height="16px">
<path fill-rule="evenodd"  fill="rgb(2, 187, 0)"
 d="M8.000,-0.000 C3.581,-0.000 -0.001,3.582 -0.001,8.000 C-0.001,12.418 3.581,16.000 8.000,16.000 C12.418,16.000 16.000,12.418 16.000,8.000 C16.000,3.582 12.418,-0.000 8.000,-0.000 L8.000,-0.000 ZM12.375,6.100 L7.160,11.314 C7.038,11.436 6.840,11.436 6.718,11.314 L3.624,8.221 C3.502,8.099 3.502,7.901 3.624,7.779 L4.596,6.807 C4.719,6.685 4.916,6.685 5.039,6.807 L6.939,8.707 L10.961,4.685 C11.083,4.563 11.280,4.563 11.402,4.685 L12.375,5.658 C12.497,5.780 12.497,5.978 12.375,6.100 L12.375,6.100 Z"/>
</svg>
