<svg
        xmlns="http://www.w3.org/2000/svg"
        xmlns:xlink="http://www.w3.org/1999/xlink"
        width="13px" height="13px">
    <path fill-rule="evenodd" opacity="0.4" fill="rgb(0, 0, 0)"
          d="M-0.000,0.000 L13.000,0.000 L13.000,13.000 L-0.000,13.000 L-0.000,0.000 ZM1.857,1.857 L1.857,11.143 L11.143,11.143 L11.143,1.857 L1.857,1.857 ZM5.571,3.869 L10.214,3.869 L10.214,5.726 L5.571,5.726 L5.571,3.869 ZM2.786,6.655 L10.214,6.655 L10.214,8.512 L2.786,8.512 L2.786,6.655 ZM3.714,5.726 C3.157,5.726 2.786,5.355 2.786,4.798 C2.786,4.241 3.157,3.869 3.714,3.869 C4.271,3.869 4.643,4.241 4.643,4.798 C4.643,5.355 4.271,5.726 3.714,5.726 L3.714,5.726 Z"/>
</svg>
