<svg 
 xmlns="http://www.w3.org/2000/svg"
 xmlns:xlink="http://www.w3.org/1999/xlink"
 width="15px" height="15px">
<path fill-rule="evenodd" 
 d="M12.188,5.577 C11.437,5.577 10.781,5.299 10.312,4.835 L5.625,7.247 L5.625,7.712 L8.437,9.201 L7.500,10.872 L4.781,9.475 C4.219,9.939 3.563,10.217 2.812,10.217 C1.219,10.217 -0.000,9.011 -0.000,7.433 C-0.000,5.855 1.219,4.649 2.812,4.649 C3.656,4.649 4.312,5.020 4.875,5.484 L9.375,3.257 L9.375,2.793 C9.375,1.215 10.594,0.009 12.188,0.009 C13.781,0.009 15.000,1.215 15.000,2.793 C15.000,4.370 13.781,5.577 12.188,5.577 ZM2.812,6.505 C2.250,6.505 1.875,6.876 1.875,7.433 C1.875,7.990 2.250,8.361 2.812,8.361 C3.375,8.361 3.750,7.990 3.750,7.433 C3.750,6.876 3.375,6.505 2.812,6.505 ZM12.188,1.865 C11.625,1.865 11.250,2.236 11.250,2.793 C11.250,3.350 11.625,3.721 12.188,3.721 C12.750,3.721 13.125,3.350 13.125,2.793 C13.125,2.236 12.750,1.865 12.188,1.865 ZM9.158,8.614 C9.479,8.277 9.997,8.277 10.317,8.614 L11.601,9.967 L12.885,8.614 C13.204,8.277 13.723,8.277 14.043,8.614 C14.363,8.951 14.363,9.498 14.043,9.835 L12.759,11.189 L14.043,12.542 C14.363,12.879 14.363,13.426 14.043,13.763 C13.883,13.932 13.674,14.016 13.464,14.016 C13.254,14.016 13.045,13.932 12.885,13.763 L11.601,12.410 L10.317,13.763 C10.157,13.932 9.948,14.016 9.738,14.016 C9.528,14.016 9.319,13.932 9.158,13.763 C8.838,13.426 8.838,12.879 9.158,12.542 L10.442,11.189 L9.158,9.835 C8.838,9.498 8.838,8.951 9.158,8.614 Z"/>
</svg>
