<svg 
 xmlns="http://www.w3.org/2000/svg"
 xmlns:xlink="http://www.w3.org/1999/xlink"
 width="13px" height="16px">
<path fill-rule="evenodd"
 d="M12.071,5.000 L12.071,16.000 L0.928,16.000 L0.928,5.000 L-0.000,5.000 L-0.000,3.000 L0.928,3.000 L12.071,3.000 L13.000,3.000 L13.000,5.000 L12.071,5.000 ZM10.214,5.000 L2.786,5.000 L2.786,14.000 L10.214,14.000 L10.214,5.000 ZM5.571,12.000 L3.714,12.000 L3.714,7.000 L5.571,7.000 L5.571,12.000 ZM9.286,12.000 L7.428,12.000 L7.428,7.000 L9.286,7.000 L9.286,12.000 ZM3.714,-0.000 L9.286,-0.000 L9.286,2.000 L3.714,2.000 L3.714,-0.000 Z"/>
</svg>
