<svg 
 xmlns="http://www.w3.org/2000/svg"
 xmlns:xlink="http://www.w3.org/1999/xlink"
 width="16px" height="16px">
<path fill-rule="evenodd"  fill="rgb(0, 160, 233)"
 d="M12.611,4.611 L11.484,5.738 L12.947,7.201 L8.799,7.201 L8.799,3.053 L10.262,4.515 L11.389,3.389 L8.000,-0.000 L4.611,3.389 L5.738,4.515 L7.201,3.053 L7.201,7.201 L3.053,7.201 L4.515,5.738 L3.389,4.611 L-0.000,8.000 L3.389,11.389 L4.515,10.262 L3.053,8.799 L7.201,8.799 L7.201,12.947 L5.738,11.485 L4.611,12.611 L8.000,16.000 L11.389,12.611 L10.262,11.485 L8.799,12.947 L8.799,8.799 L12.947,8.799 L11.484,10.262 L12.611,11.389 L16.000,8.000 L12.611,4.611 Z"/>
</svg>
