<svg xmlns="http://www.w3.org/2000/svg" width="14" height="14" viewBox="0 0 14 14">
    <defs>
        <style>
        </style>
    </defs>
    <path id="形状_563" data-name="形状 563" class="cls-1"
          d="M1711,284.286h3.43v3.428H1711v-3.428Zm0-4.286h3.43v3.429H1711V280Zm4.29,0h3.42v3.429h-3.42V280Zm0,4.286h3.42v3.428h-3.42v-3.428Zm4.28-4.286H1723v3.429h-3.43V280Zm0,4.286H1723v3.428h-3.43v-3.428Zm0,4.285H1723V292h-3.43v-3.429Zm-4.28,0h3.42V292h-3.42v-3.429Zm-4.29,0h3.43V292H1711v-3.429Zm0,0"
          transform="translate(-1710 -279)"/>
</svg>
