<svg 
 xmlns="http://www.w3.org/2000/svg"
 xmlns:xlink="http://www.w3.org/1999/xlink"
 width="28px" height="25px">
<path fill-rule="evenodd"  fill="rgb(106, 193, 255)"
 d="M14.000,2.000 L27.000,2.000 C27.552,2.000 28.000,2.448 28.000,3.000 L28.000,24.000 C28.000,24.552 27.552,25.000 27.000,25.000 L1.000,25.000 C0.448,25.000 -0.000,24.552 -0.000,24.000 L-0.000,2.000 L-0.000,1.000 C-0.000,0.448 0.448,-0.000 1.000,-0.000 L11.586,-0.000 C11.851,-0.000 12.105,0.105 12.293,0.293 L14.000,2.000 Z"/>
<path fill-rule="evenodd"  fill="rgb(76, 172, 240)"
 d="M0.004,6.000 C0.004,5.955 0.004,5.916 0.004,5.876 C0.004,4.259 0.010,2.642 -0.000,1.026 C-0.003,0.502 0.372,0.116 0.750,0.037 C0.861,0.014 0.976,0.003 1.089,0.003 C4.556,0.001 8.023,0.003 11.490,0.000 C11.836,-0.000 12.119,0.113 12.363,0.363 C12.869,0.882 13.388,1.388 13.897,1.904 C13.970,1.978 14.043,2.002 14.143,2.002 C18.400,2.000 22.657,2.001 26.914,1.999 C27.276,1.999 27.576,2.115 27.798,2.407 C27.937,2.589 27.997,2.799 27.998,3.024 C28.001,4.001 27.999,4.979 27.999,5.956 C27.999,5.968 27.996,5.980 27.993,6.000 C18.670,6.000 9.347,6.000 0.004,6.000 Z"/>
</svg>
