<svg 
 xmlns="http://www.w3.org/2000/svg"
 xmlns:xlink="http://www.w3.org/1999/xlink"
 width="14px" height="14px">
<path fill-rule="evenodd"  fill="rgb(255, 255, 255)"
 d="M6.420,-0.000 C9.966,-0.000 12.840,2.799 12.840,6.251 C12.840,7.807 12.257,9.229 11.292,10.323 L13.769,12.735 C13.966,12.920 14.044,13.193 13.975,13.451 C13.906,13.708 13.700,13.909 13.436,13.976 C13.172,14.043 12.891,13.967 12.701,13.775 L10.179,11.320 C9.086,12.091 7.770,12.505 6.420,12.503 C2.874,12.503 -0.000,9.704 -0.000,6.251 C-0.000,2.799 2.874,-0.000 6.420,-0.000 L6.420,-0.000 ZM6.420,1.471 C3.708,1.471 1.511,3.611 1.511,6.251 C1.511,8.892 3.708,11.032 6.420,11.032 C9.132,11.032 11.330,8.892 11.330,6.251 C11.330,3.611 9.132,1.471 6.420,1.471 L6.420,1.471 Z"/>
</svg>
