<svg 
 xmlns="http://www.w3.org/2000/svg"
 xmlns:xlink="http://www.w3.org/1999/xlink"
 width="14px" height="14px">
<path fill-rule="evenodd"  fill="rgb(255, 255, 255)"
 d="M13.122,14.000 L0.878,14.000 C0.393,14.000 -0.000,13.594 -0.000,13.094 L-0.000,7.386 C-0.000,6.886 0.393,6.481 0.878,6.481 C1.363,6.481 1.757,6.886 1.757,7.386 L1.757,12.189 L12.243,12.189 L12.243,7.825 C12.243,7.325 12.637,6.919 13.122,6.919 C13.606,6.919 14.000,7.325 14.000,7.825 L14.000,13.094 C14.000,13.595 13.606,14.000 13.122,14.000 ZM9.318,4.632 L7.932,3.252 C8.049,5.995 7.938,8.540 7.931,8.735 C7.915,9.224 7.525,9.609 7.054,9.609 C7.044,9.609 7.033,9.609 7.023,9.609 C6.539,9.591 6.159,9.172 6.176,8.672 C6.177,8.624 6.299,5.745 6.166,3.044 L4.834,4.583 C4.660,4.783 4.420,4.886 4.179,4.886 C3.970,4.886 3.762,4.810 3.594,4.655 C3.232,4.322 3.201,3.750 3.523,3.377 L6.185,0.303 C6.187,0.300 6.189,0.298 6.192,0.295 C6.193,0.294 6.194,0.293 6.195,0.292 C6.203,0.283 6.212,0.273 6.221,0.264 C6.223,0.262 6.225,0.260 6.227,0.258 C6.235,0.250 6.243,0.242 6.251,0.235 C6.255,0.230 6.260,0.226 6.265,0.222 C6.271,0.217 6.277,0.211 6.283,0.206 C6.292,0.199 6.301,0.191 6.311,0.184 C6.312,0.182 6.314,0.181 6.316,0.179 C6.410,0.107 6.520,0.053 6.642,0.024 C6.653,0.022 6.664,0.019 6.675,0.017 C6.676,0.017 6.676,0.017 6.676,0.017 C6.679,0.016 6.682,0.016 6.685,0.015 C6.726,0.008 6.766,0.003 6.808,0.001 C7.023,-0.010 7.234,0.067 7.400,0.209 C7.401,0.210 7.402,0.210 7.403,0.211 C7.412,0.219 7.421,0.227 7.429,0.235 C7.432,0.238 7.436,0.241 7.439,0.244 C7.442,0.247 7.446,0.251 7.450,0.255 L10.538,3.328 C10.887,3.676 10.896,4.249 10.560,4.609 C10.223,4.969 9.667,4.979 9.318,4.632 Z"/>
</svg>
