<svg 
 xmlns="http://www.w3.org/2000/svg"
 xmlns:xlink="http://www.w3.org/1999/xlink"
 width="49px" height="49px">
<defs>
<linearGradient id="PSgrad_0" x1="0%" x2="0%" y1="100%" y2="0%">
  <stop offset="0%" stop-color="rgb(0,160,233)" stop-opacity="1" />
  <stop offset="100%" stop-color="rgb(29,180,249)" stop-opacity="1" />
</linearGradient>
<linearGradient id="PSgrad_1" x1="0%" x2="0%" y1="100%" y2="0%">
  <stop offset="0%" stop-color="rgb(127,190,43)" stop-opacity="1" />
  <stop offset="100%" stop-color="rgb(150,209,70)" stop-opacity="1" />
</linearGradient>

</defs>
<path fill-rule="evenodd"  fill="url(#PSgrad_0)"
 d="M32.134,30.169 L32.134,28.440 C32.134,26.660 33.310,25.115 35.017,24.545 C40.426,22.739 44.209,17.450 43.626,11.379 C43.045,5.324 38.044,0.496 31.903,0.046 C24.418,-0.503 18.172,5.333 18.172,12.609 C18.172,13.288 18.227,13.954 18.331,14.603 C18.581,16.151 17.866,17.697 16.562,18.591 L15.482,19.332 C14.212,20.202 12.566,20.244 11.206,19.518 C9.989,18.868 8.572,18.536 7.069,18.636 C3.300,18.888 0.243,21.925 0.008,25.649 C-0.267,30.015 3.237,33.640 7.597,33.640 C9.045,33.640 10.398,33.240 11.550,32.547 C12.922,31.720 14.639,31.694 15.996,32.547 L21.522,36.024 C22.817,36.839 23.493,38.307 23.355,39.816 C23.313,40.274 23.313,40.744 23.359,41.222 C23.692,44.730 26.529,47.581 30.075,47.962 C34.658,48.455 38.534,44.923 38.534,40.498 C38.534,37.557 36.822,35.011 34.329,33.779 C32.961,33.102 32.134,31.680 32.134,30.169 ZM17.089,30.359 C15.808,29.553 15.087,28.119 15.186,26.622 C15.197,26.459 15.202,26.295 15.202,26.129 C15.202,25.803 15.181,25.481 15.140,25.165 C14.943,23.658 15.620,22.170 16.885,21.303 L16.885,21.303 C18.517,20.184 20.702,20.391 22.143,21.743 C23.474,22.992 25.078,23.960 26.858,24.551 C28.559,25.116 29.724,26.666 29.724,28.439 L29.724,30.171 C29.724,31.694 28.874,33.106 27.498,33.794 C27.359,33.864 27.222,33.937 27.088,34.015 C25.749,34.791 24.084,34.760 22.775,33.936 L17.089,30.359 Z"/>
<path fill-rule="evenodd"  fill="url(#PSgrad_1)"
 d="M44.319,33.437 C41.728,33.437 39.628,31.363 39.628,28.804 C39.628,26.245 41.728,24.171 44.319,24.171 C46.910,24.171 49.010,26.245 49.010,28.804 C49.010,31.363 46.910,33.437 44.319,33.437 ZM13.481,48.008 C10.890,48.008 8.790,45.934 8.790,43.375 C8.790,40.816 10.890,38.742 13.481,38.742 C16.072,38.742 18.172,40.816 18.172,43.375 C18.172,45.934 16.072,48.008 13.481,48.008 ZM8.078,14.455 C5.487,14.455 3.387,12.380 3.387,9.822 C3.387,7.263 5.487,5.188 8.078,5.188 C10.669,5.188 12.769,7.263 12.769,9.822 C12.769,12.380 10.669,14.455 8.078,14.455 Z"/>
</svg>
