<svg 
 xmlns="http://www.w3.org/2000/svg"
 xmlns:xlink="http://www.w3.org/1999/xlink"
 width="16px" height="16px">
<path fill-rule="evenodd"  fill="rgb(43, 47, 54)"
 d="M8.000,7.000 C7.448,7.000 7.000,7.448 7.000,8.000 L7.000,11.000 C7.000,11.552 7.448,12.000 8.000,12.000 C8.552,12.000 9.000,11.552 9.000,11.000 L9.000,8.000 C9.000,7.735 8.895,7.480 8.707,7.293 C8.520,7.105 8.265,7.000 8.000,7.000 L8.000,7.000 ZM8.000,-0.000 C3.582,-0.000 -0.000,3.582 -0.000,8.000 C-0.000,12.418 3.582,16.000 8.000,16.000 C12.418,16.000 16.000,12.418 16.000,8.000 C16.000,3.582 12.418,-0.000 8.000,-0.000 L8.000,-0.000 ZM8.000,14.000 C4.686,14.000 2.000,11.314 2.000,8.000 C2.000,4.686 4.686,2.000 8.000,2.000 C11.314,2.000 14.000,4.686 14.000,8.000 C14.000,9.591 13.368,11.117 12.243,12.243 C11.117,13.368 9.591,14.000 8.000,14.000 L8.000,14.000 ZM8.500,4.000 L7.500,4.000 C7.367,4.000 7.240,4.053 7.146,4.146 C7.053,4.240 7.000,4.367 7.000,4.500 L7.000,5.500 C7.000,5.633 7.053,5.760 7.146,5.854 C7.240,5.947 7.367,6.000 7.500,6.000 L8.500,6.000 C8.633,6.000 8.760,5.947 8.854,5.854 C8.947,5.760 9.000,5.633 9.000,5.500 L9.000,4.500 C9.000,4.367 8.947,4.240 8.854,4.146 C8.760,4.053 8.633,4.000 8.500,4.000 L8.500,4.000 Z"/>
</svg>
