<svg 
 xmlns="http://www.w3.org/2000/svg"
 xmlns:xlink="http://www.w3.org/1999/xlink"
 width="17px" height="14px">
<path fill-rule="evenodd"  fill="rgb(43, 47, 54)"
 d="M9.500,11.000 L11.000,11.000 L11.000,14.000 L6.000,14.000 L6.000,11.000 L7.500,11.000 L7.500,8.000 L3.000,8.000 L3.000,11.000 L4.000,11.000 L4.000,14.000 L-0.000,14.000 L-0.000,11.000 L1.000,11.000 L1.000,6.000 L7.500,6.000 L7.500,3.000 L6.000,3.000 L6.000,-0.000 L11.000,-0.000 L11.000,3.000 L9.500,3.000 L9.500,6.000 L16.000,6.000 L16.000,11.000 L17.000,11.000 L17.000,14.000 L13.000,14.000 L13.000,11.000 L14.000,11.000 L14.000,8.000 L9.500,8.000 L9.500,11.000 Z"/>
</svg>
