<svg 
 xmlns="http://www.w3.org/2000/svg"
 xmlns:xlink="http://www.w3.org/1999/xlink"
 width="17px" height="16px">
<path fill-rule="evenodd"  
 d="M-0.000,7.469 L-0.000,14.741 C-0.000,15.436 0.572,16.000 1.278,16.000 L2.428,16.000 L2.428,6.222 L1.278,6.210 C0.939,6.210 0.614,6.343 0.374,6.579 C0.135,6.815 -0.000,7.135 -0.000,7.469 L-0.000,7.469 ZM15.051,4.889 L9.970,4.920 C10.208,4.093 10.329,3.358 10.329,2.711 C10.329,1.242 9.023,-0.196 7.719,-0.009 C6.569,0.155 6.443,1.134 6.443,2.361 L6.443,3.469 C6.443,4.891 5.232,6.102 3.827,6.236 L3.643,6.234 L3.643,16.000 L13.652,16.000 C14.589,16.000 15.393,15.344 15.567,14.437 L16.966,7.166 C17.074,6.604 16.922,6.024 16.552,5.584 C16.182,5.144 15.631,4.889 15.051,4.889 L15.051,4.889 Z"/>
</svg>
