<svg 
 xmlns="http://www.w3.org/2000/svg"
 xmlns:xlink="http://www.w3.org/1999/xlink"
 width="16px" height="16px">
<path fill-rule="evenodd"  fill="rgb(43, 47, 54)"
 d="M11.000,13.700 L9.300,12.000 L3.700,12.000 L2.000,13.700 L2.000,14.000 L11.000,14.000 L11.000,13.700 ZM13.000,12.800 L13.000,16.000 L-0.000,16.000 L-0.000,12.800 L2.800,10.000 L10.100,10.000 L13.000,12.800 ZM11.500,10.000 L13.200,10.000 L16.000,12.800 L16.000,16.000 L14.000,16.000 L14.000,12.500 L11.500,10.000 ZM8.500,8.900 C9.900,8.500 11.000,7.100 11.000,5.500 L11.000,3.500 C11.000,1.900 9.900,0.600 8.500,0.100 C8.800,-0.000 9.200,-0.000 9.500,-0.000 C11.400,-0.000 13.000,1.600 13.000,3.500 L13.000,5.500 C13.000,7.400 11.400,9.000 9.500,9.000 C9.100,9.000 8.800,8.900 8.500,8.900 L8.500,8.900 ZM6.500,-0.000 C8.400,-0.000 10.000,1.600 10.000,3.500 L10.000,5.500 C10.000,7.400 8.400,9.000 6.500,9.000 C4.600,9.000 3.000,7.400 3.000,5.500 L3.000,3.500 C3.000,1.600 4.600,-0.000 6.500,-0.000 L6.500,-0.000 ZM6.500,2.000 C5.700,2.000 5.000,2.700 5.000,3.500 L5.000,5.500 C5.000,6.300 5.700,7.000 6.500,7.000 C7.300,7.000 8.000,6.300 8.000,5.500 L8.000,3.500 C8.000,2.700 7.300,2.000 6.500,2.000 L6.500,2.000 Z"/>
</svg>
