<svg 
 xmlns="http://www.w3.org/2000/svg"
 xmlns:xlink="http://www.w3.org/1999/xlink"
 width="16px" height="18px">
<path fill-rule="evenodd" 
 d="M15.617,14.446 L9.870,17.887 C9.346,18.201 8.680,17.823 8.680,17.212 L8.680,10.307 C8.680,10.031 8.826,9.774 9.063,9.632 L14.810,6.191 C15.334,5.878 16.000,6.256 16.000,6.867 L16.000,13.770 C16.000,14.047 15.855,14.304 15.617,14.446 ZM14.214,4.913 L8.451,8.365 C8.202,8.514 7.892,8.514 7.643,8.365 L1.835,4.884 C1.325,4.579 1.325,3.839 1.835,3.534 L7.596,0.083 C7.845,-0.066 8.155,-0.066 8.403,0.083 L14.214,3.562 C14.723,3.868 14.724,4.607 14.214,4.913 ZM7.316,10.251 L7.316,17.212 C7.316,17.823 6.651,18.201 6.127,17.887 L0.382,14.446 C0.145,14.304 -0.000,14.047 -0.000,13.771 L-0.000,6.809 C-0.000,6.198 0.666,5.820 1.190,6.134 L6.934,9.576 C7.171,9.718 7.316,9.974 7.316,10.251 Z"/>
</svg>
