<svg 
 xmlns="http://www.w3.org/2000/svg"
 xmlns:xlink="http://www.w3.org/1999/xlink"
 width="17px" height="17px">
<path fill-rule="evenodd" 
 d="M10.223,14.400 L9.563,14.400 C8.327,14.400 6.968,14.750 6.089,15.258 C5.210,15.767 4.915,16.127 4.915,16.127 C4.224,16.729 3.914,16.537 4.204,15.680 C4.204,15.680 4.584,13.602 6.702,12.110 C7.353,11.651 7.882,11.312 8.722,11.073 C9.208,10.941 9.713,10.820 10.223,10.744 L10.223,8.697 C10.223,8.430 10.452,8.213 10.734,8.213 C10.841,8.213 10.944,8.244 11.031,8.303 L16.791,12.207 C17.020,12.362 17.073,12.665 16.909,12.882 C16.877,12.926 16.837,12.964 16.791,12.995 L11.031,16.898 C10.801,17.054 10.482,17.004 10.319,16.786 C10.257,16.704 10.223,16.605 10.223,16.504 L10.223,14.400 ZM15.330,8.835 L11.400,6.172 C11.056,5.938 10.643,5.812 10.220,5.811 C9.092,5.807 8.174,6.672 8.170,7.743 L8.170,7.743 C8.167,8.719 8.164,9.208 8.162,9.209 C7.129,9.504 6.467,9.861 5.484,10.554 C4.911,10.958 4.408,11.414 3.973,11.911 C3.340,12.633 2.878,13.405 2.557,14.181 C2.387,14.592 2.280,14.943 2.220,15.211 C2.082,15.668 2.046,16.094 2.093,16.477 L1.032,16.477 C0.468,16.477 0.011,16.043 0.011,15.508 L0.011,0.973 C0.011,0.438 0.468,0.004 1.032,0.004 L10.864,0.004 C11.137,0.004 11.398,0.108 11.590,0.292 L15.035,3.601 C15.224,3.783 15.330,4.027 15.330,4.282 L15.330,8.835 Z"/>
</svg>
