<svg 
 xmlns="http://www.w3.org/2000/svg"
 xmlns:xlink="http://www.w3.org/1999/xlink"
 width="16px" height="16px">
<path fill-rule="evenodd" 
 d="M11.000,1.000 L16.000,1.000 L16.000,3.000 L15.000,3.000 L15.000,15.000 C15.000,15.552 14.552,16.000 14.000,16.000 L2.000,16.000 C1.448,16.000 1.000,15.552 1.000,15.000 L1.000,3.000 L-0.000,3.000 L-0.000,1.000 L5.000,1.000 L5.000,-0.000 L11.000,-0.000 L11.000,1.000 ZM5.000,5.000 L5.000,12.000 L7.000,12.000 L7.000,5.000 L5.000,5.000 ZM9.000,5.000 L9.000,12.000 L11.000,12.000 L11.000,5.000 L9.000,5.000 Z"/>
</svg>
