<svg 
 xmlns="http://www.w3.org/2000/svg"
 xmlns:xlink="http://www.w3.org/1999/xlink"
 width="18px" height="17px">
<path fill-rule="evenodd" 
 d="M15.630,17.000 L15.630,12.568 C15.630,12.215 15.539,11.826 15.356,11.402 C14.955,10.483 14.244,9.741 13.222,9.175 C12.816,8.954 12.370,8.764 11.884,8.605 C13.465,8.728 14.768,9.077 15.792,9.650 C16.729,10.181 17.381,10.878 17.749,11.741 C17.916,12.139 18.000,12.505 18.000,12.837 L18.000,17.000 L15.630,17.000 ZM10.523,7.470 C10.305,7.470 10.094,7.452 9.888,7.417 C10.185,7.238 10.466,7.017 10.729,6.755 C11.571,5.920 11.993,4.913 11.993,3.735 C11.993,2.862 11.744,2.073 11.246,1.370 C10.863,0.829 10.393,0.395 9.839,0.067 C10.576,-0.070 11.281,0.006 11.953,0.299 C12.639,0.598 13.199,1.055 13.634,1.669 C14.069,2.283 14.287,2.972 14.287,3.735 C14.287,4.765 13.918,5.644 13.183,6.375 C12.447,7.105 11.560,7.470 10.523,7.470 ZM10.588,1.669 C11.023,2.283 11.241,2.972 11.241,3.735 C11.241,4.765 10.873,5.644 10.137,6.375 C9.401,7.105 8.514,7.470 7.477,7.470 C6.708,7.470 6.014,7.254 5.395,6.823 C4.776,6.391 4.316,5.835 4.015,5.155 C3.713,4.474 3.638,3.760 3.789,3.013 C3.939,2.266 4.282,1.627 4.818,1.096 C5.353,0.565 5.997,0.225 6.750,0.075 C7.502,-0.074 8.221,0.001 8.907,0.299 C9.593,0.598 10.154,1.055 10.588,1.669 ZM7.477,8.554 C9.685,8.554 11.441,8.920 12.746,9.650 C13.683,10.181 14.335,10.878 14.703,11.741 C14.870,12.139 14.954,12.505 14.954,12.837 L14.954,17.000 L0.000,17.000 L0.000,12.837 L0.050,12.389 C0.117,12.023 0.251,11.675 0.452,11.343 C0.753,10.845 1.137,10.413 1.606,10.048 C2.208,9.617 2.944,9.268 3.814,9.002 C4.851,8.704 6.072,8.554 7.477,8.554 Z"/>
</svg>
