<svg 
 xmlns="http://www.w3.org/2000/svg"
 xmlns:xlink="http://www.w3.org/1999/xlink"
 width="18px" height="18px">
<path fill-rule="evenodd"  
 d="M17.912,13.779 C17.880,13.824 17.840,13.863 17.795,13.895 L12.124,17.894 C11.898,18.054 11.584,18.002 11.423,17.779 C11.362,17.695 11.329,17.594 11.329,17.490 L11.329,15.335 L10.679,15.335 C9.462,15.335 8.124,15.693 7.259,16.214 C6.394,16.734 6.103,17.104 6.103,17.104 C5.423,17.720 5.117,17.524 5.403,16.645 C5.403,16.645 5.778,14.517 7.862,12.988 C8.503,12.518 9.024,12.171 9.851,11.925 C10.330,11.790 10.827,11.666 11.329,11.588 L11.329,9.491 C11.329,9.217 11.554,8.995 11.832,8.995 C11.937,8.995 12.039,9.027 12.124,9.087 L17.795,13.087 C18.021,13.246 18.073,13.556 17.912,13.779 ZM7.369,7.657 C6.611,7.657 5.928,7.436 5.318,6.994 C4.709,6.552 4.256,5.982 3.960,5.285 C3.663,4.588 3.589,3.856 3.737,3.091 C3.886,2.326 4.223,1.671 4.750,1.127 C5.277,0.582 5.911,0.233 6.652,0.081 C7.393,-0.072 8.101,0.004 8.777,0.310 C9.452,0.616 10.004,1.084 10.432,1.713 C10.860,2.343 11.074,3.048 11.074,3.831 C11.074,4.885 10.711,5.787 9.987,6.535 C9.262,7.283 8.390,7.657 7.369,7.657 ZM7.369,8.768 C8.114,8.768 8.788,8.828 9.429,8.917 C9.387,9.102 9.360,9.293 9.360,9.491 L9.360,9.940 C9.343,9.945 9.326,9.950 9.308,9.954 C8.173,10.293 7.439,10.791 6.728,11.313 C4.337,13.067 3.654,15.426 3.501,16.110 C3.349,16.620 3.316,17.051 3.346,17.422 L0.007,17.422 L0.007,13.156 L0.057,12.697 C0.122,12.322 0.254,11.965 0.452,11.625 C0.748,11.115 1.127,10.673 1.588,10.299 C2.181,9.857 2.906,9.499 3.762,9.227 C4.783,8.921 5.985,8.768 7.369,8.768 Z"/>
</svg>
