<svg 
 xmlns="http://www.w3.org/2000/svg"
 xmlns:xlink="http://www.w3.org/1999/xlink"
 width="20px" height="16px">
<path fill-rule="evenodd"  fill="rgb(43, 47, 54)"
 d="M10.344,16.000 L3.737,9.500 L13.393,-0.000 L20.000,-0.000 L20.000,6.500 L10.344,16.000 ZM17.967,2.000 L13.901,2.000 L6.583,9.500 L10.344,13.200 L17.967,6.000 L17.967,2.000 ZM15.934,3.000 C16.544,3.000 16.951,3.400 16.951,4.000 C16.951,4.600 16.544,5.000 15.934,5.000 C15.324,5.000 14.918,4.600 14.918,4.000 C14.918,3.400 15.324,3.000 15.934,3.000 ZM6.322,13.015 L4.974,14.341 L-0.000,9.447 L9.263,0.334 L10.610,1.659 L2.695,9.447 L6.322,13.015 Z"/>
</svg>
