<svg 
 xmlns="http://www.w3.org/2000/svg"
 xmlns:xlink="http://www.w3.org/1999/xlink"
 width="17px" height="17px">
<path fill-rule="evenodd" 
 d="M1.930,-0.000 C0.867,-0.000 -0.000,0.867 -0.000,1.929 L-0.000,6.434 C-0.000,7.494 0.614,8.977 1.366,9.727 L8.047,16.408 C8.797,17.159 10.023,17.159 10.775,16.408 L16.409,10.775 C17.159,10.024 17.159,8.796 16.409,8.045 L9.727,1.364 C8.977,0.613 7.495,-0.000 6.434,-0.000 L1.930,-0.000 ZM4.493,6.418 C3.430,6.418 2.567,5.556 2.567,4.493 C2.567,3.430 3.430,2.567 4.493,2.567 C5.556,2.567 6.418,3.430 6.418,4.493 C6.418,5.556 5.556,6.418 4.493,6.418 L4.493,6.418 Z"/>
</svg>
