<svg 
 xmlns="http://www.w3.org/2000/svg"
 xmlns:xlink="http://www.w3.org/1999/xlink"
 width="14px" height="17px">
<path fill-rule="evenodd"  fill="rgb(43, 47, 54)"
 d="M11.846,13.706 L10.877,12.750 L3.123,12.750 L2.154,13.706 L2.154,14.875 L11.846,14.875 L11.846,13.706 ZM14.000,12.750 L14.000,17.000 L-0.000,17.000 L-0.000,12.750 L0.108,12.750 L2.261,10.625 L11.738,10.625 L14.000,12.750 ZM11.846,4.781 C11.846,7.437 9.692,9.562 7.000,9.562 C4.308,9.562 2.154,7.437 2.154,4.781 C2.154,2.125 4.308,-0.000 7.000,-0.000 C9.692,-0.000 11.846,2.125 11.846,4.781 L11.846,4.781 ZM9.692,4.781 C9.692,3.294 8.507,2.125 7.000,2.125 C5.492,2.125 4.308,3.294 4.308,4.781 C4.308,6.269 5.492,7.437 7.000,7.437 C8.507,7.437 9.692,6.269 9.692,4.781 L9.692,4.781 Z"/>
</svg>
