<svg 
 xmlns="http://www.w3.org/2000/svg"
 xmlns:xlink="http://www.w3.org/1999/xlink"
 width="16px" height="17px">
<path fill-rule="evenodd"  fill="rgb(43, 47, 54)"
 d="M14.732,16.991 L2.681,16.991 C1.981,16.991 1.411,16.435 1.411,15.753 L1.411,11.460 L0.909,11.460 C0.404,11.460 -0.006,11.060 -0.006,10.568 C-0.006,10.076 0.404,9.676 0.909,9.676 L1.411,9.676 L1.411,8.695 L0.909,8.695 C0.404,8.695 -0.006,8.294 -0.006,7.802 C-0.006,7.311 0.404,6.911 0.908,6.910 L1.411,6.910 L1.411,5.929 L0.909,5.929 C0.908,5.929 0.908,5.929 0.907,5.929 C0.582,5.929 0.279,5.758 0.116,5.484 C-0.047,5.208 -0.047,4.866 0.116,4.591 C0.279,4.316 0.582,4.145 0.909,4.145 L1.411,4.145 L1.411,1.235 C1.411,0.595 1.905,0.065 2.559,0.003 L2.671,-0.002 L14.732,-0.003 C15.432,-0.003 16.002,0.553 16.002,1.235 L16.002,15.753 C16.002,16.435 15.432,16.991 14.732,16.991 ZM14.172,1.782 L3.241,1.782 L3.241,4.145 L3.744,4.145 C4.070,4.145 4.374,4.316 4.536,4.591 C4.700,4.866 4.700,5.208 4.536,5.484 C4.374,5.758 4.071,5.929 3.746,5.929 C3.745,5.929 3.744,5.929 3.743,5.929 L3.241,5.929 L3.241,6.910 L3.744,6.910 C4.249,6.911 4.659,7.311 4.659,7.802 C4.659,8.294 4.249,8.695 3.744,8.695 L3.241,8.695 L3.241,9.676 L3.744,9.676 C4.249,9.676 4.659,10.076 4.659,10.568 C4.659,11.060 4.249,11.460 3.744,11.460 L3.241,11.460 L3.241,15.206 L14.172,15.206 L14.172,1.782 ZM7.042,6.586 L5.857,3.501 C5.792,3.333 5.816,3.144 5.921,2.997 C6.028,2.849 6.200,2.767 6.384,2.762 L11.739,2.762 C11.924,2.762 12.096,2.851 12.201,2.998 C12.305,3.145 12.329,3.333 12.265,3.501 L11.077,6.585 L12.389,11.686 C12.438,11.875 12.379,12.076 12.236,12.211 L12.172,12.263 L9.061,14.302 L5.963,12.273 C5.797,12.164 5.702,11.976 5.716,11.782 L5.728,11.703 L7.042,6.586 ZM8.213,4.547 L8.591,5.528 L9.531,5.528 L9.908,4.547 L8.213,4.547 ZM9.061,12.153 L10.399,11.277 L9.390,7.355 L8.732,7.355 L7.723,11.277 L9.061,12.153 Z"/>
</svg>
