<svg 
 xmlns="http://www.w3.org/2000/svg"
 xmlns:xlink="http://www.w3.org/1999/xlink"
 width="76px" height="56px">
<path fill-rule="evenodd"  fill="rgb(249, 249, 249)"
 d="M40.011,56.000 L29.214,56.000 L-0.000,56.000 L-0.000,43.185 C-0.000,31.943 8.957,22.831 20.005,22.831 C23.357,22.831 26.511,23.680 29.286,25.162 C30.018,13.286 39.691,3.877 51.549,3.877 L51.549,3.877 C63.884,3.877 73.883,14.050 73.883,26.600 L73.883,56.000 L40.011,56.000 Z"/>
<path fill-rule="evenodd"  fill="rgb(239, 239, 239)"
 d="M73.460,7.323 L66.897,7.323 L66.897,7.284 C65.696,7.079 64.780,6.019 64.780,4.738 C64.780,3.311 65.917,2.154 67.320,2.154 C67.549,2.154 67.769,2.187 67.980,2.245 C68.144,0.978 69.206,-0.000 70.496,-0.000 C71.769,-0.000 72.821,0.954 73.005,2.197 C73.152,2.170 73.304,2.154 73.460,2.154 C74.863,2.154 76.000,3.311 76.000,4.738 C76.000,6.166 74.863,7.323 73.460,7.323 ZM9.315,18.954 L2.752,18.954 L2.752,18.915 C1.551,18.710 0.635,17.650 0.635,16.369 C0.635,14.942 1.772,13.785 3.175,13.785 C3.404,13.785 3.624,13.818 3.835,13.876 C3.999,12.609 5.061,11.631 6.351,11.631 C7.624,11.631 8.676,12.585 8.860,13.828 C9.008,13.801 9.159,13.785 9.315,13.785 C10.718,13.785 11.855,14.942 11.855,16.369 C11.855,17.797 10.718,18.954 9.315,18.954 Z"/>
<path fill-rule="evenodd"  opacity="0.902" fill="rgb(233, 233, 233)"
 d="M32.187,44.154 C31.773,44.154 31.437,43.812 31.437,43.391 L31.437,42.117 C31.437,41.695 31.773,41.354 32.187,41.354 L47.623,41.354 C48.037,41.354 48.373,41.695 48.373,42.117 L48.373,43.391 C48.373,43.812 48.037,44.154 47.623,44.154 L32.187,44.154 M32.187,36.831 C31.773,36.831 31.437,36.489 31.437,36.068 L31.437,34.794 C31.437,34.372 31.773,34.031 32.187,34.031 L47.623,34.031 C48.037,34.031 48.373,34.372 48.373,34.794 L48.373,36.068 C48.373,36.489 48.037,36.831 47.623,36.831 L32.187,36.831 M32.187,29.508 C31.773,29.508 31.437,29.166 31.437,28.744 L31.437,27.471 C31.437,27.049 31.773,26.708 32.187,26.708 L47.623,26.708 C48.037,26.708 48.373,27.049 48.373,27.471 L48.373,28.744 C48.373,29.166 48.037,29.508 47.623,29.508 L32.187,29.508 M54.324,14.646 L25.487,14.646 C24.622,14.646 23.922,15.359 23.922,16.238 L23.922,54.408 C23.922,55.287 24.622,56.000 25.487,56.000 L54.324,56.000 C55.188,56.000 55.889,55.287 55.889,54.408 L55.889,16.238 C55.889,15.359 55.188,14.646 54.324,14.646 "/>
</svg>
