<svg xmlns="http://www.w3.org/2000/svg" width="16" height="16" viewBox="0 0 16 16">
  <defs>
    <style>
      .cls-1 {
        fill: #00a0e9;
        fill-rule: evenodd;
      }
    </style>
  </defs>
  <path id="volume_icon" class="cls-1" d="M297.094,264.355L297.47,264v16L289,272Zm-1.506,4.089L291.917,272l3.671,3.556v-7.112Zm3.765-2.577a6.154,6.154,0,0,1,0,12.266v-1.777a4.4,4.4,0,0,0,0-8.712v-1.777Zm0,2.666A3.59,3.59,0,0,1,302.176,272a3.668,3.668,0,0,1-2.823,3.467V273.6a1.684,1.684,0,0,0,0-3.022v-2.045Zm0,0" transform="translate(-289 -264)"/>
</svg>
