<svg 
 xmlns="http://www.w3.org/2000/svg"
 xmlns:xlink="http://www.w3.org/1999/xlink"
 width="17px" height="21px">
<path fill-rule="evenodd"  fill="rgb(28, 31, 35)"
 d="M16.149,18.375 L0.851,18.375 C0.530,18.375 0.236,18.188 0.091,17.893 C-0.054,17.598 -0.024,17.244 0.167,16.979 L2.069,14.331 L2.069,9.187 C2.069,5.568 4.955,2.625 8.500,2.625 C12.045,2.625 14.930,5.568 14.930,9.187 L14.930,14.331 L16.833,16.979 C17.024,17.244 17.054,17.598 16.909,17.893 C16.764,18.188 16.470,18.375 16.149,18.375 L16.149,18.375 ZM2.535,16.626 L14.462,16.626 L13.396,15.142 C13.288,14.990 13.229,14.808 13.229,14.622 L13.229,9.187 C13.229,6.535 11.106,4.374 8.498,4.374 C5.889,4.374 3.768,6.535 3.768,9.187 L3.768,14.619 C3.768,14.806 3.710,14.988 3.602,15.139 L2.535,16.626 ZM10.625,21.000 L6.374,21.000 C5.906,21.000 5.524,20.609 5.524,20.124 C5.524,19.639 5.904,19.248 6.374,19.248 L10.623,19.248 C11.091,19.248 11.474,19.639 11.474,20.124 C11.474,20.609 11.094,21.000 10.625,21.000 L10.625,21.000 ZM8.924,1.749 L8.073,1.749 C7.605,1.749 7.223,1.358 7.223,0.873 C7.223,0.389 7.605,-0.000 8.076,-0.000 L8.927,-0.000 C9.395,-0.000 9.777,0.391 9.777,0.876 C9.777,1.360 9.395,1.749 8.924,1.749 L8.924,1.749 Z"/>
</svg>
