<svg 
 xmlns="http://www.w3.org/2000/svg"
 xmlns:xlink="http://www.w3.org/1999/xlink"
 width="17px" height="18px">
<path fill-rule="evenodd"  fill="rgb(42, 62, 82)"
 d="M3.765,4.548 C3.765,2.036 5.879,-0.000 8.486,-0.000 C11.093,-0.000 13.207,2.036 13.207,4.548 L13.207,8.187 L3.765,8.187 L3.765,4.548 ZM8.486,1.819 C6.921,1.819 5.653,3.041 5.653,4.548 L5.653,6.367 L11.318,6.367 L11.318,4.548 C11.318,3.041 10.050,1.819 8.486,1.819 L8.486,1.819 Z"/>
<path fill-rule="evenodd"  fill="rgb(182, 194, 205)"
 d="M16.055,6.160 L0.944,6.160 C0.694,6.160 0.453,6.256 0.276,6.427 C0.099,6.597 -0.000,6.829 -0.000,7.071 L-0.000,17.089 C-0.000,17.592 0.422,18.000 0.944,18.000 L16.055,18.000 C16.577,18.000 17.000,17.592 17.000,17.089 L17.000,7.071 C17.000,6.568 16.577,6.160 16.055,6.160 Z"/>
<path fill-rule="evenodd"  fill="rgb(24, 45, 67)"
 d="M7.558,10.240 L9.441,10.240 L9.441,13.893 L7.558,13.893 L7.558,10.240 Z"/>
</svg>
