<?xml version="1.0" encoding="utf-8"?>
<!-- Generator: Adobe Illustrator 23.0.0, SVG Export Plug-In . SVG Version: 6.00 Build 0)  -->
<svg version="1.1" id="图层_1" xmlns="http://www.w3.org/2000/svg" xmlns:xlink="http://www.w3.org/1999/xlink" x="0px" y="0px"
	 viewBox="0 0 200 200" style="enable-background:new 0 0 200 200;" xml:space="preserve">
<style type="text/css">
	.st0{fill:#F6A054;}
	.st1{fill:#FFDBA6;}
	.st2{fill:#FFFFFF;}
</style>
<path class="st0" d="M35,12.5h91.5l43.6,44v126.1c0,2.7-2.2,4.9-4.9,4.9H35c-2.7,0-4.9-2.2-4.9-4.9V17.4
	C30.1,14.7,32.3,12.5,35,12.5z"/>
<path class="st1" d="M126.5,12.5v39.2c0,2.7,2.2,4.9,4.9,4.9H170L126.5,12.5z"/>
<g>
	<path class="st2" d="M145.7,127.9l-24.9-45.3c-2-3.6-6.9-3.8-9.1-0.3L93.8,111l-6.7-11.5c-1.5-2.5-5-2.6-6.6-0.2l-20.6,31.1
		c-1.7,2.6,0.1,6.1,3.3,6.1h24.7h13.9h39.3C145.2,136.5,147.8,131.7,145.7,127.9z"/>
	
		<ellipse transform="matrix(0.9732 -0.2298 0.2298 0.9732 -14.9987 21.7037)" class="st2" cx="85.7" cy="75.3" rx="11.7" ry="11.7"/>
</g>
</svg>
