<svg 
 xmlns="http://www.w3.org/2000/svg"
 xmlns:xlink="http://www.w3.org/1999/xlink"
 width="17px" height="17px">
<path fill-rule="evenodd"  fill="rgb(137, 140, 156)"
 d="M16.220,10.890 C16.257,11.209 16.300,11.568 16.349,11.967 C16.398,12.366 16.444,12.774 16.487,13.192 C16.530,13.609 16.576,14.023 16.625,14.435 C16.674,14.846 16.717,15.217 16.754,15.549 C16.828,16.126 16.576,16.396 15.999,16.359 C15.693,16.335 15.346,16.301 14.959,16.258 C14.573,16.215 14.177,16.169 13.772,16.120 C13.367,16.071 12.965,16.022 12.566,15.972 C12.167,15.923 11.802,15.880 11.471,15.843 C11.115,15.807 10.888,15.705 10.790,15.540 C10.691,15.374 10.747,15.187 10.955,14.978 C11.090,14.855 11.256,14.686 11.452,14.472 C11.649,14.257 11.814,14.082 11.949,13.947 C12.084,13.799 12.127,13.664 12.078,13.542 C12.029,13.419 11.931,13.278 11.784,13.118 C11.440,12.787 11.127,12.486 10.845,12.216 C10.563,11.946 10.250,11.633 9.906,11.277 C9.832,11.203 9.759,11.123 9.685,11.037 C9.611,10.951 9.556,10.856 9.520,10.752 C9.483,10.647 9.476,10.537 9.501,10.420 C9.526,10.303 9.605,10.178 9.740,10.043 C9.814,9.969 9.875,9.904 9.925,9.849 C9.974,9.794 10.023,9.745 10.072,9.702 C10.121,9.659 10.173,9.610 10.228,9.555 C10.283,9.499 10.354,9.423 10.440,9.324 C10.685,9.079 10.912,8.975 11.121,9.011 C11.330,9.048 11.557,9.189 11.802,9.435 C12.048,9.680 12.299,9.929 12.557,10.181 C12.815,10.433 13.103,10.718 13.422,11.037 C13.655,11.258 13.855,11.412 14.020,11.497 C14.186,11.583 14.349,11.547 14.508,11.387 C14.619,11.277 14.757,11.145 14.922,10.991 C15.088,10.838 15.232,10.699 15.355,10.577 C15.564,10.368 15.751,10.288 15.916,10.337 C16.082,10.386 16.183,10.571 16.220,10.890 L16.220,10.890 ZM1.084,5.545 C1.047,5.226 1.004,4.867 0.955,4.468 C0.906,4.069 0.860,3.660 0.817,3.243 C0.774,2.825 0.728,2.411 0.679,2.000 C0.630,1.588 0.587,1.217 0.550,0.886 C0.513,0.567 0.553,0.345 0.670,0.223 C0.786,0.100 0.992,0.051 1.287,0.075 C1.593,0.100 1.940,0.134 2.327,0.177 C2.713,0.220 3.109,0.266 3.514,0.315 C3.919,0.364 4.321,0.413 4.720,0.462 C5.119,0.511 5.484,0.554 5.815,0.591 C6.183,0.628 6.413,0.729 6.505,0.895 C6.597,1.061 6.539,1.248 6.330,1.457 C6.208,1.579 6.057,1.739 5.879,1.935 C5.701,2.132 5.545,2.298 5.410,2.433 C5.263,2.580 5.214,2.715 5.263,2.838 C5.312,2.961 5.416,3.102 5.576,3.261 C5.735,3.433 5.886,3.584 6.027,3.712 C6.168,3.841 6.306,3.970 6.441,4.099 C6.576,4.228 6.717,4.366 6.864,4.514 L7.325,4.974 C7.398,5.048 7.469,5.134 7.536,5.232 C7.604,5.330 7.653,5.434 7.683,5.545 C7.714,5.655 7.711,5.772 7.674,5.895 C7.637,6.018 7.558,6.140 7.435,6.263 L7.232,6.466 C7.183,6.515 7.137,6.564 7.094,6.613 C7.051,6.662 6.999,6.711 6.938,6.760 L6.735,6.981 C6.490,7.227 6.278,7.319 6.100,7.258 C5.922,7.196 5.711,7.043 5.465,6.797 C5.220,6.552 4.987,6.321 4.766,6.106 C4.545,5.892 4.275,5.625 3.956,5.305 C3.735,5.084 3.538,4.931 3.367,4.845 C3.195,4.759 3.029,4.796 2.870,4.956 C2.759,5.078 2.606,5.229 2.409,5.407 C2.213,5.585 2.053,5.735 1.931,5.858 C1.722,6.067 1.538,6.146 1.379,6.097 C1.219,6.048 1.121,5.864 1.084,5.545 L1.084,5.545 ZM15.963,0.057 C16.281,0.020 16.502,0.060 16.625,0.177 C16.748,0.293 16.797,0.505 16.772,0.812 C16.748,1.119 16.714,1.466 16.671,1.853 C16.628,2.239 16.582,2.635 16.533,3.040 C16.484,3.446 16.435,3.847 16.386,4.247 C16.337,4.646 16.294,5.011 16.257,5.342 C16.220,5.698 16.119,5.925 15.953,6.024 C15.788,6.122 15.600,6.061 15.392,5.840 C15.269,5.717 15.110,5.566 14.913,5.388 C14.717,5.210 14.551,5.054 14.416,4.919 C14.269,4.784 14.134,4.738 14.011,4.781 C13.888,4.824 13.747,4.925 13.588,5.084 C13.256,5.416 12.965,5.717 12.713,5.987 C12.462,6.257 12.164,6.564 11.821,6.908 C11.747,6.981 11.661,7.052 11.563,7.119 C11.465,7.187 11.360,7.236 11.250,7.267 C11.139,7.297 11.023,7.294 10.900,7.258 C10.777,7.221 10.655,7.135 10.532,7.000 C10.458,6.926 10.394,6.865 10.339,6.816 C10.283,6.766 10.231,6.717 10.182,6.668 C10.133,6.619 10.081,6.570 10.026,6.521 C9.971,6.472 9.900,6.398 9.814,6.300 C9.569,6.054 9.470,5.840 9.520,5.655 C9.569,5.471 9.722,5.256 9.980,5.011 L10.679,4.274 C10.912,4.029 11.189,3.746 11.508,3.427 C11.741,3.206 11.900,3.010 11.986,2.838 C12.072,2.666 12.029,2.506 11.857,2.359 C11.747,2.249 11.606,2.098 11.434,1.908 C11.262,1.717 11.115,1.561 10.992,1.438 C10.784,1.230 10.704,1.045 10.753,0.886 C10.802,0.726 10.986,0.628 11.305,0.591 C11.624,0.554 11.983,0.511 12.382,0.462 C12.781,0.413 13.192,0.367 13.615,0.324 C14.039,0.281 14.453,0.235 14.858,0.186 C15.263,0.137 15.631,0.094 15.963,0.057 L15.963,0.057 ZM6.699,9.324 C6.772,9.398 6.837,9.459 6.892,9.509 C6.947,9.558 6.999,9.607 7.048,9.656 L7.196,9.822 L7.417,10.024 C7.662,10.270 7.769,10.494 7.739,10.696 C7.708,10.899 7.564,11.129 7.306,11.387 C7.073,11.620 6.827,11.869 6.570,12.133 C6.312,12.397 6.024,12.688 5.705,13.008 C5.484,13.229 5.346,13.410 5.290,13.551 C5.235,13.692 5.287,13.842 5.447,14.002 C5.569,14.113 5.708,14.251 5.861,14.416 C6.014,14.582 6.152,14.726 6.275,14.849 C6.484,15.058 6.561,15.242 6.505,15.402 C6.450,15.561 6.263,15.659 5.944,15.696 C5.625,15.733 5.269,15.776 4.876,15.825 C4.483,15.874 4.075,15.923 3.652,15.972 C3.229,16.022 2.811,16.071 2.400,16.120 C1.989,16.169 1.618,16.212 1.287,16.249 C0.980,16.273 0.762,16.227 0.633,16.111 C0.504,15.994 0.452,15.788 0.477,15.494 C0.501,15.187 0.535,14.840 0.578,14.453 C0.621,14.066 0.667,13.671 0.716,13.265 C0.765,12.860 0.814,12.458 0.863,12.059 C0.912,11.660 0.955,11.295 0.992,10.963 C1.029,10.595 1.130,10.365 1.296,10.273 C1.461,10.181 1.649,10.239 1.857,10.448 C1.980,10.571 2.149,10.730 2.363,10.927 C2.578,11.123 2.753,11.289 2.888,11.424 C3.035,11.571 3.158,11.636 3.256,11.617 C3.354,11.599 3.477,11.510 3.624,11.350 C3.784,11.190 3.937,11.034 4.084,10.881 C4.232,10.727 4.379,10.577 4.526,10.429 C4.674,10.282 4.824,10.129 4.977,9.969 C5.131,9.809 5.293,9.644 5.465,9.472 C5.539,9.398 5.619,9.324 5.705,9.251 C5.790,9.177 5.886,9.122 5.990,9.085 C6.094,9.048 6.205,9.045 6.321,9.076 C6.438,9.106 6.564,9.189 6.699,9.324 L6.699,9.324 Z"/>
</svg>
