<svg 
 xmlns="http://www.w3.org/2000/svg"
 xmlns:xlink="http://www.w3.org/1999/xlink"
 width="14px" height="14px">
<path fill-rule="evenodd" 
 d="M7.000,-0.000 C4.934,-0.000 3.160,0.878 1.824,2.270 L-0.000,0.447 L-0.000,4.989 L4.543,4.989 L2.878,3.325 C2.996,3.259 3.062,3.194 3.128,3.128 C3.649,2.606 4.245,2.234 4.915,1.936 C5.511,1.638 6.255,1.489 7.000,1.489 C7.745,1.489 8.489,1.638 9.160,1.936 C9.830,2.234 10.426,2.606 10.947,3.128 C11.468,3.649 11.840,4.245 12.138,4.915 C12.362,5.511 12.511,6.255 12.511,7.000 C12.511,7.745 12.362,8.489 12.064,9.160 C11.766,9.830 11.394,10.426 10.872,10.947 C10.351,11.468 9.755,11.840 9.085,12.138 C8.489,12.362 7.745,12.511 7.000,12.511 C6.255,12.511 5.511,12.362 4.840,12.064 C4.170,11.766 3.574,11.394 3.053,10.872 C2.532,10.351 2.160,9.755 1.862,9.085 C1.638,8.489 1.489,7.745 1.489,7.000 L1.489,6.926 L-0.000,6.926 L-0.000,7.000 C-0.000,10.872 3.128,14.000 7.000,14.000 C10.872,14.000 14.000,10.872 14.000,7.000 C14.000,3.128 10.872,-0.000 7.000,-0.000 Z"/>
</svg>
