<svg xmlns="http://www.w3.org/2000/svg" width="14" height="14" viewBox="0 0 14 14">
  <defs>
    <style>
      .cls-1 {
        fill-rule: evenodd;
      }
    </style>
  </defs>
  <path id="刷新缓存" class="cls-1" d="M492.03,76.464l-1.79-1.836a4.538,4.538,0,0,0,.233-9.027l-1.635-1.607h0.7A6.3,6.3,0,0,1,496,70.115a6.121,6.121,0,0,1-3.347,5.355V77Zm-1.713-.306c-0.233,0-.545.076-0.856,0.076A6.3,6.3,0,0,1,483,70.115a6.12,6.12,0,0,1,3.347-5.355V63l2.569,2.525a4.567,4.567,0,0,0-.156,9.1Zm0,0" transform="translate(-482.5 -63)"/>
</svg>
