<svg 
 xmlns="http://www.w3.org/2000/svg"
 xmlns:xlink="http://www.w3.org/1999/xlink"
 width="12px" height="14px">
<path fill-rule="evenodd"  fill="rgb(0, 160, 233)"
 d="M11.143,4.375 L11.143,14.000 L0.857,14.000 L0.857,4.375 L-0.000,4.375 L-0.000,2.625 L0.857,2.625 L11.143,2.625 L12.000,2.625 L12.000,4.375 L11.143,4.375 ZM9.428,4.375 L2.571,4.375 L2.571,12.250 L9.428,12.250 L9.428,4.375 ZM5.143,10.500 L3.429,10.500 L3.429,6.125 L5.143,6.125 L5.143,10.500 ZM8.571,10.500 L6.857,10.500 L6.857,6.125 L8.571,6.125 L8.571,10.500 ZM3.429,-0.000 L8.571,-0.000 L8.571,1.750 L3.429,1.750 L3.429,-0.000 Z"/>
</svg>
