<svg
        xmlns="http://www.w3.org/2000/svg"
        xmlns:xlink="http://www.w3.org/1999/xlink"
        width="26px" height="26px">
    <path
            d="M13.983,0.552 L17.685,6.679 C17.845,6.945 18.097,7.136 18.388,7.214 L25.093,9.009 C25.929,9.234 26.258,10.295 25.707,10.991 L21.290,16.573 C21.098,16.815 21.002,17.125 21.021,17.439 L21.464,24.676 C21.519,25.579 20.658,26.235 19.855,25.901 L13.424,23.224 C13.145,23.107 12.834,23.107 12.555,23.224 L6.124,25.901 C5.321,26.235 4.460,25.579 4.515,24.676 L4.957,17.439 C4.977,17.125 4.880,16.815 4.689,16.573 L0.272,10.991 C-0.280,10.295 0.049,9.234 0.886,9.009 L7.591,7.214 C7.882,7.136 8.133,6.945 8.294,6.679 L11.995,0.552 C12.457,-0.213 13.521,-0.213 13.983,0.552 Z"/>
</svg>
