<svg 
 xmlns="http://www.w3.org/2000/svg"
 xmlns:xlink="http://www.w3.org/1999/xlink"
 width="17px" height="21px">
<path fill-rule="evenodd"  fill="rgb(28, 31, 35)"
 d="M7.620,1.212 C8.164,0.882 8.835,0.882 9.380,1.212 L16.120,5.293 C16.665,5.623 17.000,6.232 17.000,6.891 L17.000,15.052 C17.000,15.711 16.665,16.320 16.120,16.650 L9.380,20.731 C8.835,21.060 8.164,21.060 7.620,20.731 L0.880,16.650 C0.335,16.320 -0.000,15.711 -0.000,15.052 L-0.000,6.891 C-0.000,6.232 0.335,5.623 0.880,5.293 L7.620,1.212 ZM8.500,2.810 L1.760,6.891 L1.760,15.052 L8.500,19.133 L15.240,15.052 L15.240,6.891 L8.500,2.810 ZM8.500,7.281 C10.444,7.281 12.020,8.933 12.020,10.971 C12.020,13.010 10.444,14.662 8.500,14.662 C6.556,14.662 4.980,13.010 4.980,10.971 C4.980,8.933 6.556,7.281 8.500,7.281 L8.500,7.281 ZM8.500,9.126 C7.871,9.126 7.290,9.478 6.976,10.049 C6.662,10.620 6.662,11.323 6.976,11.894 C7.290,12.465 7.871,12.817 8.500,12.817 C9.472,12.817 10.260,11.991 10.260,10.971 C10.260,9.952 9.472,9.126 8.500,9.126 L8.500,9.126 Z"/>
</svg>
