<svg id="_-s-nav_icon" data-name="-s-nav_icon" xmlns="http://www.w3.org/2000/svg" width="18" height="18" viewBox="0 0 18 18">
  <defs>
    <style>
      .cls-1 {
      }

      .cls-1, .cls-2 {
      fill-rule: evenodd;
      }

      .cls-2 {
        fill: #00a0e9;
      }
    </style>
  </defs>
  <path id="形状_27" data-name="形状 27" class="cls-1" d="M41.1,418.9a3.409,3.409,0,0,0-.1-1l1-1.2-2-3.5-1.6.3a7.678,7.678,0,0,0-1.8-1L36,411H32l-0.5,1.6a6.369,6.369,0,0,0-1.8,1l-1.6-.3-2,3.5,1,1.2a3.089,3.089,0,0,0-.1,1v1.1l-1,1.2,2,3.5,1.6-.3a7.677,7.677,0,0,0,1.8,1L32,427h4l0.6-1.5a6.369,6.369,0,0,0,1.8-1l1.6,0.1,2-3.5-1-1.2A3.4,3.4,0,0,0,41.1,418.9ZM39,419a6.145,6.145,0,0,1-.1,1.3l0.8,0.9-1,1.7-1.2-.3a4.452,4.452,0,0,1-2.1,1.2L35,425H33l-0.4-1.3a5.475,5.475,0,0,1-2.1-1.2l-1.2.3-1-1.7,0.8-.9A4.864,4.864,0,0,1,29,419a6.159,6.159,0,0,1,.1-1.3l-0.8-.9,1-1.7,1.2,0.3a4.451,4.451,0,0,1,2.1-1.2L33,413h2l0.4,1.3a5.491,5.491,0,0,1,2.1,1.2l1.2-.3,1,1.7-0.8.9A4.876,4.876,0,0,1,39,419Z" transform="translate(-25 -410)"/>
  <path id="形状_28" data-name="形状 28" class="cls-2" d="M33.986,415.987a2.955,2.955,0,1,0,2.955,2.955A2.9,2.9,0,0,0,33.986,415.987Zm0,3.94a0.985,0.985,0,1,1,.985-0.985A0.931,0.931,0,0,1,33.986,419.927Z" transform="translate(-25 -410)"/>
</svg>
