<svg 
 xmlns="http://www.w3.org/2000/svg"
 xmlns:xlink="http://www.w3.org/1999/xlink"
 width="15px" height="14px">
<path fill-rule="evenodd"  fill="rgb(0, 160, 233)"
 d="M8.531,10.918 L4.781,8.981 C4.219,9.421 3.562,9.685 2.812,9.685 C1.219,9.685 -0.000,8.541 -0.000,7.044 C-0.000,5.547 1.219,4.403 2.812,4.403 C3.656,4.403 4.312,4.755 4.875,5.195 L9.375,3.082 L9.375,2.641 C9.375,1.145 10.594,-0.000 12.187,-0.000 C13.781,-0.000 15.000,1.145 15.000,2.641 C15.000,4.138 13.781,5.283 12.187,5.283 C11.437,5.283 10.781,5.019 10.312,4.579 L5.625,6.868 L5.625,7.308 L9.469,9.333 C9.937,8.981 10.594,8.717 11.250,8.717 C12.844,8.717 14.062,9.862 14.062,11.358 C14.062,12.855 12.844,14.000 11.250,14.000 C9.656,14.000 8.437,12.855 8.437,11.358 C8.437,11.270 8.437,11.094 8.531,10.918 L8.531,10.918 ZM2.812,7.924 C3.375,7.924 3.750,7.572 3.750,7.044 C3.750,6.516 3.375,6.164 2.812,6.164 C2.250,6.164 1.875,6.516 1.875,7.044 C1.875,7.572 2.250,7.924 2.812,7.924 L2.812,7.924 ZM12.187,3.522 C12.750,3.522 13.125,3.170 13.125,2.641 C13.125,2.113 12.750,1.761 12.187,1.761 C11.625,1.761 11.250,2.113 11.250,2.641 C11.250,3.170 11.625,3.522 12.187,3.522 L12.187,3.522 ZM11.250,12.327 C11.812,12.327 12.187,11.975 12.187,11.447 C12.187,10.918 11.812,10.566 11.250,10.566 C10.687,10.566 10.312,10.918 10.312,11.447 C10.312,11.975 10.687,12.327 11.250,12.327 L11.250,12.327 Z"/>
</svg>
