<svg 
 xmlns="http://www.w3.org/2000/svg"
 xmlns:xlink="http://www.w3.org/1999/xlink"
 width="149px" height="122px">
<defs>
<linearGradient id="PSgrad_0" x1="0%" x2="0%" y1="100%" y2="0%">
  <stop offset="0%" stop-color="rgb(230,233,235)" stop-opacity="1" />
  <stop offset="100%" stop-color="rgb(204,207,208)" stop-opacity="1" />
</linearGradient>

</defs>
<path fill-rule="evenodd"  opacity="0.302" fill="rgb(227, 232, 232)"
 d="M70.741,111.000 L70.741,60.075 C70.741,38.337 88.108,20.715 109.532,20.715 L109.532,20.715 C130.956,20.715 148.323,38.337 148.323,60.075 L148.323,111.000 L70.741,111.000 ZM-0.000,88.802 C-0.000,69.331 15.556,53.546 34.746,53.546 C53.936,53.546 69.493,69.331 69.493,88.802 L69.493,111.000 L-0.000,111.000 L-0.000,88.802 Z"/>
<path fill-rule="evenodd"  opacity="0.702" fill="url(#PSgrad_0)"
 d="M143.588,12.684 L132.189,12.684 L132.189,12.617 C130.103,12.261 128.512,10.425 128.512,8.208 C128.512,5.735 130.488,3.731 132.925,3.731 C133.322,3.731 133.704,3.789 134.070,3.888 C134.355,1.695 136.200,-0.000 138.440,-0.000 C140.652,-0.000 142.478,1.653 142.797,3.806 C143.054,3.759 143.317,3.731 143.588,3.731 C146.024,3.731 148.000,5.735 148.000,8.208 C148.000,10.680 146.024,12.684 143.588,12.684 ZM32.178,32.831 L20.780,32.831 L20.780,32.764 C18.694,32.408 17.103,30.571 17.103,28.354 C17.103,25.881 19.078,23.877 21.515,23.877 C21.912,23.877 22.295,23.935 22.661,24.035 C22.945,21.841 24.791,20.146 27.030,20.146 C29.242,20.146 31.068,21.799 31.388,23.952 C31.645,23.905 31.908,23.877 32.178,23.877 C34.615,23.877 36.590,25.881 36.590,28.354 C36.590,30.826 34.615,32.831 32.178,32.831 Z"/>
<path fill-rule="evenodd"  opacity="0.502" fill="url(#PSgrad_0)"
 d="M117.095,59.996 L91.900,59.996 C90.845,59.996 89.990,60.875 89.990,61.959 L89.990,109.036 C89.990,110.121 90.845,111.000 91.900,111.000 L117.095,111.000 C118.150,111.000 119.005,110.121 119.005,109.036 L119.005,61.959 C119.005,60.875 118.150,59.996 117.095,59.996 "/>
<path fill-rule="evenodd"  fill="url(#PSgrad_0)"
 d="M54.904,90.481 C54.185,90.481 53.601,89.889 53.601,89.159 L53.601,86.953 C53.601,86.223 54.185,85.631 54.904,85.631 L81.714,85.631 C82.433,85.631 83.016,86.223 83.016,86.953 L83.016,89.159 C83.016,89.889 82.433,90.481 81.714,90.481 L54.904,90.481 M54.904,77.796 C54.185,77.796 53.601,77.204 53.601,76.474 L53.601,74.268 C53.601,73.538 54.185,72.946 54.904,72.946 L81.714,72.946 C82.433,72.946 83.016,73.538 83.016,74.268 L83.016,76.474 C83.016,77.204 82.433,77.796 81.714,77.796 L54.904,77.796 M54.904,65.111 C54.185,65.111 53.601,64.520 53.601,63.789 L53.601,61.583 C53.601,60.853 54.185,60.261 54.904,60.261 L81.714,60.261 C82.433,60.261 83.016,60.853 83.016,61.583 L83.016,63.789 C83.016,64.520 82.433,65.111 81.714,65.111 L54.904,65.111 M93.352,39.369 L43.266,39.369 C41.765,39.369 40.549,40.604 40.549,42.127 L40.549,108.242 C40.549,109.765 41.765,111.000 43.266,111.000 L93.352,111.000 C94.853,111.000 96.070,109.765 96.070,108.242 L96.070,42.127 C96.070,40.604 94.853,39.369 93.352,39.369 "/>
<path fill-rule="evenodd"  fill="url(#PSgrad_0)"
 d="M108.000,86.000 C117.941,86.000 126.000,94.059 126.000,104.000 C126.000,113.941 117.941,122.000 108.000,122.000 C98.059,122.000 90.000,113.941 90.000,104.000 C90.000,94.059 98.059,86.000 108.000,86.000 Z"/>
<path fill-rule="evenodd"  fill="rgb(255, 255, 255)"
 d="M110.828,104.000 L113.657,106.828 C114.438,107.609 114.438,108.876 113.657,109.657 C112.876,110.438 111.609,110.438 110.828,109.657 L108.000,106.828 L105.172,109.657 C104.391,110.438 103.124,110.438 102.343,109.657 C101.562,108.876 101.562,107.609 102.343,106.828 L105.172,104.000 L102.343,101.172 C101.562,100.391 101.562,99.124 102.343,98.343 C103.124,97.562 104.391,97.562 105.172,98.343 L108.000,101.172 L110.828,98.343 C111.609,97.562 112.876,97.562 113.657,98.343 C114.438,99.124 114.438,100.391 113.657,101.172 L110.828,104.000 Z"/>
</svg>
