<svg 
 xmlns="http://www.w3.org/2000/svg"
 xmlns:xlink="http://www.w3.org/1999/xlink"
 width="17px" height="16px">
<path fill-rule="evenodd"  fill="rgb(137, 140, 156)"
 d="M9.512,14.199 C9.476,13.894 9.434,13.552 9.387,13.172 C9.340,12.791 9.295,12.402 9.254,12.004 C9.212,11.607 9.168,11.212 9.121,10.820 C9.073,10.428 9.032,10.074 8.996,9.758 C8.925,9.208 9.168,8.950 9.725,8.985 C10.021,9.009 10.356,9.041 10.729,9.082 C11.102,9.123 11.484,9.167 11.875,9.214 C12.267,9.260 12.654,9.307 13.040,9.354 C13.425,9.401 13.777,9.442 14.097,9.477 C14.441,9.512 14.660,9.608 14.755,9.766 C14.850,9.924 14.796,10.103 14.595,10.302 C14.464,10.419 14.305,10.580 14.115,10.785 C13.925,10.989 13.765,11.156 13.635,11.285 C13.505,11.425 13.463,11.554 13.511,11.671 C13.558,11.788 13.653,11.923 13.795,12.075 C14.127,12.391 14.429,12.677 14.702,12.935 C14.974,13.192 15.276,13.491 15.608,13.830 C15.679,13.900 15.750,13.976 15.821,14.058 C15.892,14.140 15.946,14.231 15.981,14.330 C16.017,14.430 16.023,14.535 15.999,14.646 C15.975,14.758 15.898,14.877 15.768,15.006 C15.697,15.076 15.638,15.138 15.590,15.190 C15.543,15.243 15.495,15.290 15.448,15.331 C15.401,15.372 15.350,15.419 15.297,15.471 C15.244,15.524 15.175,15.597 15.093,15.691 C14.856,15.925 14.636,16.024 14.435,15.989 C14.233,15.954 14.014,15.820 13.777,15.585 C13.540,15.351 13.297,15.114 13.049,14.875 C12.800,14.635 12.521,14.363 12.213,14.058 C11.988,13.848 11.796,13.701 11.636,13.619 C11.476,13.537 11.318,13.573 11.164,13.725 C11.058,13.830 10.925,13.956 10.765,14.102 C10.605,14.248 10.465,14.380 10.347,14.497 C10.145,14.696 9.965,14.772 9.805,14.725 C9.645,14.679 9.547,14.503 9.512,14.199 L9.512,14.199 ZM6.462,1.661 C6.497,1.972 6.539,2.321 6.587,2.710 C6.635,3.098 6.680,3.496 6.722,3.903 C6.764,4.309 6.808,4.713 6.856,5.113 C6.904,5.514 6.946,5.875 6.982,6.198 C7.018,6.509 6.979,6.724 6.865,6.844 C6.751,6.964 6.551,7.011 6.264,6.987 C5.966,6.964 5.628,6.931 5.252,6.889 C4.875,6.847 4.490,6.802 4.095,6.754 C3.701,6.706 3.309,6.659 2.921,6.611 C2.532,6.563 2.177,6.521 1.854,6.485 C1.496,6.449 1.271,6.351 1.182,6.189 C1.092,6.028 1.149,5.845 1.352,5.642 C1.472,5.523 1.618,5.367 1.791,5.176 C1.965,4.985 2.117,4.823 2.248,4.692 C2.392,4.548 2.440,4.417 2.392,4.297 C2.344,4.178 2.243,4.040 2.087,3.885 C1.932,3.717 1.785,3.571 1.648,3.445 C1.510,3.320 1.376,3.194 1.244,3.069 C1.113,2.943 0.976,2.809 0.832,2.665 L0.384,2.217 C0.312,2.145 0.243,2.061 0.178,1.966 C0.112,1.870 0.064,1.768 0.034,1.661 C0.005,1.553 0.007,1.439 0.043,1.320 C0.079,1.200 0.157,1.081 0.276,0.961 L0.474,0.764 C0.521,0.716 0.566,0.668 0.608,0.620 C0.650,0.573 0.701,0.525 0.760,0.477 L0.958,0.262 C1.197,0.023 1.403,-0.067 1.576,-0.007 C1.749,0.052 1.956,0.202 2.195,0.441 C2.434,0.680 2.661,0.904 2.876,1.114 C3.091,1.323 3.354,1.583 3.665,1.894 C3.880,2.109 4.071,2.259 4.238,2.342 C4.406,2.426 4.567,2.390 4.723,2.235 C4.830,2.115 4.980,1.968 5.171,1.795 C5.362,1.622 5.518,1.475 5.637,1.356 C5.840,1.153 6.019,1.075 6.175,1.123 C6.330,1.170 6.426,1.350 6.462,1.661 L6.462,1.661 ZM9.790,7.005 C9.483,7.041 9.269,7.002 9.151,6.889 C9.032,6.776 8.985,6.571 9.009,6.273 C9.032,5.976 9.065,5.639 9.106,5.264 C9.148,4.889 9.192,4.505 9.240,4.112 C9.287,3.720 9.334,3.330 9.382,2.943 C9.429,2.556 9.471,2.202 9.506,1.880 C9.542,1.535 9.639,1.315 9.799,1.219 C9.959,1.124 10.140,1.184 10.342,1.398 C10.460,1.517 10.614,1.663 10.804,1.836 C10.993,2.008 11.153,2.160 11.284,2.291 C11.426,2.422 11.556,2.466 11.675,2.425 C11.793,2.383 11.929,2.285 12.083,2.130 C12.403,1.809 12.685,1.517 12.928,1.255 C13.171,0.993 13.458,0.696 13.790,0.362 C13.861,0.291 13.944,0.222 14.038,0.157 C14.133,0.091 14.234,0.044 14.341,0.014 C14.447,-0.016 14.560,-0.013 14.678,0.023 C14.797,0.059 14.915,0.142 15.034,0.273 C15.105,0.344 15.167,0.404 15.221,0.452 C15.274,0.499 15.324,0.547 15.372,0.594 C15.419,0.642 15.469,0.690 15.523,0.737 C15.576,0.785 15.644,0.856 15.727,0.952 C15.964,1.190 16.059,1.398 16.011,1.577 C15.964,1.755 15.816,1.964 15.567,2.202 L14.892,2.916 C14.666,3.154 14.400,3.428 14.092,3.737 C13.867,3.952 13.713,4.142 13.630,4.309 C13.547,4.476 13.588,4.630 13.754,4.773 C13.861,4.880 13.997,5.026 14.163,5.211 C14.329,5.395 14.471,5.547 14.589,5.666 C14.791,5.868 14.868,6.047 14.821,6.202 C14.773,6.357 14.595,6.452 14.287,6.488 C13.979,6.523 13.633,6.565 13.248,6.612 C12.862,6.660 12.466,6.705 12.057,6.746 C11.648,6.788 11.248,6.833 10.857,6.880 C10.466,6.928 10.110,6.970 9.790,7.005 L9.790,7.005 ZM1.011,15.745 C0.940,15.673 0.878,15.613 0.825,15.566 C0.772,15.518 0.722,15.470 0.674,15.422 L0.533,15.261 L0.321,15.063 C0.085,14.824 -0.019,14.606 0.011,14.409 C0.040,14.211 0.179,13.987 0.427,13.736 C0.651,13.509 0.887,13.267 1.135,13.010 C1.382,12.753 1.660,12.469 1.966,12.158 C2.179,11.943 2.311,11.766 2.365,11.629 C2.418,11.491 2.368,11.345 2.214,11.189 C2.096,11.082 1.963,10.947 1.816,10.786 C1.669,10.624 1.536,10.484 1.418,10.364 C1.217,10.161 1.144,9.982 1.197,9.826 C1.250,9.671 1.430,9.575 1.736,9.539 C2.043,9.503 2.385,9.462 2.763,9.414 C3.140,9.366 3.533,9.318 3.940,9.270 C4.347,9.223 4.748,9.175 5.143,9.127 C5.538,9.079 5.895,9.037 6.214,9.001 C6.509,8.977 6.718,9.022 6.842,9.136 C6.966,9.249 7.016,9.450 6.993,9.737 C6.969,10.036 6.937,10.373 6.895,10.750 C6.854,11.127 6.810,11.512 6.762,11.907 C6.715,12.301 6.668,12.693 6.621,13.082 C6.574,13.470 6.532,13.826 6.497,14.149 C6.462,14.507 6.364,14.732 6.205,14.821 C6.046,14.911 5.866,14.854 5.665,14.651 C5.547,14.531 5.385,14.376 5.179,14.185 C4.972,13.993 4.804,13.832 4.674,13.700 C4.533,13.557 4.415,13.494 4.320,13.512 C4.226,13.530 4.108,13.617 3.966,13.772 C3.813,13.928 3.665,14.080 3.524,14.229 C3.382,14.379 3.241,14.525 3.099,14.669 C2.958,14.812 2.813,14.962 2.666,15.117 C2.518,15.273 2.362,15.434 2.197,15.601 C2.126,15.673 2.049,15.745 1.966,15.817 C1.884,15.888 1.792,15.942 1.692,15.978 C1.592,16.014 1.486,16.017 1.374,15.987 C1.261,15.957 1.141,15.876 1.011,15.745 L1.011,15.745 Z"/>
</svg>
