<svg 
 xmlns="http://www.w3.org/2000/svg"
 xmlns:xlink="http://www.w3.org/1999/xlink"
 width="16px" height="16px">
<path fill-rule="evenodd"  fill="rgb(170, 170, 170)"
 d="M13.715,0.000 C14.943,-0.000 15.952,1.020 15.998,2.310 L16.000,2.400 L16.000,13.600 C16.000,14.890 15.028,15.950 13.800,15.998 L13.715,16.000 L3.050,16.000 C1.822,16.000 0.813,14.979 0.767,13.690 L0.765,13.600 L0.765,12.865 C0.763,12.434 1.088,12.078 1.498,12.062 C1.909,12.046 2.258,12.375 2.287,12.805 L2.289,12.865 L2.289,13.600 C2.289,14.019 2.596,14.366 2.993,14.398 L3.050,14.400 L13.715,14.400 C14.113,14.400 14.444,14.077 14.475,13.660 L14.476,13.600 L14.476,2.400 C14.477,1.981 14.169,1.633 13.772,1.602 L13.715,1.600 L3.050,1.600 C2.652,1.600 2.320,1.923 2.291,2.340 L2.289,2.400 L2.289,3.648 C2.290,4.079 1.966,4.434 1.555,4.450 C1.145,4.466 0.796,4.138 0.767,3.707 L0.765,3.647 L0.765,2.400 C0.765,1.109 1.737,0.050 2.965,0.002 L3.050,0.000 L13.715,0.000 ZM5.951,2.681 C6.633,2.183 7.569,2.351 8.056,3.058 L9.230,4.766 C9.722,5.482 9.569,6.480 8.889,6.998 L8.671,7.164 L9.591,8.456 L9.762,8.326 L9.829,8.278 C10.510,7.816 11.416,7.995 11.891,8.685 L13.170,10.546 C13.515,11.047 13.441,11.740 13.000,12.149 C11.835,13.227 10.349,13.506 8.634,13.007 C5.748,12.167 3.984,9.720 4.211,6.534 C4.339,4.750 4.907,3.443 5.951,2.681 L5.951,2.681 ZM6.821,3.995 L6.755,4.045 C6.176,4.509 5.824,5.358 5.730,6.654 C5.559,9.053 6.835,10.822 9.041,11.465 C10.112,11.777 10.968,11.687 11.668,11.208 L11.720,11.170 L10.655,9.621 L10.485,9.751 C9.811,10.264 8.870,10.114 8.371,9.414 L7.451,8.122 C6.947,7.415 7.085,6.412 7.758,5.883 L7.994,5.703 L6.821,3.995 ZM2.289,9.000 C2.700,8.998 3.038,9.339 3.053,9.770 C3.069,10.201 2.756,10.567 2.346,10.598 L2.289,10.600 L0.765,10.600 C0.354,10.602 0.016,10.261 0.001,9.830 C-0.015,9.399 0.298,9.032 0.708,9.002 L0.765,9.000 L2.289,9.000 ZM2.289,5.800 C2.700,5.798 3.038,6.139 3.053,6.570 C3.069,7.001 2.756,7.367 2.346,7.398 L2.289,7.400 L0.765,7.400 C0.354,7.402 0.016,7.061 0.001,6.630 C-0.015,6.199 0.298,5.832 0.708,5.802 L0.765,5.800 L2.289,5.800 Z"/>
</svg>
