<svg 
 xmlns="http://www.w3.org/2000/svg"
 xmlns:xlink="http://www.w3.org/1999/xlink"
 width="35px" height="31px">
<defs>
<linearGradient id="PSgrad_0" x1="46.947%" x2="0%" y1="88.295%" y2="0%">
  <stop offset="0%" stop-color="rgb(46,172,252)" stop-opacity="1" />
  <stop offset="100%" stop-color="rgb(159,216,254)" stop-opacity="1" />
</linearGradient>

</defs>
<path fill-rule="evenodd"  fill="rgb(46, 172, 252)"
 d="M14.414,1.442 L29.244,1.442 C30.900,1.442 32.244,2.785 32.244,4.442 L32.244,4.871 L14.414,4.871 L14.414,1.442 Z"/>
<path fill-rule="evenodd"  fill="url(#PSgrad_0)"
 d="M32.809,30.916 L2.382,30.916 C2.382,30.916 0.013,31.281 0.013,28.156 L0.013,2.898 C0.013,2.898 0.066,0.086 2.961,0.086 L13.384,0.086 C13.384,0.086 14.647,-0.174 15.700,1.440 C16.700,3.003 17.279,3.992 17.279,3.992 C17.279,3.992 17.647,4.409 18.490,4.409 L32.598,4.409 C32.598,4.409 34.967,4.148 34.967,6.752 L34.967,28.312 C34.967,28.312 35.336,30.916 32.809,30.916 L32.809,30.916 Z"/>
<path fill-rule="evenodd"  fill="rgb(194, 231, 255)"
 d="M11.221,14.745 L23.778,14.745 C24.453,14.745 25.000,15.292 25.000,15.966 L25.000,17.079 C25.000,17.754 24.453,18.301 23.778,18.301 L11.221,18.301 C10.547,18.301 10.000,17.754 10.000,17.079 L10.000,15.966 C10.000,15.292 10.547,14.745 11.221,14.745 Z"/>
<path fill-rule="evenodd"  fill="rgb(194, 231, 255)"
 d="M16.949,9.000 L18.051,9.000 C18.726,9.000 19.273,9.547 19.273,10.221 L19.273,22.778 C19.273,23.453 18.726,24.000 18.051,24.000 L16.949,24.000 C16.274,24.000 15.727,23.453 15.727,22.778 L15.727,10.221 C15.727,9.547 16.274,9.000 16.949,9.000 Z"/>
</svg>
