<?xml version="1.0" encoding="utf-8"?>
<svg version="1.1" xmlns:xlink="http://www.w3.org/1999/xlink" width="34px" height="34px" xmlns="http://www.w3.org/2000/svg">
  <defs>
    <filter x="-1px" y="-2px" width="34px" height="34px" filterUnits="userSpaceOnUse" id="filter5">
      <feOffset dx="1" dy="0" in="SourceAlpha" result="shadowOffsetInner" />
      <feGaussianBlur stdDeviation="1" in="shadowOffsetInner" result="shadowGaussian" />
      <feComposite in2="shadowGaussian" operator="atop" in="SourceAlpha" result="shadowComposite" />
      <feColorMatrix type="matrix" values="0 0 0 0 0.788235294117647  0 0 0 0 0.788235294117647  0 0 0 0 0.788235294117647  0 0 0 0.349019607843137 0  " in="shadowComposite" />
    </filter>
    <g id="widget6">
      <path d="M 15 0  C 23.4 0  30 6.6  30 15  C 30 23.4  23.4 30  15 30  C 6.6 30  0 23.4  0 15  C 0 6.6  6.6 0  15 0  Z " fill-rule="nonzero" fill="#ffffff" stroke="none" />
      <path d="M 15 0.5  C 23.12 0.5  29.5 6.88  29.5 15  C 29.5 23.12  23.12 29.5  15 29.5  C 6.88 29.5  0.5 23.12  0.5 15  C 0.5 6.88  6.88 0.5  15 0.5  Z " stroke-width="1" stroke="#c9c9c9" fill="none" />
    </g>
  </defs>
  <g transform="matrix(1 0 0 1 1 2 )">
    <use xlink:href="#widget6" filter="url(#filter5)" />
    <use xlink:href="#widget6" />
  </g>
</svg>