<?xml version="1.0" encoding="utf-8"?>
<svg version="1.1" xmlns:xlink="http://www.w3.org/1999/xlink" width="29px" height="29px" xmlns="http://www.w3.org/2000/svg">
  <g transform="matrix(1 0 0 1 -3234 406 )">
    <path d="M 3248.5 -406  C 3256.62 -406  3263 -399.62  3263 -391.5  C 3263 -383.38  3256.62 -377  3248.5 -377  C 3240.38 -377  3234 -383.38  3234 -391.5  C 3234 -399.62  3240.38 -406  3248.5 -406  Z " fill-rule="nonzero" fill="#ffffff" stroke="none" />
    <path d="M 3248.5 -405.5  C 3256.34 -405.5  3262.5 -399.34  3262.5 -391.5  C 3262.5 -383.66  3256.34 -377.5  3248.5 -377.5  C 3240.66 -377.5  3234.5 -383.66  3234.5 -391.5  C 3234.5 -399.34  3240.66 -405.5  3248.5 -405.5  Z " stroke-width="1" stroke="#02a7f0" fill="none" />
  </g>
</svg>