<?xml version="1.0" encoding="utf-8"?>
<svg version="1.1" xmlns:xlink="http://www.w3.org/1999/xlink" width="29px" height="29px" xmlns="http://www.w3.org/2000/svg">
  <g transform="matrix(1 0 0 1 -2921 406 )">
    <path d="M 2935.5 -406  C 2943.62 -406  2950 -399.62  2950 -391.5  C 2950 -383.38  2943.62 -377  2935.5 -377  C 2927.38 -377  2921 -383.38  2921 -391.5  C 2921 -399.62  2927.38 -406  2935.5 -406  Z " fill-rule="nonzero" fill="#ffffff" stroke="none" />
    <path d="M 2935.5 -405.5  C 2943.34 -405.5  2949.5 -399.34  2949.5 -391.5  C 2949.5 -383.66  2943.34 -377.5  2935.5 -377.5  C 2927.66 -377.5  2921.5 -383.66  2921.5 -391.5  C 2921.5 -399.34  2927.66 -405.5  2935.5 -405.5  Z " stroke-width="1" stroke="#797979" fill="none" />
  </g>
</svg>