<?xml version="1.0" encoding="utf-8"?>
<svg version="1.1" xmlns:xlink="http://www.w3.org/1999/xlink" width="438px" height="192px" xmlns="http://www.w3.org/2000/svg">
  <g transform="matrix(1 0 0 1 -97 -607 )">
    <path d="M 98 613  A 5 5 0 0 1 103 608 L 529 608  A 5 5 0 0 1 534 613 L 534 793  A 5 5 0 0 1 529 798 L 103 798  A 5 5 0 0 1 98 793 L 98 613  Z " fill-rule="nonzero" fill="#000000" stroke="none" fill-opacity="0.0196078431372549" />
    <path d="M 97.5 613  A 5.5 5.5 0 0 1 103 607.5 L 529 607.5  A 5.5 5.5 0 0 1 534.5 613 L 534.5 793  A 5.5 5.5 0 0 1 529 798.5 L 103 798.5  A 5.5 5.5 0 0 1 97.5 793 L 97.5 613  Z " stroke-width="1" stroke-dasharray="9,4" stroke="#108ee9" fill="none" stroke-dashoffset="0.5" />
  </g>
</svg>