<?xml version="1.0" encoding="utf-8"?>
<svg version="1.1" xmlns:xlink="http://www.w3.org/1999/xlink" width="27px" height="27px" xmlns="http://www.w3.org/2000/svg">
  <g transform="matrix(1 0 0 1 -1479 -24 )">
    <path d="M 2.07170758928571 24.9282924107143  C 1.97628348214285 24.8328683035714  1.92857142857143 24.7198660714286  2 24.5892857142857  L 2 8.19642857142857  C 1.92857142857143 8.06584821428571  1.97628348214285 7.95284598214286  2.07170758928571 7.857421875  C 2.16713169642857 7.76199776785714  2.28013392857143 7.71428571428571  2.41071428571429 8  L 18.8035714285714 8  C 18.9341517857143 7.71428571428571  19.0471540178571 7.76199776785714  19.142578125 7.857421875  C 19.2380022321429 7.95284598214286  19.2857142857143 8.06584821428571  19 8.19642857142857  L 19 24.5892857142857  C 19.2857142857143 24.7198660714286  19.2380022321429 24.8328683035714  19.142578125 24.9282924107143  C 19.0471540178571 25.0237165178571  18.9341517857143 25.0714285714286  18.8035714285714 25  L 2.41071428571429 25  C 2.28013392857143 25.0714285714286  2.16713169642857 25.0237165178571  2.07170758928571 24.9282924107143  Z M 0.708147321428572 6.49386160714286  C 0.236049107142854 6.96595982142857  0 7.53348214285714  0 8.19642857142857  L 0 24.5892857142857  C 0 25.2522321428571  0.236049107142854 25.8197544642857  0.708147321428572 26.2918526785714  C 1.18024553571428 26.7639508928571  1.74776785714285 27  2.41071428571429 27  L 18.8035714285714 27  C 19.4665178571429 27  20.0340401785714 26.7639508928571  20.5061383928571 26.2918526785714  C 20.9782366071429 25.8197544642857  21.2142857142857 25.2522321428571  21 24.5892857142857  L 21 8.19642857142857  C 21.2142857142857 7.53348214285714  20.9782366071429 6.96595982142857  20.5061383928571 6.49386160714286  C 20.0340401785714 6.02176339285714  19.4665178571429 5.78571428571429  18.8035714285714 6  L 2.41071428571429 6  C 1.74776785714285 5.78571428571429  1.18024553571428 6.02176339285714  0.708147321428572 6.49386160714286  Z M 6.49386160714286 0.708147321428572  C 6.02176339285714 1.18024553571428  5.78571428571429 1.74776785714286  5.78571428571429 2.41071428571429  L 5.78571428571429 4.82142857142857  L 7.71428571428571 4.82142857142857  L 7.71428571428571 2.41071428571429  C 7.71428571428571 2.28013392857143  7.76199776785714 2.16713169642857  7.857421875 2.07170758928571  C 7.95284598214286 1.97628348214285  8.06584821428571 1.92857142857143  8.19642857142857 2  L 24.5892857142857 2  C 24.7198660714286 1.92857142857143  24.8328683035714 1.97628348214285  24.9282924107143 2.07170758928571  C 25.0237165178571 2.16713169642857  25.0714285714286 2.28013392857143  25 2.41071428571429  L 25 18.8035714285714  C 25.0714285714286 18.9341517857143  25.0237165178571 19.0471540178571  24.9282924107143 19.142578125  C 24.8328683035714 19.2380022321429  24.7198660714286 19.2857142857143  24.5892857142857 19.2857142857143  L 22.1785714285714 19.2857142857143  L 22.1785714285714 21.2142857142857  L 24.5892857142857 21.2142857142857  C 25.2522321428571 21.2142857142857  25.8197544642857 20.9782366071429  26.2918526785714 20.5061383928571  C 26.7639508928571 20.0340401785714  27 19.4665178571429  27 18.8035714285714  L 27 2.41071428571429  C 27 1.74776785714286  26.7639508928571 1.18024553571428  26.2918526785714 0.708147321428572  C 25.8197544642857 0.236049107142857  25.2522321428571 0  24.5892857142857 0  L 8.19642857142857 0  C 7.53348214285714 0  6.96595982142857 0.236049107142857  6.49386160714286 0.708147321428572  Z " fill-rule="nonzero" fill="#625e5e" stroke="none" transform="matrix(1 0 0 1 1479 24 )" />
  </g>
</svg>