<svg 
 xmlns="http://www.w3.org/2000/svg"
 xmlns:xlink="http://www.w3.org/1999/xlink"
 width="28px" height="28px">
<path fill-rule="evenodd"  fill="rgb(255, 87, 87)"
 d="M14.000,-0.000 C21.732,-0.000 28.000,6.268 28.000,14.000 C28.000,21.732 21.732,28.000 14.000,28.000 C6.268,28.000 -0.000,21.732 -0.000,14.000 C-0.000,6.268 6.268,-0.000 14.000,-0.000 Z"/>
<path fill-rule="evenodd"  fill="rgb(255, 255, 255)"
 d="M20.872,17.621 L14.822,7.460 C14.653,7.175 14.340,7.000 14.001,7.000 C13.663,7.000 13.350,7.175 13.180,7.460 L7.130,17.621 C6.961,17.906 6.961,18.256 7.130,18.540 C7.300,18.825 7.612,19.000 7.951,19.000 L20.051,19.000 C20.390,19.000 20.703,18.825 20.872,18.540 C21.042,18.256 21.042,17.906 20.872,17.621 L20.872,17.621 ZM14.124,10.298 C14.554,10.295 14.981,10.666 14.981,11.009 L14.769,14.565 C14.769,14.909 14.478,15.190 14.124,15.190 C13.769,15.190 13.479,14.909 13.479,14.565 L13.267,11.009 C13.266,10.666 13.604,10.311 14.124,10.298 L14.124,10.298 ZM14.124,17.775 C13.634,17.775 13.238,17.390 13.238,16.916 C13.238,16.442 13.634,16.057 14.124,16.057 C14.613,16.057 15.010,16.442 15.010,16.916 C15.010,17.390 14.613,17.775 14.124,17.775 L14.124,17.775 Z"/>
</svg>
