<svg 
 xmlns="http://www.w3.org/2000/svg"
 xmlns:xlink="http://www.w3.org/1999/xlink"
 width="13px" height="14px">
<path fill-rule="evenodd"  fill="rgb(143, 149, 158)"
 d="M9.667,14.000 L3.332,14.000 C1.495,14.000 -0.000,12.615 -0.000,10.913 C-0.000,9.210 1.495,7.825 3.332,7.825 L9.667,7.825 C11.505,7.825 13.000,9.210 13.000,10.913 C13.000,12.615 11.505,14.000 9.667,14.000 ZM9.667,9.109 L3.332,9.109 C2.259,9.109 1.386,9.918 1.386,10.913 C1.386,11.907 2.259,12.716 3.332,12.716 L9.667,12.716 C10.741,12.716 11.614,11.907 11.614,10.913 C11.614,9.918 10.741,9.109 9.667,9.109 ZM6.500,7.153 C4.371,7.153 2.640,5.548 2.640,3.576 C2.640,1.604 4.371,-0.000 6.500,-0.000 C8.629,-0.000 10.360,1.604 10.360,3.576 C10.360,5.548 8.629,7.153 6.500,7.153 ZM6.500,1.284 C5.135,1.284 4.025,2.312 4.025,3.576 C4.025,4.840 5.135,5.869 6.500,5.869 C7.864,5.869 8.975,4.840 8.975,3.576 C8.975,2.312 7.864,1.284 6.500,1.284 Z"/>
</svg>
