<svg xmlns="http://www.w3.org/2000/svg" width="14" height="14" viewBox="0 0 14 14">
  <defs>
    <style>
      .cls-1 {
        fill-rule: evenodd;
      }
    </style>
  </defs>
  <path id="清空" class="cls-1" d="M611.47,77q-1.952,0-3.9,0A2.53,2.53,0,0,1,605,74.255q-0.006-1.413,0-2.825a1.67,1.67,0,0,1,1.725-1.849c0.678,0,1.356,0,2.034,0a1.2,1.2,0,0,1,1.158.767,0.135,0.135,0,0,1,.015.031,1.11,1.11,0,0,0,1.453.95c0.32-.055.657,0.011,0.982-0.02a0.522,0.522,0,0,0,.343-0.226,7.281,7.281,0,0,0,.363-0.749,1.186,1.186,0,0,1,1.132-.752c0.722,0,1.444-.007,2.165,0a1.629,1.629,0,0,1,1.6,1.652c0.028,1.094.036,2.191,0,3.284A2.479,2.479,0,0,1,615.506,77C614.161,77,612.816,77,611.47,77Zm-4.826-5.67c-0.01.13-.023,0.221-0.023,0.312,0,0.871,0,1.742,0,2.613a0.861,0.861,0,0,0,.942.988q3.938,0,7.874,0a0.863,0.863,0,0,0,.932-1c0-.871,0-1.742,0-2.613,0-.09-0.015-0.18-0.026-0.3a5.915,5.915,0,0,1-.965-0.009,1.042,1.042,0,0,0-1.356.892,0.627,0.627,0,0,1-.06.126,1.184,1.184,0,0,1-1.111.731c-0.908,0-1.816,0-2.723,0a1.17,1.17,0,0,1-1.1-.741c-0.125-.261-0.241-0.528-0.374-0.784a0.362,0.362,0,0,0-.195-0.2C607.856,71.321,607.258,71.328,606.644,71.328Zm5.982-5.673c0.362,0.382.694,0.723,1.016,1.074a0.9,0.9,0,0,1,.051,1.284,0.784,0.784,0,0,1-1.2-.047q-0.25-.255-0.488-0.524c-0.158-.179-0.308-0.366-0.515-0.613-0.374.425-.7,0.811-1.046,1.185a0.742,0.742,0,0,1-.849.2,0.723,0.723,0,0,1-.516-0.7,1.4,1.4,0,0,1,.254-0.754,14.708,14.708,0,0,1,1.017-1.109c-0.329-.348-0.649-0.682-0.963-1.022a0.926,0.926,0,0,1-.091-1.337,0.782,0.782,0,0,1,1.242.1c0.308,0.333.608,0.674,0.964,1.07,0.365-.411.7-0.8,1.04-1.167a0.723,0.723,0,0,1,.844-0.207,0.833,0.833,0,0,1,.534.7,0.91,0.91,0,0,1-.274.793C613.322,64.927,612.992,65.27,612.626,65.654Z" transform="translate(-604.5 -63)"/>
</svg>
