<svg 
 xmlns="http://www.w3.org/2000/svg"
 xmlns:xlink="http://www.w3.org/1999/xlink"
 width="16px" height="17px">
<path fill-rule="evenodd"
 d="M10.920,14.237 L10.920,17.000 L8.888,17.000 L8.888,12.644 C11.733,12.112 13.968,9.562 13.968,6.374 L16.000,6.374 C16.000,9.987 13.866,12.962 10.920,14.237 ZM11.733,9.031 L11.022,8.818 C10.514,9.350 9.904,9.774 9.193,9.987 L8.888,10.625 L6.856,10.625 L6.551,9.881 C5.840,9.668 5.231,9.243 4.723,8.712 L4.011,8.818 L2.996,7.012 L3.504,6.374 C3.300,6.055 3.300,5.737 3.300,5.312 C3.300,4.887 3.300,4.568 3.402,4.143 L2.996,3.612 L4.011,1.805 L4.723,1.911 C5.231,1.380 5.840,0.955 6.551,0.743 L6.856,-0.001 L8.888,-0.001 L9.193,0.743 C9.904,0.955 10.514,1.380 11.022,1.911 L11.733,1.805 L12.749,3.612 L12.241,4.249 C12.342,4.568 12.342,4.993 12.342,5.418 C12.342,5.843 12.342,6.162 12.241,6.587 L12.749,7.224 L11.733,9.031 ZM7.872,2.124 C6.145,2.124 4.824,3.505 4.824,5.312 C4.824,7.118 6.145,8.499 7.872,8.499 C9.599,8.499 10.920,7.118 10.920,5.312 C10.920,3.505 9.599,2.124 7.872,2.124 ZM7.872,6.374 C7.263,6.374 6.856,5.949 6.856,5.312 C6.856,4.674 7.263,4.249 7.872,4.249 C8.482,4.249 8.888,4.674 8.888,5.312 C8.888,5.949 8.482,6.374 7.872,6.374 Z"/>
<path fill-rule="evenodd"  fill="rgb(0, 160, 233)"
 d="M5.033,14.188 C2.112,12.897 -0.002,9.776 -0.002,6.225 L2.012,6.225 C2.012,9.453 4.227,12.036 7.047,12.574 L7.047,16.986 L5.033,16.986 L5.033,14.188 Z"/>
</svg>
