<svg xmlns="http://www.w3.org/2000/svg" width="14" height="14" viewBox="0 0 14 14">
  <defs>
    <style>
      .cls-1 {
        fill-rule: evenodd;
      }
    </style>
  </defs>
  <path id="normal_export__icon" data-name="normal_export _icon" class="cls-1" d="M1737.12,164.732l-2.12-3.18v-0.885h1.69v-3.542h1.69v3.542h1.7v0.885l-2.12,3.181a0.461,0.461,0,0,1-.84,0h0Zm8.71-9.223-4.04-4.33a0.534,0.534,0,0,0-.4-0.179h-5.66a0.68,0.68,0,0,0-.73.778v4.085h1.47v-3.307h4.4v3.131a0.906,0.906,0,0,0,.73.778h2.93l0.01,6.98h-2.21V165h2.94a0.68,0.68,0,0,0,.73-0.778v-8.283a0.62,0.62,0,0,0-.17-0.43h0Z" transform="translate(-1733.5 -151)"/>
</svg>
