<svg 
 xmlns="http://www.w3.org/2000/svg"
 xmlns:xlink="http://www.w3.org/1999/xlink"
 width="16px" height="18px">
<path fill-rule="evenodd"  fill="rgb(0, 160, 233)"
 d="M15.597,17.584 C15.547,17.631 15.493,17.676 15.436,17.719 C15.402,17.744 15.365,17.766 15.329,17.788 C15.279,17.818 15.229,17.845 15.174,17.867 C15.154,17.876 15.131,17.885 15.111,17.894 C15.088,17.903 15.067,17.910 15.045,17.919 C14.988,17.937 14.931,17.953 14.874,17.966 C14.852,17.971 14.827,17.975 14.804,17.980 C14.720,17.993 14.636,18.000 14.547,18.000 L10.037,18.000 L5.963,18.000 L1.453,18.000 C1.364,18.000 1.280,17.993 1.196,17.980 C1.173,17.975 1.148,17.971 1.125,17.966 C1.069,17.953 1.012,17.937 0.955,17.919 C0.932,17.910 0.912,17.903 0.889,17.894 C0.868,17.885 0.846,17.876 0.825,17.867 C0.771,17.845 0.721,17.818 0.671,17.788 C0.634,17.766 0.598,17.744 0.564,17.719 C0.507,17.676 0.452,17.631 0.402,17.584 C0.155,17.345 0.000,17.021 0.000,16.668 L0.000,2.047 C0.000,2.046 0.000,2.045 0.000,2.043 C-0.002,1.314 0.652,0.718 1.450,0.718 L1.450,0.718 C1.452,0.718 1.453,0.718 1.455,0.718 L1.455,2.157 C1.455,3.348 2.435,4.317 3.637,4.317 L12.362,4.317 C13.565,4.317 14.545,3.348 14.545,2.157 L14.545,0.718 C14.546,0.718 14.548,0.718 14.549,0.718 L14.549,0.718 C15.348,0.718 16.002,1.314 15.999,2.043 C15.999,2.045 16.000,2.046 16.000,2.047 L16.000,16.668 C16.000,17.021 15.845,17.345 15.597,17.584 ZM12.149,6.704 C12.017,6.574 11.835,6.493 11.635,6.493 L4.365,6.493 C4.165,6.493 3.983,6.574 3.851,6.704 C3.719,6.835 3.637,7.015 3.637,7.213 C3.637,7.608 3.965,7.932 4.365,7.932 L11.635,7.932 C12.035,7.932 12.362,7.608 12.362,7.213 C12.362,7.015 12.280,6.835 12.149,6.704 ZM12.149,9.577 C12.017,9.447 11.835,9.365 11.635,9.365 L4.365,9.365 C4.165,9.365 3.983,9.447 3.851,9.577 C3.719,9.707 3.637,9.888 3.637,10.085 C3.637,10.481 3.965,10.805 4.365,10.805 L11.635,10.805 C12.035,10.805 12.362,10.481 12.362,10.085 C12.362,9.888 12.280,9.707 12.149,9.577 ZM12.367,2.880 L3.637,2.880 C3.237,2.880 2.910,2.556 2.910,2.160 L2.910,0.720 C2.910,0.324 3.237,-0.000 3.637,-0.000 L12.367,-0.000 C12.767,-0.000 13.094,0.324 13.094,0.720 L13.094,2.160 C13.094,2.556 12.767,2.880 12.367,2.880 Z"/>
</svg>
