<svg 
 xmlns="http://www.w3.org/2000/svg"
 xmlns:xlink="http://www.w3.org/1999/xlink"
 width="14px" height="18px">
<path fill-rule="evenodd"  fill="rgb(28, 31, 35)"
 d="M8.555,1.600 C8.555,0.718 7.859,-0.000 7.000,-0.000 C6.143,-0.000 5.444,0.716 5.444,1.600 C5.444,1.690 5.452,1.778 5.466,1.864 C3.318,2.634 1.555,4.999 1.555,7.797 L1.555,10.000 C1.555,10.000 1.555,13.172 0.798,13.200 C0.346,13.200 -0.000,13.558 -0.000,14.000 C-0.000,14.445 0.348,14.800 0.777,14.800 L13.222,14.800 C13.654,14.800 14.000,14.442 14.000,14.000 C14.000,13.555 13.652,13.200 13.222,13.200 C12.445,13.200 12.445,10.022 12.445,10.022 L12.445,7.797 C12.445,4.996 10.797,2.630 8.535,1.862 C8.549,1.776 8.555,1.688 8.555,1.600 L8.555,1.600 ZM9.333,15.599 C9.331,16.925 8.296,18.000 7.000,18.000 C5.713,18.000 4.669,16.930 4.667,15.599 L9.333,15.599 Z"/>
</svg>
