<svg 
 xmlns="http://www.w3.org/2000/svg"
 xmlns:xlink="http://www.w3.org/1999/xlink"
 width="28px" height="28px">
<path fill-rule="evenodd"  fill="rgb(0, 168, 255)"
 d="M14.000,-0.000 C21.732,-0.000 28.000,6.268 28.000,14.000 C28.000,21.732 21.732,28.000 14.000,28.000 C6.268,28.000 -0.000,21.732 -0.000,14.000 C-0.000,6.268 6.268,-0.000 14.000,-0.000 Z"/>
<path fill-rule="evenodd"  fill="rgb(255, 255, 255)"
 d="M14.500,8.000 C10.910,8.000 8.000,10.910 8.000,14.500 C8.000,18.090 10.910,21.000 14.500,21.000 C18.090,21.000 21.000,18.090 21.000,14.500 C21.000,10.910 18.090,8.000 14.500,8.000 ZM13.636,17.276 L10.923,14.562 L12.033,13.452 L13.636,15.055 L16.967,11.724 L18.077,12.835 L13.636,17.276 Z"/>
</svg>
