<svg xmlns="http://www.w3.org/2000/svg" viewBox="0 0 15 14"><defs><style>.cls-1{fill:#a3a5b2;}</style></defs><title>资源 21920</title><g id="图层_2" data-name="图层 2"><g id="图层_1-2" data-name="图层 1"><path class="cls-1" d="M12.41,10.42l2.59-4H13.21A7.12,7.12,0,0,0,11.15,1.9a6.36,6.36,0,0,0-9.21.15A7.16,7.16,0,0,0,0,7,7.35,7.35,0,0,0,.52,9.72,6.84,6.84,0,0,0,1.94,12,6.43,6.43,0,0,0,6.63,14,6.14,6.14,0,0,0,9,13.55a6.45,6.45,0,0,0,2-1.23l.09-.08-1-1.37L9.9,11a4.83,4.83,0,0,1-3.27,1.31A5.13,5.13,0,0,1,1.65,7a5.13,5.13,0,0,1,5-5.26,5.11,5.11,0,0,1,4.93,4.68H9.83Z"/></g></g></svg>