<svg xmlns="http://www.w3.org/2000/svg" viewBox="0 0 14 16"><defs><style>.cls-1{fill:#a3a5b2;}</style></defs><title>资源 31920</title><g id="图层_2" data-name="图层 2"><g id="图层_1-2" data-name="图层 1"><path class="cls-1" d="M13.59,3.7,7.41.11a.8.8,0,0,0-.82,0L.41,3.7A.81.81,0,0,0,0,4.41v7.18a.81.81,0,0,0,.41.71l6.18,3.59a.82.82,0,0,0,.82,0l6.18-3.59a.81.81,0,0,0,.41-.71V4.41A.81.81,0,0,0,13.59,3.7Zm-1.22,7.42L7,14.24,1.63,11.12V4.88L7,1.76l5.37,3.12ZM4,8A3,3,0,1,0,7,5,3,3,0,0,0,4,8ZM8.37,8A1.38,1.38,0,0,1,7,9.38,1.38,1.38,0,1,1,8.37,8Z"/></g></g></svg>