<svg 
 xmlns="http://www.w3.org/2000/svg"
 xmlns:xlink="http://www.w3.org/1999/xlink"
 width="14px" height="14px">
<path fill-rule="evenodd"  fill="rgb(0, 160, 233)"
 d="M10.063,10.150 L11.112,10.413 L11.987,8.925 L11.287,8.138 C11.375,7.700 11.375,7.350 11.375,7.000 C11.375,6.650 11.375,6.300 11.287,5.950 L11.987,5.162 L11.112,3.675 L10.063,3.937 C9.537,3.500 8.925,3.062 8.225,2.887 L7.875,1.750 L6.125,1.750 L5.775,2.800 C5.075,2.975 4.462,3.325 3.938,3.850 L2.888,3.587 L2.013,5.075 L2.712,5.862 C2.625,6.300 2.625,6.650 2.625,7.000 C2.625,7.350 2.625,7.700 2.712,8.050 L2.013,8.837 L2.888,10.325 L3.938,10.063 C4.462,10.500 5.075,10.938 5.775,11.112 L6.125,12.250 L7.875,12.250 L8.225,11.200 C8.925,11.025 9.537,10.675 10.063,10.150 L10.063,10.150 ZM10.850,11.812 C10.412,12.162 9.800,12.512 9.275,12.687 L8.750,14.000 L5.250,14.000 L4.725,12.687 C4.112,12.425 3.587,12.162 3.150,11.812 L1.750,12.075 L-0.000,9.012 L0.875,7.962 L0.875,7.000 C0.875,6.650 0.875,6.387 0.962,6.125 L0.087,5.075 L1.837,2.012 L3.237,2.275 C3.675,1.925 4.287,1.575 4.812,1.400 L5.250,-0.000 L8.750,-0.000 L9.275,1.312 C9.887,1.575 10.412,1.837 10.850,2.187 L12.250,1.925 L14.000,4.987 L13.125,6.037 C13.212,6.300 13.212,6.650 13.212,6.912 C13.212,7.175 13.212,7.525 13.125,7.787 L14.000,8.837 L12.250,11.900 L10.850,11.812 ZM7.000,7.875 C7.525,7.875 7.875,7.525 7.875,7.000 C7.875,6.475 7.525,6.125 7.000,6.125 C6.475,6.125 6.125,6.475 6.125,7.000 C6.125,7.525 6.475,7.875 7.000,7.875 L7.000,7.875 ZM7.000,9.625 C5.512,9.625 4.375,8.488 4.375,7.000 C4.375,5.512 5.512,4.375 7.000,4.375 C8.487,4.375 9.625,5.512 9.625,7.000 C9.625,8.488 8.487,9.625 7.000,9.625 L7.000,9.625 Z"/>
</svg>
