<svg 
 xmlns="http://www.w3.org/2000/svg"
 xmlns:xlink="http://www.w3.org/1999/xlink"
 width="14px" height="12px">
<path fill-rule="evenodd"  fill="rgb(0, 160, 233)"
 d="M10.973,7.987 L8.764,5.759 L9.909,4.559 L10.973,5.673 L12.855,3.701 L14.000,4.901 L10.973,7.987 ZM8.181,6.000 L8.181,7.714 L6.545,7.714 L6.545,9.429 L4.909,9.429 L4.909,7.714 L3.273,7.714 L3.273,6.000 L4.909,6.000 L4.909,5.486 L3.273,3.771 L4.418,2.571 L5.727,3.943 L6.954,2.571 L8.100,3.771 L6.545,5.486 L6.545,6.000 L8.181,6.000 ZM9.818,1.714 L1.636,1.714 L1.636,10.286 L9.818,10.286 L9.818,9.429 L11.454,9.429 L11.454,12.000 L0.000,12.000 L0.000,-0.000 L11.454,-0.000 L11.454,2.571 L9.818,2.571 L9.818,1.714 Z"/>
</svg>
