<svg 
 xmlns="http://www.w3.org/2000/svg"
 xmlns:xlink="http://www.w3.org/1999/xlink"
 width="15px" height="14px">
<path fill-rule="evenodd"  fill="rgb(0, 160, 233)"
 d="M14.062,9.682 L13.500,9.682 L13.500,7.131 C13.500,7.097 13.497,7.065 13.492,7.033 C13.497,7.001 13.500,6.968 13.500,6.935 C13.500,6.607 13.250,6.346 12.937,6.346 L8.062,6.346 L8.062,4.318 L8.625,4.318 C9.125,4.318 9.562,3.860 9.500,3.336 L9.500,0.916 C9.500,0.458 9.125,-0.000 8.625,-0.000 L6.312,-0.000 C5.812,-0.000 5.375,0.392 5.375,0.916 L5.375,3.402 C5.375,3.860 5.812,4.318 6.312,4.318 L6.937,4.318 L6.937,6.346 L2.062,6.346 C1.750,6.346 1.500,6.607 1.500,6.935 C1.500,6.968 1.502,7.001 1.508,7.033 C1.502,7.065 1.500,7.097 1.500,7.131 L1.500,9.682 L0.875,9.682 C0.437,9.682 -0.000,10.140 -0.000,10.664 L-0.000,13.084 C-0.000,13.607 0.375,14.000 0.875,14.000 L3.187,14.000 C3.687,14.000 4.125,13.607 4.062,13.084 L4.062,10.664 C4.062,10.140 3.687,9.682 3.187,9.682 L2.625,9.682 L2.625,7.523 L6.937,7.523 L6.937,9.682 L6.312,9.682 C5.812,9.682 5.375,10.140 5.375,10.664 L5.375,13.084 C5.375,13.607 5.812,14.000 6.312,14.000 L8.625,14.000 C9.125,14.000 9.562,13.607 9.500,13.084 L9.500,10.664 C9.500,10.140 9.125,9.682 8.625,9.682 L8.062,9.682 L8.062,7.523 L12.375,7.523 L12.375,9.682 L11.750,9.682 C11.250,9.682 10.875,10.140 10.875,10.664 L10.875,13.084 C10.875,13.607 11.250,14.000 11.750,14.000 L14.062,14.000 C14.562,14.000 15.000,13.607 15.000,13.084 L15.000,10.664 C15.000,10.140 14.562,9.682 14.062,9.682 ZM6.625,1.178 L8.437,1.178 L8.437,3.075 L6.625,3.075 L6.625,1.178 ZM2.937,12.822 L1.125,12.822 L1.125,10.925 L2.937,10.925 L2.937,12.822 ZM8.437,12.822 L6.625,12.822 L6.625,10.925 L8.437,10.925 L8.437,12.822 ZM13.875,12.822 L12.062,12.822 L12.062,10.925 L13.875,10.925 L13.875,12.822 Z"/>
</svg>
