<svg 
 xmlns="http://www.w3.org/2000/svg"
 xmlns:xlink="http://www.w3.org/1999/xlink"
 width="14px" height="14px">
<path fill-rule="evenodd"  fill="rgb(143, 149, 158)"
 d="M7.000,14.000 C3.134,14.000 -0.000,10.866 -0.000,7.000 C-0.000,3.134 3.134,-0.000 7.000,-0.000 C10.866,-0.000 14.000,3.134 14.000,7.000 C14.000,10.866 10.866,14.000 7.000,14.000 ZM7.000,1.400 C3.907,1.400 1.400,3.907 1.400,7.000 C1.400,10.093 3.907,12.600 7.000,12.600 C10.093,12.600 12.600,10.093 12.600,7.000 C12.600,3.907 10.093,1.400 7.000,1.400 ZM10.500,8.400 L7.000,8.400 C6.533,8.400 6.300,8.167 6.300,7.700 L6.300,4.200 C6.300,3.733 6.533,3.500 7.000,3.500 C7.467,3.500 7.700,3.733 7.700,4.200 L7.700,7.000 L10.500,7.000 C10.966,7.000 11.200,7.233 11.200,7.700 C11.200,8.167 10.966,8.400 10.500,8.400 Z"/>
</svg>
