<svg 
 xmlns="http://www.w3.org/2000/svg"
 xmlns:xlink="http://www.w3.org/1999/xlink"
 width="28px" height="28px">
<path fill-rule="evenodd"  fill="rgb(0, 168, 255)"
 d="M14.000,-0.000 C21.732,-0.000 28.000,6.268 28.000,14.000 C28.000,21.732 21.732,28.000 14.000,28.000 C6.268,28.000 -0.000,21.732 -0.000,14.000 C-0.000,6.268 6.268,-0.000 14.000,-0.000 Z"/>
<path fill-rule="evenodd"  fill="rgb(255, 255, 255)"
 d="M19.462,18.215 L19.462,17.879 C19.462,16.638 18.777,15.526 17.736,14.905 C17.271,14.595 16.641,14.207 16.066,14.155 C16.997,13.715 17.709,12.862 17.873,11.724 C17.983,11.026 17.846,10.224 17.353,9.733 C18.640,9.733 19.599,10.819 19.599,12.086 C19.599,13.017 18.996,13.741 18.229,14.103 C18.695,14.155 19.215,14.491 19.517,14.672 C20.064,14.983 21.078,16.276 20.995,17.207 L20.995,17.388 C20.995,17.957 20.393,18.164 19.462,18.215 ZM13.820,14.103 C12.040,14.103 10.588,12.784 10.588,11.052 C10.588,9.397 12.040,8.000 13.820,8.000 C15.545,8.000 16.997,9.371 16.997,11.052 C16.997,12.784 15.600,14.103 13.820,14.103 ZM12.971,14.802 L14.833,14.802 C15.573,14.802 16.367,14.983 16.970,15.396 C18.092,16.069 18.859,17.259 18.859,18.603 L18.859,18.836 C18.859,20.000 17.106,20.000 14.861,20.000 L12.998,20.000 C10.753,20.000 9.000,19.974 9.000,18.836 L9.000,18.603 C9.000,17.259 9.739,16.069 10.835,15.371 C11.437,14.983 12.232,14.802 12.971,14.802 Z"/>
</svg>
