<svg 
 xmlns="http://www.w3.org/2000/svg"
 xmlns:xlink="http://www.w3.org/1999/xlink"
 width="17px" height="17px">
<path fill-rule="evenodd"  fill="rgb(198, 198, 198)"
 d="M8.500,17.000 C3.806,17.000 -0.000,13.194 -0.000,8.500 C-0.000,3.806 3.806,-0.000 8.500,-0.000 C13.194,-0.000 17.000,3.806 17.000,8.500 C17.000,13.194 13.194,17.000 8.500,17.000 L8.500,17.000 ZM8.500,11.768 C10.426,11.768 12.170,10.679 13.731,8.500 C12.170,6.321 10.425,5.231 8.500,5.231 C6.574,5.231 4.830,6.321 3.268,8.500 C4.830,10.679 6.574,11.768 8.500,11.768 L8.500,11.768 ZM8.500,9.807 C9.222,9.807 9.807,9.222 9.807,8.500 C9.807,7.778 9.222,7.192 8.500,7.192 C7.778,7.192 7.192,7.778 7.192,8.500 C7.192,9.222 7.778,9.807 8.500,9.807 L8.500,9.807 Z"/>
</svg>
