<svg 
 xmlns="http://www.w3.org/2000/svg"
 xmlns:xlink="http://www.w3.org/1999/xlink"
 width="24px" height="24px">
<path fill-rule="evenodd"  fill=""
 d="M11.993,23.992 C5.377,23.992 -0.005,18.610 -0.005,11.994 C-0.005,5.379 5.377,-0.003 11.993,-0.003 C18.608,-0.003 23.990,5.379 23.990,11.994 C23.990,18.610 18.608,23.992 11.993,23.992 ZM11.993,1.408 C6.156,1.408 1.407,6.157 1.407,11.994 C1.407,17.832 6.156,22.581 11.993,22.581 C17.830,22.581 22.579,17.832 22.579,11.994 C22.579,6.157 17.830,1.408 11.993,1.408 ZM8.674,11.555 L9.670,10.555 L11.992,12.868 L14.315,10.555 L15.311,11.555 L11.992,14.861 L8.674,11.555 Z"/>
</svg>
