<svg 
 xmlns="http://www.w3.org/2000/svg"
 xmlns:xlink="http://www.w3.org/1999/xlink"
 width="16px" height="18px">
<path
 d="M15.920,8.946 L14.831,15.043 C14.539,16.676 12.905,18.000 11.182,18.000 L5.465,18.000 C4.602,18.000 3.902,17.328 3.902,16.500 L3.902,5.547 C4.803,5.302 5.463,4.506 5.463,3.562 C5.463,3.499 5.460,3.437 5.455,3.375 L5.463,3.375 L5.463,1.878 C5.463,0.841 6.339,-0.000 7.415,-0.000 C8.492,-0.000 9.366,0.838 9.366,1.878 L9.366,4.357 C9.366,4.721 9.184,5.045 8.903,5.250 L12.682,5.250 C14.835,5.250 16.285,6.904 15.920,8.946 ZM1.561,18.000 C0.699,18.000 -0.000,17.328 -0.000,16.500 L-0.000,6.750 C-0.000,5.921 0.700,5.250 1.561,5.250 C2.423,5.250 3.122,5.922 3.122,6.750 L3.122,16.500 C3.122,17.328 2.421,18.000 1.561,18.000 Z"/>
</svg>
