<?xml version="1.0" encoding="utf-8"?>
<svg version="1.1" xmlns:xlink="http://www.w3.org/1999/xlink" width="713px" height="468px" xmlns="http://www.w3.org/2000/svg">
  <defs>
    <mask fill="white" id="clip30">
      <path d="M 0 465  L 0 10  C 0 8.31999999999999  1.31999999999999 7  3 7  L 104.999237368239 7  L 116.25 0.25  L 127.99993981628 7  L 710 7  C 711.68 7  713 8.31999999999999  713 10  L 713 465  C 713 466.68  711.68 468  710 468  L 3 468  C 1.31999999999999 468  0 466.68  0 465  Z " fill-rule="evenodd" />
    </mask>
  </defs>
  <g transform="matrix(1 0 0 1 -140 -286 )">
    <path d="M 0 465  L 0 10  C 0 8.31999999999999  1.31999999999999 7  3 7  L 104.999237368239 7  L 116.25 0.25  L 127.99993981628 7  L 710 7  C 711.68 7  713 8.31999999999999  713 10  L 713 465  C 713 466.68  711.68 468  710 468  L 3 468  C 1.31999999999999 468  0 466.68  0 465  Z " fill-rule="nonzero" fill="#ffffff" stroke="none" transform="matrix(1 0 0 1 140 286 )" />
    <path d="M 0 465  L 0 10  C 0 8.31999999999999  1.31999999999999 7  3 7  L 104.999237368239 7  L 116.25 0.25  L 127.99993981628 7  L 710 7  C 711.68 7  713 8.31999999999999  713 10  L 713 465  C 713 466.68  711.68 468  710 468  L 3 468  C 1.31999999999999 468  0 466.68  0 465  Z " stroke-width="2" stroke="#c1cddb" fill="none" transform="matrix(1 0 0 1 140 286 )" mask="url(#clip30)" />
  </g>
</svg>