<?xml version="1.0" encoding="utf-8"?>
<svg version="1.1" xmlns:xlink="http://www.w3.org/1999/xlink" width="30px" height="30px" xmlns="http://www.w3.org/2000/svg">
  <g transform="matrix(1 0 0 1 -456 -664 )">
    <path d="M 471 664  C 479.4 664  486 670.6  486 679  C 486 687.4  479.4 694  471 694  C 462.6 694  456 687.4  456 679  C 456 670.6  462.6 664  471 664  Z " fill-rule="nonzero" fill="#ffffff" stroke="none" />
    <path d="M 471 664.5  C 479.12 664.5  485.5 670.88  485.5 679  C 485.5 687.12  479.12 693.5  471 693.5  C 462.88 693.5  456.5 687.12  456.5 679  C 456.5 670.88  462.88 664.5  471 664.5  Z " stroke-width="1" stroke="#797979" fill="none" />
  </g>
</svg>