<?xml version="1.0" encoding="utf-8"?>
<svg version="1.1" xmlns:xlink="http://www.w3.org/1999/xlink" width="46px" height="41px" xmlns="http://www.w3.org/2000/svg">
  <g transform="matrix(1 0 0 1 -634 -722 )">
    <path d="M 657 722  C 669.88 722  680 731.02  680 742.5  C 680 753.98  669.88 763  657 763  C 644.12 763  634 753.98  634 742.5  C 634 731.02  644.12 722  657 722  Z " fill-rule="nonzero" fill="#ffffff" stroke="none" />
    <path d="M 657 722.5  C 669.6 722.5  679.5 731.3  679.5 742.5  C 679.5 753.7  669.6 762.5  657 762.5  C 644.4 762.5  634.5 753.7  634.5 742.5  C 634.5 731.3  644.4 722.5  657 722.5  Z " stroke-width="1" stroke="#797979" fill="none" />
  </g>
</svg>