<?xml version="1.0" encoding="utf-8"?>
<svg version="1.1" xmlns:xlink="http://www.w3.org/1999/xlink" width="12px" height="12px" xmlns="http://www.w3.org/2000/svg">
  <g transform="matrix(1 0 0 1 -1871 -394 )">
    <path d="M 7.80979418026959 7.80681818181819  C 7.33286018452804 8.28409090909088  7.09439318665727 8.86363636363637  7.09439318665727 9.54545454545456  C 7.09439318665727 10.2272727272727  7.33286018452804 10.8068181818182  7.80979418026959 11.2840909090909  C 8.28672817601137 11.7613636363636  8.86586231369756 12  9.54719659332864 12  C 10.2285308729595 12  10.8076650106459 11.7613636363636  11.2845990063875 11.2840909090909  C 11.7615330021292 10.8068181818182  12 10.2272727272727  12 9.54545454545456  C 12 8.86363636363637  11.7615330021292 8.28409090909088  11.2845990063875 7.80681818181819  C 10.8076650106459 7.32954545454544  10.2285308729595 7.09090909090907  9.54719659332864 7.09090909090907  C 8.86586231369756 7.09090909090907  8.28672817601137 7.32954545454544  7.80979418026959 7.80681818181819  Z M 1.58197303051816 7.20596590909093  C 1.00709723207956 8.45028409090907  0.664300922640223 9.75426136363637  0.553584102200148 11.1178977272727  C 0.536550745209297 11.3565340909091  0.608942512420072 11.5610795454546  0.770759403832471 11.7315340909091  C 0.924059616749446 11.9105113636364  1.12420156139115 12  1.37118523775735 12  L 3.09581263307314 12  C 3.30872959545786 12  3.49183818310848 11.9296875  3.64513839602546 11.7890625  C 3.79843860894243 11.6484375  3.88360539389646 11.4715909090909  3.90063875088708 11.2585227272727  C 4.08800567778576 9.30681818181819  4.87366926898517 7.63849431818181  6.25762952448554 6.25355113636363  C 7.64158977998591 4.86860795454544  9.30872959545786 4.08238636363637  11.2590489709014 3.89488636363637  C 11.4719659332861 3.87784090909093  11.6486870120652 3.79261363636363  11.7892122072392 3.63920454545456  C 11.9297374024131 3.48579545454544  12 3.30255681818181  12 3.08948863636363  L 12 1.36363636363637  C 12 1.11647727272725  11.9105748757984 0.916193181818187  11.7317246273954 0.762784090909065  C 11.5869410929738 0.617897727272748  11.403832505323 0.545454545454561  11.1823988644428 0.545454545454561  L 11.1185237757275 0.545454545454561  C 9.75585521646553 0.65625  8.45280340667136 0.999289772727252  7.20936834634495 1.57457386363637  C 5.96593328601853 2.14985795454544  4.86302342086583 2.92329545454544  3.90063875088708 3.89488636363637  C 2.92973740241314 4.85795454545456  2.15684882895675 5.96164772727275  1.58197303051816 7.20596590909093  Z " fill-rule="nonzero" fill="#c6c2c2" stroke="none" transform="matrix(1 0 0 1 1871 394 )" />
  </g>
</svg>