<?xml version="1.0" encoding="utf-8"?>
<svg version="1.1" xmlns:xlink="http://www.w3.org/1999/xlink" width="20px" height="17px" xmlns="http://www.w3.org/2000/svg">
  <g transform="matrix(1 0 0 1 -2419 -775 )">
    <path d="M 3.80208333333333 15.4981971153846  C 3.93402777777778 15.3687900641026  4 15.2155448717949  4 15.0384615384615  L 4 13.7307692307692  C 4 13.5536858974359  3.93402777777778 13.4004407051282  3.80208333333333 13.2710336538462  C 3.67013888888889 13.1416266025641  3.51388888888889 13.0769230769231  3.33333333333333 13.0769230769231  L 2 13.0769230769231  C 1.81944444444444 13.0769230769231  1.66319444444444 13.1416266025641  1.53125 13.2710336538462  C 1.39930555555556 13.4004407051282  1.33333333333333 13.5536858974359  1.33333333333333 13.7307692307692  L 1.33333333333333 15.0384615384615  C 1.33333333333333 15.2155448717949  1.39930555555556 15.3687900641026  1.53125 15.4981971153846  C 1.66319444444444 15.6276041666667  1.81944444444444 15.6923076923077  2 15.6923076923077  L 3.33333333333333 15.6923076923077  C 3.51388888888889 15.6923076923077  3.67013888888889 15.6276041666667  3.80208333333333 15.4981971153846  Z M 3.80208333333333 11.5751201923077  C 3.93402777777778 11.4457131410256  4 11.2924679487179  4 11.1153846153846  L 4 9.80769230769231  C 4 9.63060897435897  3.93402777777778 9.47736378205128  3.80208333333333 9.34795673076923  C 3.67013888888889 9.21854967948718  3.51388888888889 9.15384615384615  3.33333333333333 9.15384615384615  L 2 9.15384615384615  C 1.81944444444444 9.15384615384615  1.66319444444444 9.21854967948718  1.53125 9.34795673076923  C 1.39930555555556 9.47736378205128  1.33333333333333 9.63060897435897  1.33333333333333 9.80769230769231  L 1.33333333333333 11.1153846153846  C 1.33333333333333 11.2924679487179  1.39930555555556 11.4457131410256  1.53125 11.5751201923077  C 1.66319444444444 11.7045272435897  1.81944444444444 11.7692307692308  2 11.7692307692308  L 3.33333333333333 11.7692307692308  C 3.51388888888889 11.7692307692308  3.67013888888889 11.7045272435897  3.80208333333333 11.5751201923077  Z M 3.80208333333333 7.65204326923077  C 3.93402777777778 7.52263621794872  4 7.36939102564102  4 7.19230769230769  L 4 5.88461538461538  C 4 5.70753205128205  3.93402777777778 5.55428685897436  3.80208333333333 5.42487980769231  C 3.67013888888889 5.29547275641026  3.51388888888889 5.23076923076923  3.33333333333333 5.23076923076923  L 2 5.23076923076923  C 1.81944444444444 5.23076923076923  1.66319444444444 5.29547275641026  1.53125 5.42487980769231  C 1.39930555555556 5.55428685897436  1.33333333333333 5.70753205128205  1.33333333333333 5.88461538461538  L 1.33333333333333 7.19230769230769  C 1.33333333333333 7.36939102564102  1.39930555555556 7.52263621794872  1.53125 7.65204326923077  C 1.66319444444444 7.78145032051282  1.81944444444444 7.84615384615385  2 7.84615384615385  L 3.33333333333333 7.84615384615385  C 3.51388888888889 7.84615384615385  3.67013888888889 7.78145032051282  3.80208333333333 7.65204326923077  Z M 14.46875 15.4981971153846  C 14.6006944444444 15.3687900641026  14.6666666666667 15.2155448717949  14.6666666666667 15.0384615384615  L 14.6666666666667 9.80769230769231  C 14.6666666666667 9.63060897435897  14.6006944444444 9.47736378205128  14.46875 9.34795673076923  C 14.3368055555556 9.21854967948718  14.1805555555556 9.15384615384615  14 9.15384615384615  L 6 9.15384615384615  C 5.81944444444444 9.15384615384615  5.66319444444444 9.21854967948718  5.53125 9.34795673076923  C 5.39930555555556 9.47736378205128  5.33333333333333 9.63060897435897  5.33333333333333 9.80769230769231  L 5.33333333333333 15.0384615384615  C 5.33333333333333 15.2155448717949  5.39930555555556 15.3687900641026  5.53125 15.4981971153846  C 5.66319444444444 15.6276041666667  5.81944444444444 15.6923076923077  6 15.6923076923077  L 14 15.6923076923077  C 14.1805555555556 15.6923076923077  14.3368055555556 15.6276041666667  14.46875 15.4981971153846  Z M 3.80208333333333 3.72896634615385  C 3.93402777777778 3.59955929487179  4 3.4463141025641  4 3.26923076923077  L 4 1.96153846153846  C 4 1.78445512820513  3.93402777777778 1.63120993589743  3.80208333333333 1.50180288461538  C 3.67013888888889 1.37239583333333  3.51388888888889 1.30769230769231  3.33333333333333 1.30769230769231  L 2 1.30769230769231  C 1.81944444444444 1.30769230769231  1.66319444444444 1.37239583333333  1.53125 1.50180288461538  C 1.39930555555556 1.63120993589743  1.33333333333333 1.78445512820513  1.33333333333333 1.96153846153846  L 1.33333333333333 3.26923076923077  C 1.33333333333333 3.4463141025641  1.39930555555556 3.59955929487179  1.53125 3.72896634615385  C 1.66319444444444 3.8583733974359  1.81944444444444 3.92307692307692  2 3.92307692307692  L 3.33333333333333 3.92307692307692  C 3.51388888888889 3.92307692307692  3.67013888888889 3.8583733974359  3.80208333333333 3.72896634615385  Z M 18.46875 15.4981971153846  C 18.6006944444444 15.3687900641026  18.6666666666667 15.2155448717949  18.6666666666667 15.0384615384615  L 18.6666666666667 13.7307692307692  C 18.6666666666667 13.5536858974359  18.6006944444444 13.4004407051282  18.46875 13.2710336538462  C 18.3368055555556 13.1416266025641  18.1805555555556 13.0769230769231  18 13.0769230769231  L 16.6666666666667 13.0769230769231  C 16.4861111111111 13.0769230769231  16.3298611111111 13.1416266025641  16.1979166666667 13.2710336538462  C 16.0659722222222 13.4004407051282  16 13.5536858974359  16 13.7307692307692  L 16 15.0384615384615  C 16 15.2155448717949  16.0659722222222 15.3687900641026  16.1979166666667 15.4981971153846  C 16.3298611111111 15.6276041666667  16.4861111111111 15.6923076923077  16.6666666666667 15.6923076923077  L 18 15.6923076923077  C 18.1805555555556 15.6923076923077  18.3368055555556 15.6276041666667  18.46875 15.4981971153846  Z M 14.46875 7.65204326923077  C 14.6006944444444 7.52263621794872  14.6666666666667 7.36939102564102  14.6666666666667 7.19230769230769  L 14.6666666666667 1.96153846153846  C 14.6666666666667 1.78445512820513  14.6006944444444 1.63120993589743  14.46875 1.50180288461538  C 14.3368055555556 1.37239583333333  14.1805555555556 1.30769230769231  14 1.30769230769231  L 6 1.30769230769231  C 5.81944444444444 1.30769230769231  5.66319444444444 1.37239583333333  5.53125 1.50180288461538  C 5.39930555555556 1.63120993589743  5.33333333333333 1.78445512820513  5.33333333333333 1.96153846153846  L 5.33333333333333 7.19230769230769  C 5.33333333333333 7.36939102564102  5.39930555555556 7.52263621794872  5.53125 7.65204326923077  C 5.66319444444444 7.78145032051282  5.81944444444444 7.84615384615385  6 7.84615384615385  L 14 7.84615384615385  C 14.1805555555556 7.84615384615385  14.3368055555556 7.78145032051282  14.46875 7.65204326923077  Z M 18.46875 11.5751201923077  C 18.6006944444444 11.4457131410256  18.6666666666667 11.2924679487179  18.6666666666667 11.1153846153846  L 18.6666666666667 9.80769230769231  C 18.6666666666667 9.63060897435897  18.6006944444444 9.47736378205128  18.46875 9.34795673076923  C 18.3368055555556 9.21854967948718  18.1805555555556 9.15384615384615  18 9.15384615384615  L 16.6666666666667 9.15384615384615  C 16.4861111111111 9.15384615384615  16.3298611111111 9.21854967948718  16.1979166666667 9.34795673076923  C 16.0659722222222 9.47736378205128  16 9.63060897435897  16 9.80769230769231  L 16 11.1153846153846  C 16 11.2924679487179  16.0659722222222 11.4457131410256  16.1979166666667 11.5751201923077  C 16.3298611111111 11.7045272435897  16.4861111111111 11.7692307692308  16.6666666666667 11.7692307692308  L 18 11.7692307692308  C 18.1805555555556 11.7692307692308  18.3368055555556 11.7045272435897  18.46875 11.5751201923077  Z M 18.46875 7.65204326923077  C 18.6006944444444 7.52263621794872  18.6666666666667 7.36939102564102  18.6666666666667 7.19230769230769  L 18.6666666666667 5.88461538461538  C 18.6666666666667 5.70753205128205  18.6006944444444 5.55428685897436  18.46875 5.42487980769231  C 18.3368055555556 5.29547275641026  18.1805555555556 5.23076923076923  18 5.23076923076923  L 16.6666666666667 5.23076923076923  C 16.4861111111111 5.23076923076923  16.3298611111111 5.29547275641026  16.1979166666667 5.42487980769231  C 16.0659722222222 5.55428685897436  16 5.70753205128205  16 5.88461538461538  L 16 7.19230769230769  C 16 7.36939102564102  16.0659722222222 7.52263621794872  16.1979166666667 7.65204326923077  C 16.3298611111111 7.78145032051282  16.4861111111111 7.84615384615385  16.6666666666667 7.84615384615385  L 18 7.84615384615385  C 18.1805555555556 7.84615384615385  18.3368055555556 7.78145032051282  18.46875 7.65204326923077  Z M 18.46875 3.72896634615385  C 18.6006944444444 3.59955929487179  18.6666666666667 3.4463141025641  18.6666666666667 3.26923076923077  L 18.6666666666667 1.96153846153846  C 18.6666666666667 1.78445512820513  18.6006944444444 1.63120993589743  18.46875 1.50180288461538  C 18.3368055555556 1.37239583333333  18.1805555555556 1.30769230769231  18 1.30769230769231  L 16.6666666666667 1.30769230769231  C 16.4861111111111 1.30769230769231  16.3298611111111 1.37239583333333  16.1979166666667 1.50180288461538  C 16.0659722222222 1.63120993589743  16 1.78445512820513  16 1.96153846153846  L 16 3.26923076923077  C 16 3.4463141025641  16.0659722222222 3.59955929487179  16.1979166666667 3.72896634615385  C 16.3298611111111 3.8583733974359  16.4861111111111 3.92307692307692  16.6666666666667 3.92307692307692  L 18 3.92307692307692  C 18.1805555555556 3.92307692307692  18.3368055555556 3.8583733974359  18.46875 3.72896634615385  Z M 19.5104166666667 0.480168269230769  C 19.8368055555556 0.800280448717948  20 1.18509615384615  20 1.63461538461538  L 20 15.3653846153846  C 20 15.8149038461538  19.8368055555556 16.1997195512821  19.5104166666667 16.5198317307692  C 19.1840277777778 16.8399439102564  18.7916666666667 17  18.3333333333333 17  L 1.66666666666667 17  C 1.20833333333333 17  0.815972222222222 16.8399439102564  0.489583333333333 16.5198317307692  C 0.163194444444444 16.1997195512821  0 15.8149038461538  0 15.3653846153846  L 0 1.63461538461538  C 0 1.18509615384615  0.163194444444444 0.800280448717948  0.489583333333333 0.480168269230769  C 0.815972222222222 0.160056089743588  1.20833333333333 0  1.66666666666667 0  L 18.3333333333333 0  C 18.7916666666667 0  19.1840277777778 0.160056089743588  19.5104166666667 0.480168269230769  Z " fill-rule="nonzero" fill="#a19c9c" stroke="none" transform="matrix(1 0 0 1 2419 775 )" />
  </g>
</svg>