<?xml version="1.0" encoding="utf-8"?>
<svg version="1.1" xmlns:xlink="http://www.w3.org/1999/xlink" width="16px" height="24px" xmlns="http://www.w3.org/2000/svg">
  <g transform="matrix(1 0 0 1 -2421 -570 )">
    <path d="M 4.0625 1.9375  C 4.35416666666667 2.22916666666667  4.5 2.58333333333333  4.5 3  C 4.5 3.41666666666667  4.35416666666667 3.77083333333333  4.0625 4.0625  C 3.77083333333333 4.35416666666667  3.41666666666667 4.5  3 4.5  C 2.58333333333333 4.5  2.22916666666667 4.35416666666667  1.9375 4.0625  C 1.64583333333333 3.77083333333333  1.5 3.41666666666667  1.5 3  C 1.5 2.58333333333333  1.64583333333333 2.22916666666667  1.9375 1.9375  C 2.22916666666667 1.64583333333333  2.58333333333333 1.5  3 1.5  C 3.41666666666667 1.5  3.77083333333333 1.64583333333333  4.0625 1.9375  Z M 4.0625 19.9375  C 4.35416666666667 20.2291666666667  4.5 20.5833333333333  4.5 21  C 4.5 21.4166666666667  4.35416666666667 21.7708333333333  4.0625 22.0625  C 3.77083333333333 22.3541666666667  3.41666666666667 22.5  3 22.5  C 2.58333333333333 22.5  2.22916666666667 22.3541666666667  1.9375 22.0625  C 1.64583333333333 21.7708333333333  1.5 21.4166666666667  1.5 21  C 1.5 20.5833333333333  1.64583333333333 20.2291666666667  1.9375 19.9375  C 2.22916666666667 19.6458333333333  2.58333333333333 19.5  3 19.5  C 3.41666666666667 19.5  3.77083333333333 19.6458333333333  4.0625 19.9375  Z M 14.0625 17.9375  C 14.3541666666667 18.2291666666667  14.5 18.5833333333333  14.5 19  C 14.5 19.4166666666667  14.3541666666667 19.7708333333333  14.0625 20.0625  C 13.7708333333333 20.3541666666667  13.4166666666667 20.5  13 20.5  C 12.5833333333333 20.5  12.2291666666667 20.3541666666667  11.9375 20.0625  C 11.6458333333333 19.7708333333333  11.5 19.4166666666667  11.5 19  C 11.5 18.5833333333333  11.6458333333333 18.2291666666667  11.9375 17.9375  C 12.2291666666667 17.6458333333333  12.5833333333333 17.5  13 17.5  C 13.4166666666667 17.5  13.7708333333333 17.6458333333333  14.0625 17.9375  Z M 15.125 21.125  C 15.7083333333333 20.5416666666667  16 19.8333333333333  16 19  C 16 18.4583333333333  15.8645833333333 17.9557291666667  15.59375 17.4921875  C 15.3229166666667 17.0286458333333  14.9583333333333 16.6666666666667  14.5 16.40625  C 14.4791666666667 13.4166666666667  13.3020833333333 11.2604166666667  10.96875 9.9375  C 10.2708333333333 9.54166666666667  9.21354166666667 9.11979166666667  7.796875 8.671875  C 6.46354166666667 8.25520833333334  5.58072916666667 7.88541666666667  5.1484375 7.5625  C 4.71614583333333 7.23958333333333  4.5 6.71875  4.5 6  L 4.5 5.59375  C 4.95833333333333 5.33333333333333  5.32291666666667 4.97135416666667  5.59375 4.5078125  C 5.86458333333333 4.04427083333333  6 3.54166666666667  6 3  C 6 2.16666666666667  5.70833333333333 1.45833333333333  5.125 0.875000000000001  C 4.54166666666667 0.291666666666667  3.83333333333333 0  3 0  C 2.16666666666667 0  1.45833333333333 0.291666666666667  0.875 0.875000000000001  C 0.291666666666666 1.45833333333333  0 2.16666666666667  0 3  C 0 3.54166666666667  0.135416666666666 4.04427083333333  0.40625 4.5078125  C 0.677083333333334 4.97135416666667  1.04166666666667 5.33333333333333  1.5 5.59375  L 1.5 18.40625  C 1.04166666666667 18.6666666666667  0.677083333333334 19.0286458333333  0.40625 19.4921875  C 0.135416666666666 19.9557291666667  0 20.4583333333333  0 21  C 0 21.8333333333333  0.291666666666666 22.5416666666667  0.875 23.125  C 1.45833333333333 23.7083333333333  2.16666666666667 24  3 24  C 3.83333333333333 24  4.54166666666667 23.7083333333333  5.125 23.125  C 5.70833333333333 22.5416666666667  6 21.8333333333333  6 21  C 6 20.4583333333333  5.86458333333333 19.9557291666667  5.59375 19.4921875  C 5.32291666666667 19.0286458333333  4.95833333333333 18.6666666666667  4.5 18.40625  L 4.5 10.640625  C 5.0625 10.9114583333333  5.86458333333333 11.2083333333333  6.90625 11.53125  C 7.47916666666667 11.7083333333333  7.93489583333333 11.8619791666667  8.2734375 11.9921875  C 8.61197916666667 12.1223958333333  8.97916666666667 12.2838541666667  9.375 12.4765625  C 9.77083333333333 12.6692708333333  10.078125 12.875  10.296875 13.09375  C 10.515625 13.3125  10.7265625 13.578125  10.9296875 13.890625  C 11.1328125 14.203125  11.2786458333333 14.5651041666667  11.3671875 14.9765625  C 11.4557291666667 15.3880208333333  11.5 15.8645833333333  11.5 16.40625  C 11.0416666666667 16.6666666666667  10.6770833333333 17.0286458333333  10.40625 17.4921875  C 10.1354166666667 17.9557291666667  10 18.4583333333333  10 19  C 10 19.8333333333333  10.2916666666667 20.5416666666667  10.875 21.125  C 11.4583333333333 21.7083333333333  12.1666666666667 22  13 22  C 13.8333333333333 22  14.5416666666667 21.7083333333333  15.125 21.125  Z " fill-rule="nonzero" fill="#b7b5b5" stroke="none" transform="matrix(1 0 0 1 2421 570 )" />
  </g>
</svg>