<?xml version="1.0" encoding="utf-8"?>
<svg version="1.1" xmlns:xlink="http://www.w3.org/1999/xlink" width="17px" height="19px" xmlns="http://www.w3.org/2000/svg">
  <g transform="matrix(1 0 0 1 -2739 -427 )">
    <path d="M 11.8407451923077 14.4143415178571  C 12.1268028846154 14.071521577381  12.2698317307692 13.6421130952381  12.2698317307692 13.1261160714286  C 12.2698317307692 12.7232142857143  12.2511017628205 12.3450520833333  12.2136418269231 11.9916294642857  C 12.1761818910256 11.6382068452381  12.1046674679487 11.2830171130952  11.9990985576923 10.9260602678571  C 11.8935296474359 10.569103422619  11.7590144230769 10.2651599702381  11.5955528846154 10.0142299107143  C 11.4320913461538 9.76329985119047  11.2141426282051 9.55831473214286  10.9417067307692 9.39927455357143  C 10.6692708333333 9.240234375  10.359375 9.16071428571428  10.0120192307692 9.16071428571428  C 9.97115384615385 9.18898809523809  9.85707131410256 9.26143973214286  9.66977163461539 9.37806919642857  C 9.4824719551282 9.49469866071428  9.33774038461539 9.58128720238095  9.23557692307692 9.63783482142857  C 9.13341346153846 9.69438244047619  8.99549278846154 9.76506696428571  8.82181490384615 9.84988839285714  C 8.64813701923077 9.93470982142857  8.48127003205128 9.99479166666667  8.32121394230769 10.0301339285714  C 8.1611578525641 10.0654761904762  8.00280448717949 10.0831473214286  7.84615384615385 10.0831473214286  C 7.68950320512821 10.0831473214286  7.53114983974359 10.0654761904762  7.37109375 10.0301339285714  C 7.21103766025641 9.99479166666667  7.04417067307692 9.93470982142857  6.87049278846154 9.84988839285714  C 6.69681490384615 9.76506696428571  6.55889423076923 9.69438244047619  6.45673076923077 9.63783482142857  C 6.35456730769231 9.58128720238095  6.20983573717949 9.49469866071428  6.02253605769231 9.37806919642857  C 5.83523637820513 9.26143973214286  5.72115384615385 9.18898809523809  5.68028846153846 9.16071428571428  C 5.33293269230769 9.16071428571428  5.02303685897436 9.240234375  4.75060096153846 9.39927455357143  C 4.47816506410256 9.55831473214286  4.26021634615385 9.76329985119047  4.09675480769231 10.0142299107143  C 3.93329326923077 10.2651599702381  3.7987780448718 10.569103422619  3.69320913461538 10.9260602678571  C 3.58764022435897 11.2830171130952  3.51612580128205 11.6382068452381  3.47866586538462 11.9916294642857  C 3.44120592948718 12.3450520833333  3.42247596153846 12.7232142857143  3.42247596153846 13.1261160714286  C 3.42247596153846 13.6421130952381  3.56550480769231 14.071521577381  3.8515625 14.4143415178571  C 4.13762019230769 14.7571614583333  4.48838141025641 14.9285714285714  4.90384615384615 14.9285714285714  L 10.7884615384615 14.9285714285714  C 11.2039262820513 14.9285714285714  11.5546875 14.7571614583333  11.8407451923077 14.4143415178571  Z M 9.72085336538462 8.76841517857143  C 10.2418870192308 8.23121279761905  10.5024038461538 7.5844494047619  10.5024038461538 6.828125  C 10.5024038461538 6.06473214285714  10.2418870192308 5.41443452380952  9.72085336538462 4.87723214285714  C 9.19981971153846 4.34002976190476  8.57491987179487 4.07142857142857  7.84615384615385 4.07142857142857  C 7.11738782051282 4.07142857142857  6.49248798076923 4.34002976190476  5.97145432692308 4.87723214285714  C 5.45042067307692 5.41443452380952  5.18990384615385 6.06473214285714  5.18990384615385 6.828125  C 5.18990384615385 7.5844494047619  5.45042067307692 8.23121279761905  5.97145432692308 8.76841517857143  C 6.49248798076923 9.30561755952381  7.11738782051282 9.57421875  7.84615384615385 9.57421875  C 8.57491987179487 9.57421875  9.19981971153846 9.30561755952381  9.72085336538462 8.76841517857143  Z M 16.9080528846154 12.3097098214286  C 16.9693509615385 12.3733258928571  17 12.4546130952381  17 12.5535714285714  L 17 14.5892857142857  C 17 14.688244047619  16.9693509615385 14.76953125  16.9080528846154 14.8331473214286  C 16.8467548076923 14.8967633928571  16.7684294871795 14.9285714285714  16.6730769230769 14.9285714285714  L 15.6923076923077 14.9285714285714  L 15.6923076923077 17.3035714285714  C 15.6923076923077 17.7700892857143  15.5322516025641 18.1694568452381  15.2121394230769 18.5016741071429  C 14.8920272435897 18.8338913690476  14.5072115384615 19  14.0576923076923 19  L 1.63461538461538 19  C 1.18509615384615 19  0.800280448717949 18.8338913690476  0.480168269230769 18.5016741071429  C 0.16005608974359 18.1694568452381  0 17.7700892857143  0 17.3035714285714  L 0 1.69642857142857  C 0 1.22991071428572  0.16005608974359 0.830543154761904  0.480168269230769 0.498325892857143  C 0.800280448717949 0.166108630952381  1.18509615384615 0  1.63461538461538 0  L 14.0576923076923 0  C 14.5072115384615 0  14.8920272435897 0.166108630952381  15.2121394230769 0.498325892857143  C 15.5322516025641 0.830543154761904  15.6923076923077 1.22991071428572  15.6923076923077 1.69642857142857  L 15.6923076923077 4.07142857142857  L 16.6730769230769 4.07142857142857  C 16.7684294871795 4.07142857142857  16.8467548076923 4.10323660714286  16.9080528846154 4.16685267857143  C 16.9693509615385 4.23046875  17 4.31175595238095  17 4.41071428571428  L 17 6.44642857142857  C 17 6.5453869047619  16.9693509615385 6.62667410714286  16.9080528846154 6.69029017857143  C 16.8467548076923 6.75390625  16.7684294871795 6.78571428571428  16.6730769230769 6.78571428571428  L 15.6923076923077 6.78571428571428  L 15.6923076923077 8.14285714285714  L 16.6730769230769 8.14285714285714  C 16.7684294871795 8.14285714285714  16.8467548076923 8.17466517857143  16.9080528846154 8.23828125  C 16.9693509615385 8.30189732142857  17 8.38318452380952  17 8.48214285714286  L 17 10.5178571428571  C 17 10.6168154761905  16.9693509615385 10.6981026785714  16.9080528846154 10.76171875  C 16.8467548076923 10.8253348214286  16.7684294871795 10.8571428571429  16.6730769230769 10.8571428571429  L 15.6923076923077 10.8571428571429  L 15.6923076923077 12.2142857142857  L 16.6730769230769 12.2142857142857  C 16.7684294871795 12.2142857142857  16.8467548076923 12.24609375  16.9080528846154 12.3097098214286  Z " fill-rule="nonzero" fill="#959393" stroke="none" transform="matrix(1 0 0 1 2739 427 )" />
  </g>
</svg>