<?xml version="1.0" encoding="utf-8"?>
<svg version="1.1" xmlns:xlink="http://www.w3.org/1999/xlink" width="12px" height="12px" viewBox="476 160.5  12 12" xmlns="http://www.w3.org/2000/svg">
  <path d="M 482 160.5  C 485.36 160.5  488 163.14  488 166.5  C 488 169.86  485.36 172.5  482 172.5  C 478.64 172.5  476 169.86  476 166.5  C 476 163.14  478.64 160.5  482 160.5  Z " fill-rule="nonzero" fill="#ffffff" stroke="none" />
  <path d="M 482 161  C 485.08 161  487.5 163.42  487.5 166.5  C 487.5 169.58  485.08 172  482 172  C 478.92 172  476.5 169.58  476.5 166.5  C 476.5 163.42  478.92 161  482 161  Z " stroke-width="1" stroke="#797979" fill="none" />
  <path d="M 482 169.5  C 480.32 169.5  479 168.18  479 166.5  C 479 164.82  480.32 163.5  482 163.5  C 483.68 163.5  485 164.82  485 166.5  C 485 168.18  483.68 169.5  482 169.5  " fill-rule="nonzero" fill="#797979" stroke="none" />
</svg>