<?xml version="1.0" encoding="utf-8"?>
<svg version="1.1" xmlns:xlink="http://www.w3.org/1999/xlink" width="12px" height="12px" viewBox="427 160.5  12 12" xmlns="http://www.w3.org/2000/svg">
  <path d="M 433 160.5  C 436.36 160.5  439 163.14  439 166.5  C 439 169.86  436.36 172.5  433 172.5  C 429.64 172.5  427 169.86  427 166.5  C 427 163.14  429.64 160.5  433 160.5  Z " fill-rule="nonzero" fill="#ffffff" stroke="none" />
  <path d="M 433 161  C 436.08 161  438.5 163.42  438.5 166.5  C 438.5 169.58  436.08 172  433 172  C 429.92 172  427.5 169.58  427.5 166.5  C 427.5 163.42  429.92 161  433 161  Z " stroke-width="1" stroke="#797979" fill="none" />
  <path d="M 433 169.5  C 431.32 169.5  430 168.18  430 166.5  C 430 164.82  431.32 163.5  433 163.5  C 434.68 163.5  436 164.82  436 166.5  C 436 168.18  434.68 169.5  433 169.5  " fill-rule="nonzero" fill="#797979" stroke="none" />
</svg>