<?xml version="1.0" encoding="utf-8"?>
<svg version="1.1" xmlns:xlink="http://www.w3.org/1999/xlink" width="357px" height="468px" xmlns="http://www.w3.org/2000/svg">
  <defs>
    <mask fill="white" id="clip32">
      <path d="M 0 465  L 0 10  C 0 8.31999999999999  0.660925666199155 7  1.50210378681627 7  L 52.573250687884 7  L 58.2065217391304 0.25  L 64.0897314367631 7  L 355.497896213184 7  C 356.339074333801 7  357 8.31999999999999  357 10  L 357 465  C 357 466.68  356.339074333801 468  355.497896213184 468  L 1.50210378681627 468  C 0.660925666199155 468  0 466.68  0 465  Z " fill-rule="evenodd" />
    </mask>
  </defs>
  <g transform="matrix(1 0 0 1 -140 -216 )">
    <path d="M 0 465  L 0 10  C 0 8.31999999999999  0.660925666199155 7  1.50210378681627 7  L 52.573250687884 7  L 58.2065217391304 0.25  L 64.0897314367631 7  L 355.497896213184 7  C 356.339074333801 7  357 8.31999999999999  357 10  L 357 465  C 357 466.68  356.339074333801 468  355.497896213184 468  L 1.50210378681627 468  C 0.660925666199155 468  0 466.68  0 465  Z " fill-rule="nonzero" fill="#ffffff" stroke="none" transform="matrix(1 0 0 1 140 216 )" />
    <path d="M 0 465  L 0 10  C 0 8.31999999999999  0.660925666199155 7  1.50210378681627 7  L 52.573250687884 7  L 58.2065217391304 0.25  L 64.0897314367631 7  L 355.497896213184 7  C 356.339074333801 7  357 8.31999999999999  357 10  L 357 465  C 357 466.68  356.339074333801 468  355.497896213184 468  L 1.50210378681627 468  C 0.660925666199155 468  0 466.68  0 465  Z " stroke-width="2" stroke="#c1cddb" fill="none" transform="matrix(1 0 0 1 140 216 )" mask="url(#clip32)" />
  </g>
</svg>