<?xml version="1.0" encoding="utf-8"?>
<svg version="1.1" xmlns:xlink="http://www.w3.org/1999/xlink" width="297px" height="231px" xmlns="http://www.w3.org/2000/svg">
  <g transform="matrix(1 0 0 1 -1292 -914 )">
    <path d="M 1292 914  L 1589 914  L 1589 1145  L 1292 1145  L 1292 914  " fill-rule="nonzero" fill="#cccccc" stroke="none" />
    <path d="M 1308 930  L 1573 930  L 1573 1129  L 1308 1129  L 1308 930  " fill-rule="nonzero" fill="#ffffff" stroke="none" />
    <path d="M 1463.765 983.3  C 1454.063 983.3  1446.44 975.677  1446.44 965.975  C 1446.44 956.273  1454.063 948.65  1463.765 948.65  C 1473.467 948.65  1481.09 956.273  1481.09 965.975  C 1481.09 975.677  1473.467 983.3  1463.765 983.3  " fill-rule="nonzero" fill="#cccccc" stroke="none" />
    <path d="M 1314 1123  L 1314 1020.15  L 1377.25 973.4  L 1465.8 1035.73333333333  L 1516.4 1001.45  L 1567 1035.73333333333  L 1567 1123  L 1314 1123  " fill-rule="nonzero" fill="#169bd5" stroke="none" />
  </g>
</svg>