<?xml version="1.0" encoding="utf-8"?>
<svg version="1.1" xmlns:xlink="http://www.w3.org/1999/xlink" width="293px" height="231px" xmlns="http://www.w3.org/2000/svg">
  <g transform="matrix(1 0 0 1 -28 -914 )">
    <path d="M 28 914  L 321 914  L 321 1145  L 28 1145  L 28 914  " fill-rule="nonzero" fill="#cccccc" stroke="none" />
    <path d="M 44 930  L 305 930  L 305 1129  L 44 1129  L 44 930  " fill-rule="nonzero" fill="#ffffff" stroke="none" />
    <path d="M 197.685 983.3  C 187.983 983.3  180.36 975.677  180.36 965.975  C 180.36 956.273  187.983 948.65  197.685 948.65  C 207.387 948.65  215.01 956.273  215.01 965.975  C 215.01 975.677  207.387 983.3  197.685 983.3  " fill-rule="nonzero" fill="#cccccc" stroke="none" />
    <path d="M 50 1123  L 50 1020.15  L 112.25 973.4  L 199.4 1034.54197952218  L 249.2 1001.45  L 299 1034.54197952218  L 299 1123  L 50 1123  " fill-rule="nonzero" fill="#169bd5" stroke="none" />
  </g>
</svg>