<?xml version="1.0" encoding="utf-8"?>
<svg version="1.1" xmlns:xlink="http://www.w3.org/1999/xlink" width="15px" height="15px" xmlns="http://www.w3.org/2000/svg">
  <g transform="matrix(1 0 0 1 -16 -235 )">
    <path d="M 23.5 236  C 27.14 236  30 238.86  30 242.5  C 30 246.14  27.14 249  23.5 249  C 19.86 249  17 246.14  17 242.5  C 17 238.86  19.86 236  23.5 236  Z " fill-rule="nonzero" fill="#ffffff" stroke="none" fill-opacity="0" />
    <path d="M 23.5 236  C 27.14 236  30 238.86  30 242.5  C 30 246.14  27.14 249  23.5 249  C 19.86 249  17 246.14  17 242.5  C 17 238.86  19.86 236  23.5 236  Z " stroke-width="2" stroke="#ffffff" fill="none" />
  </g>
</svg>