<?xml version="1.0" encoding="utf-8"?>
<svg version="1.1" xmlns:xlink="http://www.w3.org/1999/xlink" width="283px" height="40px" xmlns="http://www.w3.org/2000/svg">
  <defs>
    <mask fill="white" id="clip14">
      <path d="M 0 35  L 0 5  C 0 2.19999999999999  3.08217821782179 0  7.00495049504951 0  L 92.5262591476539 0  L 275.99504950495 0  C 279.917821782178 0  283 2.19999999999999  283 5  L 283 35  C 283 37.8  279.917821782178 40  275.99504950495 40  L 7.00495049504951 40  C 3.08217821782179 40  0 37.8  0 35  Z " fill-rule="evenodd" />
    </mask>
  </defs>
  <g transform="matrix(1 0 0 1 -47 -346 )">
    <path d="M 0 35  L 0 5  C 0 2.19999999999999  3.08217821782179 0  7.00495049504951 0  L 92.5262591476539 0  L 275.99504950495 0  C 279.917821782178 0  283 2.19999999999999  283 5  L 283 35  C 283 37.8  279.917821782178 40  275.99504950495 40  L 7.00495049504951 40  C 3.08217821782179 40  0 37.8  0 35  Z " fill-rule="nonzero" fill="#ffffff" stroke="none" transform="matrix(1 0 0 1 47 346 )" />
    <path d="M 0 35  L 0 5  C 0 2.19999999999999  3.08217821782179 0  7.00495049504951 0  L 92.5262591476539 0  L 275.99504950495 0  C 279.917821782178 0  283 2.19999999999999  283 5  L 283 35  C 283 37.8  279.917821782178 40  275.99504950495 40  L 7.00495049504951 40  C 3.08217821782179 40  0 37.8  0 35  Z " stroke-width="2" stroke="#797979" fill="none" transform="matrix(1 0 0 1 47 346 )" mask="url(#clip14)" />
  </g>
</svg>